<?xml version="1.0" encoding="utf-8" standalone="no"?>
<!DOCTYPE svg PUBLIC "-//W3C//DTD SVG 1.1//EN"
  "http://www.w3.org/Graphics/SVG/1.1/DTD/svg11.dtd">
<svg xmlns:xlink="http://www.w3.org/1999/xlink" width="487.840625pt" height="337.074375pt" viewBox="0 0 487.840625 337.074375" xmlns="http://www.w3.org/2000/svg" version="1.1">
 <metadata>
  <rdf:RDF xmlns:dc="http://purl.org/dc/elements/1.1/" xmlns:cc="http://creativecommons.org/ns#" xmlns:rdf="http://www.w3.org/1999/02/22-rdf-syntax-ns#">
   <cc:Work>
    <dc:type rdf:resource="http://purl.org/dc/dcmitype/StillImage"/>
    <dc:date>2025-03-31T15:37:27.807347</dc:date>
    <dc:format>image/svg+xml</dc:format>
    <dc:creator>
     <cc:Agent>
      <dc:title>Matplotlib v3.9.2, https://matplotlib.org/</dc:title>
     </cc:Agent>
    </dc:creator>
   </cc:Work>
  </rdf:RDF>
 </metadata>
 <defs>
  <style type="text/css">*{stroke-linejoin: round; stroke-linecap: butt}</style>
 </defs>
 <g id="figure_1">
  <g id="patch_1">
   <path d="M 0 337.074375 
L 487.840625 337.074375 
L 487.840625 0 
L 0 0 
z
" style="fill: #ffffff"/>
  </g>
  <g id="axes_1">
   <g id="patch_2">
    <path d="M 34.240625 299.518125 
L 480.640625 299.518125 
L 480.640625 22.318125 
L 34.240625 22.318125 
z
" style="fill: #ffffff"/>
   </g>
   <g id="PolyCollection_1">
    <defs>
     <path id="m10ca878b1a" d="M 62.250915 -37.559737 
L 62.250915 -37.55625 
L 64.251412 -37.55625 
L 66.251908 -37.55625 
L 68.252405 -37.55625 
L 70.252901 -37.55625 
L 72.253398 -37.55625 
L 74.253894 -37.55625 
L 76.254391 -37.55625 
L 78.254887 -37.55625 
L 80.255384 -37.55625 
L 82.25588 -37.55625 
L 84.256377 -37.55625 
L 86.256873 -37.55625 
L 88.25737 -37.55625 
L 90.257866 -37.55625 
L 92.258363 -37.55625 
L 94.258859 -37.55625 
L 96.259355 -37.55625 
L 98.259852 -37.55625 
L 100.260348 -37.55625 
L 102.260845 -37.55625 
L 104.261341 -37.55625 
L 106.261838 -37.55625 
L 108.262334 -37.55625 
L 110.262831 -37.55625 
L 112.263327 -37.55625 
L 114.263824 -37.55625 
L 116.26432 -37.55625 
L 118.264817 -37.55625 
L 120.265313 -37.55625 
L 122.26581 -37.55625 
L 124.266306 -37.55625 
L 126.266803 -37.55625 
L 128.267299 -37.55625 
L 130.267796 -37.55625 
L 132.268292 -37.55625 
L 134.268789 -37.55625 
L 136.269285 -37.55625 
L 138.269782 -37.55625 
L 140.270278 -37.55625 
L 142.270775 -37.55625 
L 144.271271 -37.55625 
L 146.271768 -37.55625 
L 148.272264 -37.55625 
L 150.272761 -37.55625 
L 152.273257 -37.55625 
L 154.273754 -37.55625 
L 156.27425 -37.55625 
L 158.274747 -37.55625 
L 160.275243 -37.55625 
L 162.27574 -37.55625 
L 164.276236 -37.55625 
L 166.276732 -37.55625 
L 168.277229 -37.55625 
L 170.277725 -37.55625 
L 172.278222 -37.55625 
L 174.278718 -37.55625 
L 176.279215 -37.55625 
L 178.279711 -37.55625 
L 180.280208 -37.55625 
L 182.280704 -37.55625 
L 184.281201 -37.55625 
L 186.281697 -37.55625 
L 188.282194 -37.55625 
L 190.28269 -37.55625 
L 192.283187 -37.55625 
L 194.283683 -37.55625 
L 196.28418 -37.55625 
L 198.284676 -37.55625 
L 200.285173 -37.55625 
L 202.285669 -37.55625 
L 204.286166 -37.55625 
L 206.286662 -37.55625 
L 208.287159 -37.55625 
L 210.287655 -37.55625 
L 212.288152 -37.55625 
L 214.288648 -37.55625 
L 216.289145 -37.55625 
L 218.289641 -37.55625 
L 220.290138 -37.55625 
L 222.290634 -37.55625 
L 224.291131 -37.55625 
L 226.291627 -37.55625 
L 228.292124 -37.55625 
L 230.29262 -37.55625 
L 232.293117 -37.55625 
L 234.293613 -37.55625 
L 236.294109 -37.55625 
L 238.294606 -37.55625 
L 240.295102 -37.55625 
L 242.295599 -37.55625 
L 244.296095 -37.55625 
L 246.296592 -37.55625 
L 248.297088 -37.55625 
L 250.297585 -37.55625 
L 252.298081 -37.55625 
L 254.298578 -37.55625 
L 256.299074 -37.55625 
L 258.299571 -37.55625 
L 260.300067 -37.55625 
L 262.300564 -37.55625 
L 264.30106 -37.55625 
L 266.301557 -37.55625 
L 268.302053 -37.55625 
L 270.30255 -37.55625 
L 272.303046 -37.55625 
L 274.303543 -37.55625 
L 276.304039 -37.55625 
L 278.304536 -37.55625 
L 280.305032 -37.55625 
L 282.305529 -37.55625 
L 284.306025 -37.55625 
L 286.306522 -37.55625 
L 288.307018 -37.55625 
L 290.307515 -37.55625 
L 292.308011 -37.55625 
L 294.308508 -37.55625 
L 296.309004 -37.55625 
L 298.309501 -37.55625 
L 300.309997 -37.55625 
L 302.310494 -37.55625 
L 304.31099 -37.55625 
L 306.311486 -37.55625 
L 308.311983 -37.55625 
L 310.312479 -37.55625 
L 312.312976 -37.55625 
L 314.313472 -37.55625 
L 316.313969 -37.55625 
L 318.314465 -37.55625 
L 320.314962 -37.55625 
L 322.315458 -37.55625 
L 324.315955 -37.55625 
L 326.316451 -37.55625 
L 328.316948 -37.55625 
L 330.317444 -37.55625 
L 332.317941 -37.55625 
L 334.318437 -37.55625 
L 336.318934 -37.55625 
L 338.31943 -37.55625 
L 340.319927 -37.55625 
L 342.320423 -37.55625 
L 344.32092 -37.55625 
L 346.321416 -37.55625 
L 348.321913 -37.55625 
L 350.322409 -37.55625 
L 352.322906 -37.55625 
L 354.323402 -37.55625 
L 356.323899 -37.55625 
L 358.324395 -37.55625 
L 360.324892 -37.55625 
L 362.325388 -37.55625 
L 364.325885 -37.55625 
L 366.326381 -37.55625 
L 368.326878 -37.55625 
L 370.327374 -37.55625 
L 372.327871 -37.55625 
L 374.328367 -37.55625 
L 376.328864 -37.55625 
L 378.32936 -37.55625 
L 380.329856 -37.55625 
L 382.330353 -37.55625 
L 384.330849 -37.55625 
L 386.331346 -37.55625 
L 388.331842 -37.55625 
L 390.332339 -37.55625 
L 392.332835 -37.55625 
L 394.333332 -37.55625 
L 396.333828 -37.55625 
L 398.334325 -37.55625 
L 400.334821 -37.55625 
L 402.335318 -37.55625 
L 404.335814 -37.55625 
L 406.336311 -37.55625 
L 408.336807 -37.55625 
L 410.337304 -37.55625 
L 412.3378 -37.55625 
L 414.338297 -37.55625 
L 416.338793 -37.55625 
L 418.33929 -37.55625 
L 420.339786 -37.55625 
L 422.340283 -37.55625 
L 424.340779 -37.55625 
L 426.341276 -37.55625 
L 428.341772 -37.55625 
L 430.342269 -37.55625 
L 432.342765 -37.55625 
L 434.343262 -37.55625 
L 436.343758 -37.55625 
L 438.344255 -37.55625 
L 440.344751 -37.55625 
L 442.345248 -37.55625 
L 444.345744 -37.55625 
L 446.346241 -37.55625 
L 448.346737 -37.55625 
L 450.347233 -37.55625 
L 452.34773 -37.55625 
L 454.348226 -37.55625 
L 456.348723 -37.55625 
L 458.349219 -37.55625 
L 460.349716 -37.55625 
L 460.349716 -37.5576 
L 460.349716 -37.5576 
L 458.349219 -37.559389 
L 456.348723 -37.563178 
L 454.348226 -37.570789 
L 452.34773 -37.585293 
L 450.347233 -37.611559 
L 448.346737 -37.656803 
L 446.346241 -37.731014 
L 444.345744 -37.847037 
L 442.345248 -38.020114 
L 440.344751 -38.266727 
L 438.344255 -38.602824 
L 436.343758 -39.041739 
L 434.343262 -39.592448 
L 432.342765 -40.258924 
L 430.342269 -41.041268 
L 428.341772 -41.938802 
L 426.341276 -42.954615 
L 424.340779 -44.100336 
L 422.340283 -45.399447 
L 420.339786 -46.88757 
L 418.33929 -48.608924 
L 416.338793 -50.60935 
L 414.338297 -52.927659 
L 412.3378 -55.587881 
L 410.337304 -58.59497 
L 408.336807 -61.935365 
L 406.336311 -65.582076 
L 404.335814 -69.502172 
L 402.335318 -73.663729 
L 400.334821 -78.039669 
L 398.334325 -82.607482 
L 396.333828 -87.345849 
L 394.333332 -92.230755 
L 392.332835 -97.234104 
L 390.332339 -102.326718 
L 388.331842 -107.48546 
L 386.331346 -112.701909 
L 384.330849 -117.988761 
L 382.330353 -123.380566 
L 380.329856 -128.927445 
L 378.32936 -134.6833 
L 376.328864 -140.692247 
L 374.328367 -146.977721 
L 372.327871 -153.537358 
L 370.327374 -160.343953 
L 368.326878 -167.350095 
L 366.326381 -174.492856 
L 364.325885 -181.696083 
L 362.325388 -188.870743 
L 360.324892 -195.916404 
L 358.324395 -202.727604 
L 356.323899 -209.206804 
L 354.323402 -215.282072 
L 352.322906 -220.924529 
L 350.322409 -226.159322 
L 348.321913 -231.064865 
L 346.321416 -235.757891 
L 344.32092 -240.365965 
L 342.320423 -244.993785 
L 340.319927 -249.69335 
L 338.31943 -254.448569 
L 336.318934 -259.180662 
L 334.318437 -263.772631 
L 332.317941 -268.103011 
L 330.317444 -272.07557 
L 328.316948 -275.634774 
L 326.316451 -278.764769 
L 324.315955 -281.47754 
L 322.315458 -283.79943 
L 320.314962 -285.763122 
L 318.314465 -287.406752 
L 316.313969 -288.776742 
L 314.313472 -289.929011 
L 312.312976 -290.924748 
L 310.312479 -291.820489 
L 308.311983 -292.655642 
L 306.311486 -293.442453 
L 304.31099 -294.163082 
L 302.310494 -294.776232 
L 300.309997 -295.23223 
L 298.309501 -295.491938 
L 296.309004 -295.54272 
L 294.308508 -295.405356 
L 292.308011 -295.12916 
L 290.307515 -294.777298 
L 288.307018 -294.40795 
L 286.306522 -294.057844 
L 284.306025 -293.732875 
L 282.305529 -293.40744 
L 280.305032 -293.031672 
L 278.304536 -292.544411 
L 276.304039 -291.889241 
L 274.303543 -291.030431 
L 272.303046 -289.965104 
L 270.30255 -288.728055 
L 268.302053 -287.386966 
L 266.301557 -286.028306 
L 264.30106 -284.737163 
L 262.300564 -283.576575 
L 260.300067 -282.5726 
L 258.299571 -281.710133 
L 256.299074 -280.941205 
L 254.298578 -280.203206 
L 252.298081 -279.440388 
L 250.297585 -278.620232 
L 248.297088 -277.738052 
L 246.296592 -276.808579 
L 244.296095 -275.849696 
L 242.295599 -274.867642 
L 240.295102 -273.852137 
L 238.294606 -272.784098 
L 236.294109 -271.651036 
L 234.293613 -270.460306 
L 232.293117 -269.241243 
L 230.29262 -268.03362 
L 228.292124 -266.868123 
L 226.291627 -265.749577 
L 224.291131 -264.652252 
L 222.290634 -263.529425 
L 220.290138 -262.33097 
L 218.289641 -261.018437 
L 216.289145 -259.569498 
L 214.288648 -257.971053 
L 212.288152 -256.207574 
L 210.287655 -254.253678 
L 208.287159 -252.076427 
L 206.286662 -249.646181 
L 204.286166 -246.949814 
L 202.285669 -243.999414 
L 200.285173 -240.832796 
L 198.284676 -237.506354 
L 196.28418 -234.083348 
L 194.283683 -230.621036 
L 192.283187 -227.159217 
L 190.28269 -223.712121 
L 188.282194 -220.265281 
L 186.281697 -216.778524 
L 184.281201 -213.194958 
L 182.280704 -209.454088 
L 180.280208 -205.505843 
L 178.279711 -201.321938 
L 176.279215 -196.901807 
L 174.278718 -192.271934 
L 172.278222 -187.479245 
L 170.277725 -182.580943 
L 168.277229 -177.634045 
L 166.276732 -172.687726 
L 164.276236 -167.780119 
L 162.27574 -162.939231 
L 160.275243 -158.185831 
L 158.274747 -153.535602 
L 156.27425 -148.998722 
L 154.273754 -144.576918 
L 152.273257 -140.259839 
L 150.272761 -136.023237 
L 148.272264 -131.830707 
L 146.271768 -127.638957 
L 144.271271 -123.405106 
L 142.270775 -119.09396 
L 140.270278 -114.683777 
L 138.269782 -110.169938 
L 136.269285 -105.566384 
L 134.268789 -100.904698 
L 132.268292 -96.230568 
L 130.267796 -91.597845 
L 128.267299 -87.061325 
L 126.266803 -82.670223 
L 124.266306 -78.464277 
L 122.26581 -74.473286 
L 120.265313 -70.719198 
L 118.264817 -67.218662 
L 116.26432 -63.984022 
L 114.263824 -61.021987 
L 112.263327 -58.330986 
L 110.262831 -55.899226 
L 108.262334 -53.705239 
L 106.261838 -51.721336 
L 104.261341 -49.918845 
L 102.260845 -48.273148 
L 100.260348 -46.766759 
L 98.259852 -45.389727 
L 96.259355 -44.137804 
L 94.258859 -43.009623 
L 92.258363 -42.004184 
L 90.257866 -41.119432 
L 88.25737 -40.352 
L 86.256873 -39.697543 
L 84.256377 -39.150999 
L 82.25588 -38.706368 
L 80.255384 -38.356089 
L 78.254887 -38.09048 
L 76.254391 -37.8977 
L 74.253894 -37.764409 
L 72.253398 -37.676955 
L 70.252901 -37.622672 
L 68.252405 -37.590868 
L 66.251908 -37.573311 
L 64.251412 -37.564191 
L 62.250915 -37.559737 
z
" style="stroke: #fa8072"/>
    </defs>
    <g clip-path="url(#p615430ae62)">
     <use xlink:href="#m10ca878b1a" x="0" y="337.074375" style="fill: #fa8072; fill-opacity: 0.25; stroke: #fa8072"/>
    </g>
   </g>
   <g id="PolyCollection_2">
    <defs>
     <path id="ma7a1f0b672" d="M 54.531534 -37.557686 
L 54.531534 -37.55625 
L 56.560983 -37.55625 
L 58.590431 -37.55625 
L 60.61988 -37.55625 
L 62.649328 -37.55625 
L 64.678776 -37.55625 
L 66.708225 -37.55625 
L 68.737673 -37.55625 
L 70.767122 -37.55625 
L 72.79657 -37.55625 
L 74.826019 -37.55625 
L 76.855467 -37.55625 
L 78.884916 -37.55625 
L 80.914364 -37.55625 
L 82.943813 -37.55625 
L 84.973261 -37.55625 
L 87.00271 -37.55625 
L 89.032158 -37.55625 
L 91.061607 -37.55625 
L 93.091055 -37.55625 
L 95.120504 -37.55625 
L 97.149952 -37.55625 
L 99.179401 -37.55625 
L 101.208849 -37.55625 
L 103.238297 -37.55625 
L 105.267746 -37.55625 
L 107.297194 -37.55625 
L 109.326643 -37.55625 
L 111.356091 -37.55625 
L 113.38554 -37.55625 
L 115.414988 -37.55625 
L 117.444437 -37.55625 
L 119.473885 -37.55625 
L 121.503334 -37.55625 
L 123.532782 -37.55625 
L 125.562231 -37.55625 
L 127.591679 -37.55625 
L 129.621128 -37.55625 
L 131.650576 -37.55625 
L 133.680025 -37.55625 
L 135.709473 -37.55625 
L 137.738922 -37.55625 
L 139.76837 -37.55625 
L 141.797818 -37.55625 
L 143.827267 -37.55625 
L 145.856715 -37.55625 
L 147.886164 -37.55625 
L 149.915612 -37.55625 
L 151.945061 -37.55625 
L 153.974509 -37.55625 
L 156.003958 -37.55625 
L 158.033406 -37.55625 
L 160.062855 -37.55625 
L 162.092303 -37.55625 
L 164.121752 -37.55625 
L 166.1512 -37.55625 
L 168.180649 -37.55625 
L 170.210097 -37.55625 
L 172.239546 -37.55625 
L 174.268994 -37.55625 
L 176.298443 -37.55625 
L 178.327891 -37.55625 
L 180.357339 -37.55625 
L 182.386788 -37.55625 
L 184.416236 -37.55625 
L 186.445685 -37.55625 
L 188.475133 -37.55625 
L 190.504582 -37.55625 
L 192.53403 -37.55625 
L 194.563479 -37.55625 
L 196.592927 -37.55625 
L 198.622376 -37.55625 
L 200.651824 -37.55625 
L 202.681273 -37.55625 
L 204.710721 -37.55625 
L 206.74017 -37.55625 
L 208.769618 -37.55625 
L 210.799067 -37.55625 
L 212.828515 -37.55625 
L 214.857964 -37.55625 
L 216.887412 -37.55625 
L 218.91686 -37.55625 
L 220.946309 -37.55625 
L 222.975757 -37.55625 
L 225.005206 -37.55625 
L 227.034654 -37.55625 
L 229.064103 -37.55625 
L 231.093551 -37.55625 
L 233.123 -37.55625 
L 235.152448 -37.55625 
L 237.181897 -37.55625 
L 239.211345 -37.55625 
L 241.240794 -37.55625 
L 243.270242 -37.55625 
L 245.299691 -37.55625 
L 247.329139 -37.55625 
L 249.358588 -37.55625 
L 251.388036 -37.55625 
L 253.417485 -37.55625 
L 255.446933 -37.55625 
L 257.476381 -37.55625 
L 259.50583 -37.55625 
L 261.535278 -37.55625 
L 263.564727 -37.55625 
L 265.594175 -37.55625 
L 267.623624 -37.55625 
L 269.653072 -37.55625 
L 271.682521 -37.55625 
L 273.711969 -37.55625 
L 275.741418 -37.55625 
L 277.770866 -37.55625 
L 279.800315 -37.55625 
L 281.829763 -37.55625 
L 283.859212 -37.55625 
L 285.88866 -37.55625 
L 287.918109 -37.55625 
L 289.947557 -37.55625 
L 291.977006 -37.55625 
L 294.006454 -37.55625 
L 296.035902 -37.55625 
L 298.065351 -37.55625 
L 300.094799 -37.55625 
L 302.124248 -37.55625 
L 304.153696 -37.55625 
L 306.183145 -37.55625 
L 308.212593 -37.55625 
L 310.242042 -37.55625 
L 312.27149 -37.55625 
L 314.300939 -37.55625 
L 316.330387 -37.55625 
L 318.359836 -37.55625 
L 320.389284 -37.55625 
L 322.418733 -37.55625 
L 324.448181 -37.55625 
L 326.47763 -37.55625 
L 328.507078 -37.55625 
L 330.536527 -37.55625 
L 332.565975 -37.55625 
L 334.595423 -37.55625 
L 336.624872 -37.55625 
L 338.65432 -37.55625 
L 340.683769 -37.55625 
L 342.713217 -37.55625 
L 344.742666 -37.55625 
L 346.772114 -37.55625 
L 348.801563 -37.55625 
L 350.831011 -37.55625 
L 352.86046 -37.55625 
L 354.889908 -37.55625 
L 356.919357 -37.55625 
L 358.948805 -37.55625 
L 360.978254 -37.55625 
L 363.007702 -37.55625 
L 365.037151 -37.55625 
L 367.066599 -37.55625 
L 369.096048 -37.55625 
L 371.125496 -37.55625 
L 373.154944 -37.55625 
L 375.184393 -37.55625 
L 377.213841 -37.55625 
L 379.24329 -37.55625 
L 381.272738 -37.55625 
L 383.302187 -37.55625 
L 385.331635 -37.55625 
L 387.361084 -37.55625 
L 389.390532 -37.55625 
L 391.419981 -37.55625 
L 393.449429 -37.55625 
L 395.478878 -37.55625 
L 397.508326 -37.55625 
L 399.537775 -37.55625 
L 401.567223 -37.55625 
L 403.596672 -37.55625 
L 405.62612 -37.55625 
L 407.655569 -37.55625 
L 409.685017 -37.55625 
L 411.714465 -37.55625 
L 413.743914 -37.55625 
L 415.773362 -37.55625 
L 417.802811 -37.55625 
L 419.832259 -37.55625 
L 421.861708 -37.55625 
L 423.891156 -37.55625 
L 425.920605 -37.55625 
L 427.950053 -37.55625 
L 429.979502 -37.55625 
L 432.00895 -37.55625 
L 434.038399 -37.55625 
L 436.067847 -37.55625 
L 438.097296 -37.55625 
L 440.126744 -37.55625 
L 442.156193 -37.55625 
L 444.185641 -37.55625 
L 446.21509 -37.55625 
L 448.244538 -37.55625 
L 450.273987 -37.55625 
L 452.303435 -37.55625 
L 454.332883 -37.55625 
L 456.362332 -37.55625 
L 458.39178 -37.55625 
L 458.39178 -37.557218 
L 458.39178 -37.557218 
L 456.362332 -37.558454 
L 454.332883 -37.560997 
L 452.303435 -37.565934 
L 450.273987 -37.575016 
L 448.244538 -37.590873 
L 446.21509 -37.617235 
L 444.185641 -37.659087 
L 442.156193 -37.722735 
L 440.126744 -37.815716 
L 438.097296 -37.946552 
L 436.067847 -38.124319 
L 434.038399 -38.358092 
L 432.00895 -38.656366 
L 429.979502 -39.026594 
L 427.950053 -39.474978 
L 425.920605 -40.006591 
L 423.891156 -40.625808 
L 421.861708 -41.336983 
L 419.832259 -42.145268 
L 417.802811 -43.057488 
L 415.773362 -44.082938 
L 413.743914 -45.233883 
L 411.714465 -46.525505 
L 409.685017 -47.975087 
L 407.655569 -49.600423 
L 405.62612 -51.417732 
L 403.596672 -53.439621 
L 401.567223 -55.673709 
L 399.537775 -58.122395 
L 397.508326 -60.783908 
L 395.478878 -63.654355 
L 393.449429 -66.730183 
L 391.419981 -70.010311 
L 389.390532 -73.497172 
L 387.361084 -77.196058 
L 385.331635 -81.112463 
L 383.302187 -85.247855 
L 381.272738 -89.595202 
L 379.24329 -94.136389 
L 377.213841 -98.843468 
L 375.184393 -103.684183 
L 373.154944 -108.629779 
L 371.125496 -113.661118 
L 369.096048 -118.769052 
L 367.066599 -123.947435 
L 365.037151 -129.181028 
L 363.007702 -134.433984 
L 360.978254 -139.645595 
L 358.948805 -144.737808 
L 356.919357 -149.634343 
L 354.889908 -154.285627 
L 352.86046 -158.68967 
L 350.831011 -162.898575 
L 348.801563 -167.004946 
L 346.772114 -171.110992 
L 344.742666 -175.291989 
L 342.713217 -179.570001 
L 340.683769 -183.910054 
L 338.65432 -188.240488 
L 336.624872 -192.487379 
L 334.595423 -196.606444 
L 332.565975 -200.598206 
L 330.536527 -204.501633 
L 328.507078 -208.372126 
L 326.47763 -212.255795 
L 324.448181 -216.1711 
L 322.418733 -220.103126 
L 320.389284 -224.009126 
L 318.359836 -227.830084 
L 316.330387 -231.502852 
L 314.300939 -234.969558 
L 312.27149 -238.183516 
L 310.242042 -241.112397 
L 308.212593 -243.739888 
L 306.183145 -246.066919 
L 304.153696 -248.113115 
L 302.124248 -249.918298 
L 300.094799 -251.542744 
L 298.065351 -253.063987 
L 296.035902 -254.56807 
L 294.006454 -256.134797 
L 291.977006 -257.819325 
L 289.947557 -259.635055 
L 287.918109 -261.543963 
L 285.88866 -263.459362 
L 283.859212 -265.262809 
L 281.829763 -266.832319 
L 279.800315 -268.074943 
L 277.770866 -268.954569 
L 275.741418 -269.50663 
L 273.711969 -269.835234 
L 271.682521 -270.093609 
L 269.653072 -270.453658 
L 267.623624 -271.072935 
L 265.594175 -272.066775 
L 263.564727 -273.490405 
L 261.535278 -275.332338 
L 259.50583 -277.517896 
L 257.476381 -279.920909 
L 255.446933 -282.381989 
L 253.417485 -284.731982 
L 251.388036 -286.818444 
L 249.358588 -288.531384 
L 247.329139 -289.823273 
L 245.299691 -290.718325 
L 243.270242 -291.307786 
L 241.240794 -291.730955 
L 239.211345 -292.145063 
L 237.181897 -292.690286 
L 235.152448 -293.458297 
L 233.123 -294.472825 
L 231.093551 -295.687961 
L 229.064103 -297.004599 
L 227.034654 -298.299254 
L 225.005206 -299.455334 
L 222.975757 -300.386865 
L 220.946309 -301.048666 
L 218.91686 -301.432845 
L 216.887412 -301.55625 
L 214.857964 -301.445254 
L 212.828515 -301.122842 
L 210.799067 -300.600295 
L 208.769618 -299.873715 
L 206.74017 -298.925051 
L 204.710721 -297.727652 
L 202.681273 -296.256048 
L 200.651824 -294.498071 
L 198.622376 -292.465157 
L 196.592927 -290.19562 
L 194.563479 -287.747307 
L 192.53403 -285.180438 
L 190.504582 -282.536428 
L 188.475133 -279.821555 
L 186.445685 -277.0031 
L 184.416236 -274.020436 
L 182.386788 -270.806698 
L 180.357339 -267.311807 
L 178.327891 -263.517235 
L 176.298443 -259.437194 
L 174.268994 -255.107572 
L 172.239546 -250.569318 
L 170.210097 -245.85446 
L 168.180649 -240.980226 
L 166.1512 -235.951626 
L 164.121752 -230.768559 
L 162.092303 -225.432075 
L 160.062855 -219.946485 
L 158.033406 -214.317644 
L 156.003958 -208.550632 
L 153.974509 -202.650127 
L 151.945061 -196.624208 
L 149.915612 -190.488997 
L 147.886164 -184.269893 
L 145.856715 -177.996716 
L 143.827267 -171.693963 
L 141.797818 -165.371294 
L 139.76837 -159.020465 
L 137.738922 -152.622173 
L 135.709473 -146.160992 
L 133.680025 -139.641751 
L 131.650576 -133.099361 
L 129.621128 -126.597048 
L 127.591679 -120.213522 
L 125.562231 -114.024624 
L 123.532782 -108.086895 
L 121.503334 -102.428796 
L 119.473885 -97.051422 
L 117.444437 -91.936685 
L 115.414988 -87.058771 
L 113.38554 -82.394547 
L 111.356091 -77.930064 
L 109.326643 -73.662398 
L 107.297194 -69.597869 
L 105.267746 -65.748574 
L 103.238297 -62.129049 
L 101.208849 -58.753934 
L 99.179401 -55.636626 
L 97.149952 -52.788369 
L 95.120504 -50.21735 
L 93.091055 -47.927743 
L 91.061607 -45.918893 
L 89.032158 -44.18486 
L 87.00271 -42.714362 
L 84.973261 -41.491098 
L 82.943813 -40.494394 
L 80.914364 -39.700163 
L 78.884916 -39.082163 
L 76.855467 -38.613384 
L 74.826019 -38.267419 
L 72.79657 -38.019586 
L 70.767122 -37.847751 
L 68.737673 -37.732805 
L 66.708225 -37.658884 
L 64.678776 -37.613342 
L 62.649328 -37.586555 
L 60.61988 -37.57156 
L 58.590431 -37.563595 
L 56.560983 -37.559589 
L 54.531534 -37.557686 
z
" style="stroke: #87ceeb"/>
    </defs>
    <g clip-path="url(#p615430ae62)">
     <use xlink:href="#ma7a1f0b672" x="0" y="337.074375" style="fill: #87ceeb; fill-opacity: 0.25; stroke: #87ceeb"/>
    </g>
   </g>
   <g id="matplotlib.axis_1">
    <g id="xtick_1">
     <g id="line2d_1">
      <defs>
       <path id="mc6f7264ba9" d="M 0 0 
L 0 3.5 
" style="stroke: #000000; stroke-width: 0.8"/>
      </defs>
      <g>
       <use xlink:href="#mc6f7264ba9" x="73.147488" y="299.518125" style="stroke: #000000; stroke-width: 0.8"/>
      </g>
     </g>
     <g id="text_1">
      <!-- 0.3 -->
      <g transform="translate(65.195926 314.116563) scale(0.1 -0.1)">
       <defs>
        <path id="DejaVuSans-30" d="M 2034 4250 
Q 1547 4250 1301 3770 
Q 1056 3291 1056 2328 
Q 1056 1369 1301 889 
Q 1547 409 2034 409 
Q 2525 409 2770 889 
Q 3016 1369 3016 2328 
Q 3016 3291 2770 3770 
Q 2525 4250 2034 4250 
z
M 2034 4750 
Q 2819 4750 3233 4129 
Q 3647 3509 3647 2328 
Q 3647 1150 3233 529 
Q 2819 -91 2034 -91 
Q 1250 -91 836 529 
Q 422 1150 422 2328 
Q 422 3509 836 4129 
Q 1250 4750 2034 4750 
z
" transform="scale(0.015625)"/>
        <path id="DejaVuSans-2e" d="M 684 794 
L 1344 794 
L 1344 0 
L 684 0 
L 684 794 
z
" transform="scale(0.015625)"/>
        <path id="DejaVuSans-33" d="M 2597 2516 
Q 3050 2419 3304 2112 
Q 3559 1806 3559 1356 
Q 3559 666 3084 287 
Q 2609 -91 1734 -91 
Q 1441 -91 1130 -33 
Q 819 25 488 141 
L 488 750 
Q 750 597 1062 519 
Q 1375 441 1716 441 
Q 2309 441 2620 675 
Q 2931 909 2931 1356 
Q 2931 1769 2642 2001 
Q 2353 2234 1838 2234 
L 1294 2234 
L 1294 2753 
L 1863 2753 
Q 2328 2753 2575 2939 
Q 2822 3125 2822 3475 
Q 2822 3834 2567 4026 
Q 2313 4219 1838 4219 
Q 1578 4219 1281 4162 
Q 984 4106 628 3988 
L 628 4550 
Q 988 4650 1302 4700 
Q 1616 4750 1894 4750 
Q 2613 4750 3031 4423 
Q 3450 4097 3450 3541 
Q 3450 3153 3228 2886 
Q 3006 2619 2597 2516 
z
" transform="scale(0.015625)"/>
       </defs>
       <use xlink:href="#DejaVuSans-30"/>
       <use xlink:href="#DejaVuSans-2e" x="63.623047"/>
       <use xlink:href="#DejaVuSans-33" x="95.410156"/>
      </g>
     </g>
    </g>
    <g id="xtick_2">
     <g id="line2d_2">
      <g>
       <use xlink:href="#mc6f7264ba9" x="166.095703" y="299.518125" style="stroke: #000000; stroke-width: 0.8"/>
      </g>
     </g>
     <g id="text_2">
      <!-- 0.4 -->
      <g transform="translate(158.14414 314.116563) scale(0.1 -0.1)">
       <defs>
        <path id="DejaVuSans-34" d="M 2419 4116 
L 825 1625 
L 2419 1625 
L 2419 4116 
z
M 2253 4666 
L 3047 4666 
L 3047 1625 
L 3713 1625 
L 3713 1100 
L 3047 1100 
L 3047 0 
L 2419 0 
L 2419 1100 
L 313 1100 
L 313 1709 
L 2253 4666 
z
" transform="scale(0.015625)"/>
       </defs>
       <use xlink:href="#DejaVuSans-30"/>
       <use xlink:href="#DejaVuSans-2e" x="63.623047"/>
       <use xlink:href="#DejaVuSans-34" x="95.410156"/>
      </g>
     </g>
    </g>
    <g id="xtick_3">
     <g id="line2d_3">
      <g>
       <use xlink:href="#mc6f7264ba9" x="259.043918" y="299.518125" style="stroke: #000000; stroke-width: 0.8"/>
      </g>
     </g>
     <g id="text_3">
      <!-- 0.5 -->
      <g transform="translate(251.092355 314.116563) scale(0.1 -0.1)">
       <defs>
        <path id="DejaVuSans-35" d="M 691 4666 
L 3169 4666 
L 3169 4134 
L 1269 4134 
L 1269 2991 
Q 1406 3038 1543 3061 
Q 1681 3084 1819 3084 
Q 2600 3084 3056 2656 
Q 3513 2228 3513 1497 
Q 3513 744 3044 326 
Q 2575 -91 1722 -91 
Q 1428 -91 1123 -41 
Q 819 9 494 109 
L 494 744 
Q 775 591 1075 516 
Q 1375 441 1709 441 
Q 2250 441 2565 725 
Q 2881 1009 2881 1497 
Q 2881 1984 2565 2268 
Q 2250 2553 1709 2553 
Q 1456 2553 1204 2497 
Q 953 2441 691 2322 
L 691 4666 
z
" transform="scale(0.015625)"/>
       </defs>
       <use xlink:href="#DejaVuSans-30"/>
       <use xlink:href="#DejaVuSans-2e" x="63.623047"/>
       <use xlink:href="#DejaVuSans-35" x="95.410156"/>
      </g>
     </g>
    </g>
    <g id="xtick_4">
     <g id="line2d_4">
      <g>
       <use xlink:href="#mc6f7264ba9" x="351.992133" y="299.518125" style="stroke: #000000; stroke-width: 0.8"/>
      </g>
     </g>
     <g id="text_4">
      <!-- 0.6 -->
      <g transform="translate(344.04057 314.116563) scale(0.1 -0.1)">
       <defs>
        <path id="DejaVuSans-36" d="M 2113 2584 
Q 1688 2584 1439 2293 
Q 1191 2003 1191 1497 
Q 1191 994 1439 701 
Q 1688 409 2113 409 
Q 2538 409 2786 701 
Q 3034 994 3034 1497 
Q 3034 2003 2786 2293 
Q 2538 2584 2113 2584 
z
M 3366 4563 
L 3366 3988 
Q 3128 4100 2886 4159 
Q 2644 4219 2406 4219 
Q 1781 4219 1451 3797 
Q 1122 3375 1075 2522 
Q 1259 2794 1537 2939 
Q 1816 3084 2150 3084 
Q 2853 3084 3261 2657 
Q 3669 2231 3669 1497 
Q 3669 778 3244 343 
Q 2819 -91 2113 -91 
Q 1303 -91 875 529 
Q 447 1150 447 2328 
Q 447 3434 972 4092 
Q 1497 4750 2381 4750 
Q 2619 4750 2861 4703 
Q 3103 4656 3366 4563 
z
" transform="scale(0.015625)"/>
       </defs>
       <use xlink:href="#DejaVuSans-30"/>
       <use xlink:href="#DejaVuSans-2e" x="63.623047"/>
       <use xlink:href="#DejaVuSans-36" x="95.410156"/>
      </g>
     </g>
    </g>
    <g id="xtick_5">
     <g id="line2d_5">
      <g>
       <use xlink:href="#mc6f7264ba9" x="444.940348" y="299.518125" style="stroke: #000000; stroke-width: 0.8"/>
      </g>
     </g>
     <g id="text_5">
      <!-- 0.7 -->
      <g transform="translate(436.988785 314.116563) scale(0.1 -0.1)">
       <defs>
        <path id="DejaVuSans-37" d="M 525 4666 
L 3525 4666 
L 3525 4397 
L 1831 0 
L 1172 0 
L 2766 4134 
L 525 4134 
L 525 4666 
z
" transform="scale(0.015625)"/>
       </defs>
       <use xlink:href="#DejaVuSans-30"/>
       <use xlink:href="#DejaVuSans-2e" x="63.623047"/>
       <use xlink:href="#DejaVuSans-37" x="95.410156"/>
      </g>
     </g>
    </g>
    <g id="text_6">
     <!-- Estimated Propensity Score -->
     <g transform="translate(188.739062 327.794688) scale(0.1 -0.1)">
      <defs>
       <path id="DejaVuSans-45" d="M 628 4666 
L 3578 4666 
L 3578 4134 
L 1259 4134 
L 1259 2753 
L 3481 2753 
L 3481 2222 
L 1259 2222 
L 1259 531 
L 3634 531 
L 3634 0 
L 628 0 
L 628 4666 
z
" transform="scale(0.015625)"/>
       <path id="DejaVuSans-73" d="M 2834 3397 
L 2834 2853 
Q 2591 2978 2328 3040 
Q 2066 3103 1784 3103 
Q 1356 3103 1142 2972 
Q 928 2841 928 2578 
Q 928 2378 1081 2264 
Q 1234 2150 1697 2047 
L 1894 2003 
Q 2506 1872 2764 1633 
Q 3022 1394 3022 966 
Q 3022 478 2636 193 
Q 2250 -91 1575 -91 
Q 1294 -91 989 -36 
Q 684 19 347 128 
L 347 722 
Q 666 556 975 473 
Q 1284 391 1588 391 
Q 1994 391 2212 530 
Q 2431 669 2431 922 
Q 2431 1156 2273 1281 
Q 2116 1406 1581 1522 
L 1381 1569 
Q 847 1681 609 1914 
Q 372 2147 372 2553 
Q 372 3047 722 3315 
Q 1072 3584 1716 3584 
Q 2034 3584 2315 3537 
Q 2597 3491 2834 3397 
z
" transform="scale(0.015625)"/>
       <path id="DejaVuSans-74" d="M 1172 4494 
L 1172 3500 
L 2356 3500 
L 2356 3053 
L 1172 3053 
L 1172 1153 
Q 1172 725 1289 603 
Q 1406 481 1766 481 
L 2356 481 
L 2356 0 
L 1766 0 
Q 1100 0 847 248 
Q 594 497 594 1153 
L 594 3053 
L 172 3053 
L 172 3500 
L 594 3500 
L 594 4494 
L 1172 4494 
z
" transform="scale(0.015625)"/>
       <path id="DejaVuSans-69" d="M 603 3500 
L 1178 3500 
L 1178 0 
L 603 0 
L 603 3500 
z
M 603 4863 
L 1178 4863 
L 1178 4134 
L 603 4134 
L 603 4863 
z
" transform="scale(0.015625)"/>
       <path id="DejaVuSans-6d" d="M 3328 2828 
Q 3544 3216 3844 3400 
Q 4144 3584 4550 3584 
Q 5097 3584 5394 3201 
Q 5691 2819 5691 2113 
L 5691 0 
L 5113 0 
L 5113 2094 
Q 5113 2597 4934 2840 
Q 4756 3084 4391 3084 
Q 3944 3084 3684 2787 
Q 3425 2491 3425 1978 
L 3425 0 
L 2847 0 
L 2847 2094 
Q 2847 2600 2669 2842 
Q 2491 3084 2119 3084 
Q 1678 3084 1418 2786 
Q 1159 2488 1159 1978 
L 1159 0 
L 581 0 
L 581 3500 
L 1159 3500 
L 1159 2956 
Q 1356 3278 1631 3431 
Q 1906 3584 2284 3584 
Q 2666 3584 2933 3390 
Q 3200 3197 3328 2828 
z
" transform="scale(0.015625)"/>
       <path id="DejaVuSans-61" d="M 2194 1759 
Q 1497 1759 1228 1600 
Q 959 1441 959 1056 
Q 959 750 1161 570 
Q 1363 391 1709 391 
Q 2188 391 2477 730 
Q 2766 1069 2766 1631 
L 2766 1759 
L 2194 1759 
z
M 3341 1997 
L 3341 0 
L 2766 0 
L 2766 531 
Q 2569 213 2275 61 
Q 1981 -91 1556 -91 
Q 1019 -91 701 211 
Q 384 513 384 1019 
Q 384 1609 779 1909 
Q 1175 2209 1959 2209 
L 2766 2209 
L 2766 2266 
Q 2766 2663 2505 2880 
Q 2244 3097 1772 3097 
Q 1472 3097 1187 3025 
Q 903 2953 641 2809 
L 641 3341 
Q 956 3463 1253 3523 
Q 1550 3584 1831 3584 
Q 2591 3584 2966 3190 
Q 3341 2797 3341 1997 
z
" transform="scale(0.015625)"/>
       <path id="DejaVuSans-65" d="M 3597 1894 
L 3597 1613 
L 953 1613 
Q 991 1019 1311 708 
Q 1631 397 2203 397 
Q 2534 397 2845 478 
Q 3156 559 3463 722 
L 3463 178 
Q 3153 47 2828 -22 
Q 2503 -91 2169 -91 
Q 1331 -91 842 396 
Q 353 884 353 1716 
Q 353 2575 817 3079 
Q 1281 3584 2069 3584 
Q 2775 3584 3186 3129 
Q 3597 2675 3597 1894 
z
M 3022 2063 
Q 3016 2534 2758 2815 
Q 2500 3097 2075 3097 
Q 1594 3097 1305 2825 
Q 1016 2553 972 2059 
L 3022 2063 
z
" transform="scale(0.015625)"/>
       <path id="DejaVuSans-64" d="M 2906 2969 
L 2906 4863 
L 3481 4863 
L 3481 0 
L 2906 0 
L 2906 525 
Q 2725 213 2448 61 
Q 2172 -91 1784 -91 
Q 1150 -91 751 415 
Q 353 922 353 1747 
Q 353 2572 751 3078 
Q 1150 3584 1784 3584 
Q 2172 3584 2448 3432 
Q 2725 3281 2906 2969 
z
M 947 1747 
Q 947 1113 1208 752 
Q 1469 391 1925 391 
Q 2381 391 2643 752 
Q 2906 1113 2906 1747 
Q 2906 2381 2643 2742 
Q 2381 3103 1925 3103 
Q 1469 3103 1208 2742 
Q 947 2381 947 1747 
z
" transform="scale(0.015625)"/>
       <path id="DejaVuSans-20" transform="scale(0.015625)"/>
       <path id="DejaVuSans-50" d="M 1259 4147 
L 1259 2394 
L 2053 2394 
Q 2494 2394 2734 2622 
Q 2975 2850 2975 3272 
Q 2975 3691 2734 3919 
Q 2494 4147 2053 4147 
L 1259 4147 
z
M 628 4666 
L 2053 4666 
Q 2838 4666 3239 4311 
Q 3641 3956 3641 3272 
Q 3641 2581 3239 2228 
Q 2838 1875 2053 1875 
L 1259 1875 
L 1259 0 
L 628 0 
L 628 4666 
z
" transform="scale(0.015625)"/>
       <path id="DejaVuSans-72" d="M 2631 2963 
Q 2534 3019 2420 3045 
Q 2306 3072 2169 3072 
Q 1681 3072 1420 2755 
Q 1159 2438 1159 1844 
L 1159 0 
L 581 0 
L 581 3500 
L 1159 3500 
L 1159 2956 
Q 1341 3275 1631 3429 
Q 1922 3584 2338 3584 
Q 2397 3584 2469 3576 
Q 2541 3569 2628 3553 
L 2631 2963 
z
" transform="scale(0.015625)"/>
       <path id="DejaVuSans-6f" d="M 1959 3097 
Q 1497 3097 1228 2736 
Q 959 2375 959 1747 
Q 959 1119 1226 758 
Q 1494 397 1959 397 
Q 2419 397 2687 759 
Q 2956 1122 2956 1747 
Q 2956 2369 2687 2733 
Q 2419 3097 1959 3097 
z
M 1959 3584 
Q 2709 3584 3137 3096 
Q 3566 2609 3566 1747 
Q 3566 888 3137 398 
Q 2709 -91 1959 -91 
Q 1206 -91 779 398 
Q 353 888 353 1747 
Q 353 2609 779 3096 
Q 1206 3584 1959 3584 
z
" transform="scale(0.015625)"/>
       <path id="DejaVuSans-70" d="M 1159 525 
L 1159 -1331 
L 581 -1331 
L 581 3500 
L 1159 3500 
L 1159 2969 
Q 1341 3281 1617 3432 
Q 1894 3584 2278 3584 
Q 2916 3584 3314 3078 
Q 3713 2572 3713 1747 
Q 3713 922 3314 415 
Q 2916 -91 2278 -91 
Q 1894 -91 1617 61 
Q 1341 213 1159 525 
z
M 3116 1747 
Q 3116 2381 2855 2742 
Q 2594 3103 2138 3103 
Q 1681 3103 1420 2742 
Q 1159 2381 1159 1747 
Q 1159 1113 1420 752 
Q 1681 391 2138 391 
Q 2594 391 2855 752 
Q 3116 1113 3116 1747 
z
" transform="scale(0.015625)"/>
       <path id="DejaVuSans-6e" d="M 3513 2113 
L 3513 0 
L 2938 0 
L 2938 2094 
Q 2938 2591 2744 2837 
Q 2550 3084 2163 3084 
Q 1697 3084 1428 2787 
Q 1159 2491 1159 1978 
L 1159 0 
L 581 0 
L 581 3500 
L 1159 3500 
L 1159 2956 
Q 1366 3272 1645 3428 
Q 1925 3584 2291 3584 
Q 2894 3584 3203 3211 
Q 3513 2838 3513 2113 
z
" transform="scale(0.015625)"/>
       <path id="DejaVuSans-79" d="M 2059 -325 
Q 1816 -950 1584 -1140 
Q 1353 -1331 966 -1331 
L 506 -1331 
L 506 -850 
L 844 -850 
Q 1081 -850 1212 -737 
Q 1344 -625 1503 -206 
L 1606 56 
L 191 3500 
L 800 3500 
L 1894 763 
L 2988 3500 
L 3597 3500 
L 2059 -325 
z
" transform="scale(0.015625)"/>
       <path id="DejaVuSans-53" d="M 3425 4513 
L 3425 3897 
Q 3066 4069 2747 4153 
Q 2428 4238 2131 4238 
Q 1616 4238 1336 4038 
Q 1056 3838 1056 3469 
Q 1056 3159 1242 3001 
Q 1428 2844 1947 2747 
L 2328 2669 
Q 3034 2534 3370 2195 
Q 3706 1856 3706 1288 
Q 3706 609 3251 259 
Q 2797 -91 1919 -91 
Q 1588 -91 1214 -16 
Q 841 59 441 206 
L 441 856 
Q 825 641 1194 531 
Q 1563 422 1919 422 
Q 2459 422 2753 634 
Q 3047 847 3047 1241 
Q 3047 1584 2836 1778 
Q 2625 1972 2144 2069 
L 1759 2144 
Q 1053 2284 737 2584 
Q 422 2884 422 3419 
Q 422 4038 858 4394 
Q 1294 4750 2059 4750 
Q 2388 4750 2728 4690 
Q 3069 4631 3425 4513 
z
" transform="scale(0.015625)"/>
       <path id="DejaVuSans-63" d="M 3122 3366 
L 3122 2828 
Q 2878 2963 2633 3030 
Q 2388 3097 2138 3097 
Q 1578 3097 1268 2742 
Q 959 2388 959 1747 
Q 959 1106 1268 751 
Q 1578 397 2138 397 
Q 2388 397 2633 464 
Q 2878 531 3122 666 
L 3122 134 
Q 2881 22 2623 -34 
Q 2366 -91 2075 -91 
Q 1284 -91 818 406 
Q 353 903 353 1747 
Q 353 2603 823 3093 
Q 1294 3584 2113 3584 
Q 2378 3584 2631 3529 
Q 2884 3475 3122 3366 
z
" transform="scale(0.015625)"/>
      </defs>
      <use xlink:href="#DejaVuSans-45"/>
      <use xlink:href="#DejaVuSans-73" x="63.183594"/>
      <use xlink:href="#DejaVuSans-74" x="115.283203"/>
      <use xlink:href="#DejaVuSans-69" x="154.492188"/>
      <use xlink:href="#DejaVuSans-6d" x="182.275391"/>
      <use xlink:href="#DejaVuSans-61" x="279.6875"/>
      <use xlink:href="#DejaVuSans-74" x="340.966797"/>
      <use xlink:href="#DejaVuSans-65" x="380.175781"/>
      <use xlink:href="#DejaVuSans-64" x="441.699219"/>
      <use xlink:href="#DejaVuSans-20" x="505.175781"/>
      <use xlink:href="#DejaVuSans-50" x="536.962891"/>
      <use xlink:href="#DejaVuSans-72" x="595.515625"/>
      <use xlink:href="#DejaVuSans-6f" x="634.378906"/>
      <use xlink:href="#DejaVuSans-70" x="695.560547"/>
      <use xlink:href="#DejaVuSans-65" x="759.037109"/>
      <use xlink:href="#DejaVuSans-6e" x="820.560547"/>
      <use xlink:href="#DejaVuSans-73" x="883.939453"/>
      <use xlink:href="#DejaVuSans-69" x="936.039062"/>
      <use xlink:href="#DejaVuSans-74" x="963.822266"/>
      <use xlink:href="#DejaVuSans-79" x="1003.03125"/>
      <use xlink:href="#DejaVuSans-20" x="1062.210938"/>
      <use xlink:href="#DejaVuSans-53" x="1093.998047"/>
      <use xlink:href="#DejaVuSans-63" x="1157.474609"/>
      <use xlink:href="#DejaVuSans-6f" x="1212.455078"/>
      <use xlink:href="#DejaVuSans-72" x="1273.636719"/>
      <use xlink:href="#DejaVuSans-65" x="1312.5"/>
     </g>
    </g>
   </g>
   <g id="matplotlib.axis_2">
    <g id="ytick_1">
     <g id="line2d_6">
      <defs>
       <path id="m07affa9e27" d="M 0 0 
L -3.5 0 
" style="stroke: #000000; stroke-width: 0.8"/>
      </defs>
      <g>
       <use xlink:href="#m07affa9e27" x="34.240625" y="299.518125" style="stroke: #000000; stroke-width: 0.8"/>
      </g>
     </g>
     <g id="text_7">
      <!-- 0 -->
      <g transform="translate(20.878125 303.317344) scale(0.1 -0.1)">
       <use xlink:href="#DejaVuSans-30"/>
      </g>
     </g>
    </g>
    <g id="ytick_2">
     <g id="line2d_7">
      <g>
       <use xlink:href="#m07affa9e27" x="34.240625" y="243.733272" style="stroke: #000000; stroke-width: 0.8"/>
      </g>
     </g>
     <g id="text_8">
      <!-- 1 -->
      <g transform="translate(20.878125 247.532491) scale(0.1 -0.1)">
       <defs>
        <path id="DejaVuSans-31" d="M 794 531 
L 1825 531 
L 1825 4091 
L 703 3866 
L 703 4441 
L 1819 4666 
L 2450 4666 
L 2450 531 
L 3481 531 
L 3481 0 
L 794 0 
L 794 531 
z
" transform="scale(0.015625)"/>
       </defs>
       <use xlink:href="#DejaVuSans-31"/>
      </g>
     </g>
    </g>
    <g id="ytick_3">
     <g id="line2d_8">
      <g>
       <use xlink:href="#m07affa9e27" x="34.240625" y="187.948419" style="stroke: #000000; stroke-width: 0.8"/>
      </g>
     </g>
     <g id="text_9">
      <!-- 2 -->
      <g transform="translate(20.878125 191.747638) scale(0.1 -0.1)">
       <defs>
        <path id="DejaVuSans-32" d="M 1228 531 
L 3431 531 
L 3431 0 
L 469 0 
L 469 531 
Q 828 903 1448 1529 
Q 2069 2156 2228 2338 
Q 2531 2678 2651 2914 
Q 2772 3150 2772 3378 
Q 2772 3750 2511 3984 
Q 2250 4219 1831 4219 
Q 1534 4219 1204 4116 
Q 875 4013 500 3803 
L 500 4441 
Q 881 4594 1212 4672 
Q 1544 4750 1819 4750 
Q 2544 4750 2975 4387 
Q 3406 4025 3406 3419 
Q 3406 3131 3298 2873 
Q 3191 2616 2906 2266 
Q 2828 2175 2409 1742 
Q 1991 1309 1228 531 
z
" transform="scale(0.015625)"/>
       </defs>
       <use xlink:href="#DejaVuSans-32"/>
      </g>
     </g>
    </g>
    <g id="ytick_4">
     <g id="line2d_9">
      <g>
       <use xlink:href="#m07affa9e27" x="34.240625" y="132.163566" style="stroke: #000000; stroke-width: 0.8"/>
      </g>
     </g>
     <g id="text_10">
      <!-- 3 -->
      <g transform="translate(20.878125 135.962785) scale(0.1 -0.1)">
       <use xlink:href="#DejaVuSans-33"/>
      </g>
     </g>
    </g>
    <g id="ytick_5">
     <g id="line2d_10">
      <g>
       <use xlink:href="#m07affa9e27" x="34.240625" y="76.378713" style="stroke: #000000; stroke-width: 0.8"/>
      </g>
     </g>
     <g id="text_11">
      <!-- 4 -->
      <g transform="translate(20.878125 80.177932) scale(0.1 -0.1)">
       <use xlink:href="#DejaVuSans-34"/>
      </g>
     </g>
    </g>
    <g id="text_12">
     <!-- Density -->
     <g transform="translate(14.798437 179.926719) rotate(-90) scale(0.1 -0.1)">
      <defs>
       <path id="DejaVuSans-44" d="M 1259 4147 
L 1259 519 
L 2022 519 
Q 2988 519 3436 956 
Q 3884 1394 3884 2338 
Q 3884 3275 3436 3711 
Q 2988 4147 2022 4147 
L 1259 4147 
z
M 628 4666 
L 1925 4666 
Q 3281 4666 3915 4102 
Q 4550 3538 4550 2338 
Q 4550 1131 3912 565 
Q 3275 0 1925 0 
L 628 0 
L 628 4666 
z
" transform="scale(0.015625)"/>
      </defs>
      <use xlink:href="#DejaVuSans-44"/>
      <use xlink:href="#DejaVuSans-65" x="77.001953"/>
      <use xlink:href="#DejaVuSans-6e" x="138.525391"/>
      <use xlink:href="#DejaVuSans-73" x="201.904297"/>
      <use xlink:href="#DejaVuSans-69" x="254.003906"/>
      <use xlink:href="#DejaVuSans-74" x="281.787109"/>
      <use xlink:href="#DejaVuSans-79" x="320.996094"/>
     </g>
    </g>
   </g>
   <g id="patch_3">
    <path d="M 34.240625 299.518125 
L 34.240625 22.318125 
" style="fill: none; stroke: #000000; stroke-width: 0.8; stroke-linejoin: miter; stroke-linecap: square"/>
   </g>
   <g id="patch_4">
    <path d="M 480.640625 299.518125 
L 480.640625 22.318125 
" style="fill: none; stroke: #000000; stroke-width: 0.8; stroke-linejoin: miter; stroke-linecap: square"/>
   </g>
   <g id="patch_5">
    <path d="M 34.240625 299.518125 
L 480.640625 299.518125 
" style="fill: none; stroke: #000000; stroke-width: 0.8; stroke-linejoin: miter; stroke-linecap: square"/>
   </g>
   <g id="patch_6">
    <path d="M 34.240625 22.318125 
L 480.640625 22.318125 
" style="fill: none; stroke: #000000; stroke-width: 0.8; stroke-linejoin: miter; stroke-linecap: square"/>
   </g>
   <g id="text_13">
    <!-- Distribution of Propensity Scores by Treatment Group -->
    <g transform="translate(97.623125 16.318125) scale(0.12 -0.12)">
     <defs>
      <path id="DejaVuSans-62" d="M 3116 1747 
Q 3116 2381 2855 2742 
Q 2594 3103 2138 3103 
Q 1681 3103 1420 2742 
Q 1159 2381 1159 1747 
Q 1159 1113 1420 752 
Q 1681 391 2138 391 
Q 2594 391 2855 752 
Q 3116 1113 3116 1747 
z
M 1159 2969 
Q 1341 3281 1617 3432 
Q 1894 3584 2278 3584 
Q 2916 3584 3314 3078 
Q 3713 2572 3713 1747 
Q 3713 922 3314 415 
Q 2916 -91 2278 -91 
Q 1894 -91 1617 61 
Q 1341 213 1159 525 
L 1159 0 
L 581 0 
L 581 4863 
L 1159 4863 
L 1159 2969 
z
" transform="scale(0.015625)"/>
      <path id="DejaVuSans-75" d="M 544 1381 
L 544 3500 
L 1119 3500 
L 1119 1403 
Q 1119 906 1312 657 
Q 1506 409 1894 409 
Q 2359 409 2629 706 
Q 2900 1003 2900 1516 
L 2900 3500 
L 3475 3500 
L 3475 0 
L 2900 0 
L 2900 538 
Q 2691 219 2414 64 
Q 2138 -91 1772 -91 
Q 1169 -91 856 284 
Q 544 659 544 1381 
z
M 1991 3584 
L 1991 3584 
z
" transform="scale(0.015625)"/>
      <path id="DejaVuSans-66" d="M 2375 4863 
L 2375 4384 
L 1825 4384 
Q 1516 4384 1395 4259 
Q 1275 4134 1275 3809 
L 1275 3500 
L 2222 3500 
L 2222 3053 
L 1275 3053 
L 1275 0 
L 697 0 
L 697 3053 
L 147 3053 
L 147 3500 
L 697 3500 
L 697 3744 
Q 697 4328 969 4595 
Q 1241 4863 1831 4863 
L 2375 4863 
z
" transform="scale(0.015625)"/>
      <path id="DejaVuSans-54" d="M -19 4666 
L 3928 4666 
L 3928 4134 
L 2272 4134 
L 2272 0 
L 1638 0 
L 1638 4134 
L -19 4134 
L -19 4666 
z
" transform="scale(0.015625)"/>
      <path id="DejaVuSans-47" d="M 3809 666 
L 3809 1919 
L 2778 1919 
L 2778 2438 
L 4434 2438 
L 4434 434 
Q 4069 175 3628 42 
Q 3188 -91 2688 -91 
Q 1594 -91 976 548 
Q 359 1188 359 2328 
Q 359 3472 976 4111 
Q 1594 4750 2688 4750 
Q 3144 4750 3555 4637 
Q 3966 4525 4313 4306 
L 4313 3634 
Q 3963 3931 3569 4081 
Q 3175 4231 2741 4231 
Q 1884 4231 1454 3753 
Q 1025 3275 1025 2328 
Q 1025 1384 1454 906 
Q 1884 428 2741 428 
Q 3075 428 3337 486 
Q 3600 544 3809 666 
z
" transform="scale(0.015625)"/>
     </defs>
     <use xlink:href="#DejaVuSans-44"/>
     <use xlink:href="#DejaVuSans-69" x="77.001953"/>
     <use xlink:href="#DejaVuSans-73" x="104.785156"/>
     <use xlink:href="#DejaVuSans-74" x="156.884766"/>
     <use xlink:href="#DejaVuSans-72" x="196.09375"/>
     <use xlink:href="#DejaVuSans-69" x="237.207031"/>
     <use xlink:href="#DejaVuSans-62" x="264.990234"/>
     <use xlink:href="#DejaVuSans-75" x="328.466797"/>
     <use xlink:href="#DejaVuSans-74" x="391.845703"/>
     <use xlink:href="#DejaVuSans-69" x="431.054688"/>
     <use xlink:href="#DejaVuSans-6f" x="458.837891"/>
     <use xlink:href="#DejaVuSans-6e" x="520.019531"/>
     <use xlink:href="#DejaVuSans-20" x="583.398438"/>
     <use xlink:href="#DejaVuSans-6f" x="615.185547"/>
     <use xlink:href="#DejaVuSans-66" x="676.367188"/>
     <use xlink:href="#DejaVuSans-20" x="711.572266"/>
     <use xlink:href="#DejaVuSans-50" x="743.359375"/>
     <use xlink:href="#DejaVuSans-72" x="801.912109"/>
     <use xlink:href="#DejaVuSans-6f" x="840.775391"/>
     <use xlink:href="#DejaVuSans-70" x="901.957031"/>
     <use xlink:href="#DejaVuSans-65" x="965.433594"/>
     <use xlink:href="#DejaVuSans-6e" x="1026.957031"/>
     <use xlink:href="#DejaVuSans-73" x="1090.335938"/>
     <use xlink:href="#DejaVuSans-69" x="1142.435547"/>
     <use xlink:href="#DejaVuSans-74" x="1170.21875"/>
     <use xlink:href="#DejaVuSans-79" x="1209.427734"/>
     <use xlink:href="#DejaVuSans-20" x="1268.607422"/>
     <use xlink:href="#DejaVuSans-53" x="1300.394531"/>
     <use xlink:href="#DejaVuSans-63" x="1363.871094"/>
     <use xlink:href="#DejaVuSans-6f" x="1418.851562"/>
     <use xlink:href="#DejaVuSans-72" x="1480.033203"/>
     <use xlink:href="#DejaVuSans-65" x="1518.896484"/>
     <use xlink:href="#DejaVuSans-73" x="1580.419922"/>
     <use xlink:href="#DejaVuSans-20" x="1632.519531"/>
     <use xlink:href="#DejaVuSans-62" x="1664.306641"/>
     <use xlink:href="#DejaVuSans-79" x="1727.783203"/>
     <use xlink:href="#DejaVuSans-20" x="1786.962891"/>
     <use xlink:href="#DejaVuSans-54" x="1818.75"/>
     <use xlink:href="#DejaVuSans-72" x="1865.083984"/>
     <use xlink:href="#DejaVuSans-65" x="1903.947266"/>
     <use xlink:href="#DejaVuSans-61" x="1965.470703"/>
     <use xlink:href="#DejaVuSans-74" x="2026.75"/>
     <use xlink:href="#DejaVuSans-6d" x="2065.958984"/>
     <use xlink:href="#DejaVuSans-65" x="2163.371094"/>
     <use xlink:href="#DejaVuSans-6e" x="2224.894531"/>
     <use xlink:href="#DejaVuSans-74" x="2288.273438"/>
     <use xlink:href="#DejaVuSans-20" x="2327.482422"/>
     <use xlink:href="#DejaVuSans-47" x="2359.269531"/>
     <use xlink:href="#DejaVuSans-72" x="2436.759766"/>
     <use xlink:href="#DejaVuSans-6f" x="2475.623047"/>
     <use xlink:href="#DejaVuSans-75" x="2536.804688"/>
     <use xlink:href="#DejaVuSans-70" x="2600.183594"/>
    </g>
   </g>
   <g id="legend_1">
    <g id="patch_7">
     <path d="M 404.41875 59.674375 
L 473.640625 59.674375 
Q 475.640625 59.674375 475.640625 57.674375 
L 475.640625 29.318125 
Q 475.640625 27.318125 473.640625 27.318125 
L 404.41875 27.318125 
Q 402.41875 27.318125 402.41875 29.318125 
L 402.41875 57.674375 
Q 402.41875 59.674375 404.41875 59.674375 
z
" style="fill: #ffffff; opacity: 0.8; stroke: #cccccc; stroke-linejoin: miter"/>
    </g>
    <g id="patch_8">
     <path d="M 406.41875 38.916562 
L 426.41875 38.916562 
L 426.41875 31.916562 
L 406.41875 31.916562 
z
" style="fill: #fa8072; fill-opacity: 0.25; stroke: #fa8072; stroke-linejoin: miter"/>
    </g>
    <g id="text_14">
     <!-- Treated -->
     <g transform="translate(434.41875 38.916562) scale(0.1 -0.1)">
      <use xlink:href="#DejaVuSans-54"/>
      <use xlink:href="#DejaVuSans-72" x="46.333984"/>
      <use xlink:href="#DejaVuSans-65" x="85.197266"/>
      <use xlink:href="#DejaVuSans-61" x="146.720703"/>
      <use xlink:href="#DejaVuSans-74" x="208"/>
      <use xlink:href="#DejaVuSans-65" x="247.208984"/>
      <use xlink:href="#DejaVuSans-64" x="308.732422"/>
     </g>
    </g>
    <g id="patch_9">
     <path d="M 406.41875 53.594688 
L 426.41875 53.594688 
L 426.41875 46.594688 
L 406.41875 46.594688 
z
" style="fill: #87ceeb; fill-opacity: 0.25; stroke: #87ceeb; stroke-linejoin: miter"/>
    </g>
    <g id="text_15">
     <!-- Control -->
     <g transform="translate(434.41875 53.594688) scale(0.1 -0.1)">
      <defs>
       <path id="DejaVuSans-43" d="M 4122 4306 
L 4122 3641 
Q 3803 3938 3442 4084 
Q 3081 4231 2675 4231 
Q 1875 4231 1450 3742 
Q 1025 3253 1025 2328 
Q 1025 1406 1450 917 
Q 1875 428 2675 428 
Q 3081 428 3442 575 
Q 3803 722 4122 1019 
L 4122 359 
Q 3791 134 3420 21 
Q 3050 -91 2638 -91 
Q 1578 -91 968 557 
Q 359 1206 359 2328 
Q 359 3453 968 4101 
Q 1578 4750 2638 4750 
Q 3056 4750 3426 4639 
Q 3797 4528 4122 4306 
z
" transform="scale(0.015625)"/>
       <path id="DejaVuSans-6c" d="M 603 4863 
L 1178 4863 
L 1178 0 
L 603 0 
L 603 4863 
z
" transform="scale(0.015625)"/>
      </defs>
      <use xlink:href="#DejaVuSans-43"/>
      <use xlink:href="#DejaVuSans-6f" x="69.824219"/>
      <use xlink:href="#DejaVuSans-6e" x="131.005859"/>
      <use xlink:href="#DejaVuSans-74" x="194.384766"/>
      <use xlink:href="#DejaVuSans-72" x="233.59375"/>
      <use xlink:href="#DejaVuSans-6f" x="272.457031"/>
      <use xlink:href="#DejaVuSans-6c" x="333.638672"/>
     </g>
    </g>
   </g>
  </g>
 </g>
 <defs>
  <clipPath id="p615430ae62">
   <rect x="34.240625" y="22.318125" width="446.4" height="277.2"/>
  </clipPath>
 </defs>
</svg>
