<?xml version="1.0" encoding="utf-8" standalone="no"?>
<!DOCTYPE svg PUBLIC "-//W3C//DTD SVG 1.1//EN"
  "http://www.w3.org/Graphics/SVG/1.1/DTD/svg11.dtd">
<svg xmlns:xlink="http://www.w3.org/1999/xlink" width="497.617255pt" height="337.074375pt" viewBox="0 0 497.617255 337.074375" xmlns="http://www.w3.org/2000/svg" version="1.1">
 <metadata>
  <rdf:RDF xmlns:dc="http://purl.org/dc/elements/1.1/" xmlns:cc="http://creativecommons.org/ns#" xmlns:rdf="http://www.w3.org/1999/02/22-rdf-syntax-ns#">
   <cc:Work>
    <dc:type rdf:resource="http://purl.org/dc/dcmitype/StillImage"/>
    <dc:date>2025-03-31T21:27:26.162747</dc:date>
    <dc:format>image/svg+xml</dc:format>
    <dc:creator>
     <cc:Agent>
      <dc:title>Matplotlib v3.9.2, https://matplotlib.org/</dc:title>
     </cc:Agent>
    </dc:creator>
   </cc:Work>
  </rdf:RDF>
 </metadata>
 <defs>
  <style type="text/css">*{stroke-linejoin: round; stroke-linecap: butt}</style>
 </defs>
 <g id="figure_1">
  <g id="patch_1">
   <path d="M 0 337.074375 
L 497.617255 337.074375 
L 497.617255 0 
L 0 0 
z
" style="fill: #ffffff"/>
  </g>
  <g id="axes_1">
   <g id="patch_2">
    <path d="M 40.603125 299.518125 
L 487.003125 299.518125 
L 487.003125 22.318125 
L 40.603125 22.318125 
z
" style="fill: #ffffff"/>
   </g>
   <g id="PolyCollection_1">
    <defs>
     <path id="mf959c59cf1" d="M 62.301339 -37.558302 
L 62.301339 -37.55625 
L 64.304641 -37.55625 
L 66.307944 -37.55625 
L 68.311246 -37.55625 
L 70.314549 -37.55625 
L 72.317851 -37.55625 
L 74.321154 -37.55625 
L 76.324456 -37.55625 
L 78.327759 -37.55625 
L 80.331061 -37.55625 
L 82.334364 -37.55625 
L 84.337666 -37.55625 
L 86.340969 -37.55625 
L 88.344271 -37.55625 
L 90.347574 -37.55625 
L 92.350877 -37.55625 
L 94.354179 -37.55625 
L 96.357482 -37.55625 
L 98.360784 -37.55625 
L 100.364087 -37.55625 
L 102.367389 -37.55625 
L 104.370692 -37.55625 
L 106.373994 -37.55625 
L 108.377297 -37.55625 
L 110.380599 -37.55625 
L 112.383902 -37.55625 
L 114.387204 -37.55625 
L 116.390507 -37.55625 
L 118.393809 -37.55625 
L 120.397112 -37.55625 
L 122.400414 -37.55625 
L 124.403717 -37.55625 
L 126.407019 -37.55625 
L 128.410322 -37.55625 
L 130.413624 -37.55625 
L 132.416927 -37.55625 
L 134.420229 -37.55625 
L 136.423532 -37.55625 
L 138.426834 -37.55625 
L 140.430137 -37.55625 
L 142.433439 -37.55625 
L 144.436742 -37.55625 
L 146.440044 -37.55625 
L 148.443347 -37.55625 
L 150.446649 -37.55625 
L 152.449952 -37.55625 
L 154.453254 -37.55625 
L 156.456557 -37.55625 
L 158.459859 -37.55625 
L 160.463162 -37.55625 
L 162.466464 -37.55625 
L 164.469767 -37.55625 
L 166.473069 -37.55625 
L 168.476372 -37.55625 
L 170.479674 -37.55625 
L 172.482977 -37.55625 
L 174.486279 -37.55625 
L 176.489582 -37.55625 
L 178.492884 -37.55625 
L 180.496187 -37.55625 
L 182.499489 -37.55625 
L 184.502792 -37.55625 
L 186.506094 -37.55625 
L 188.509397 -37.55625 
L 190.512699 -37.55625 
L 192.516002 -37.55625 
L 194.519304 -37.55625 
L 196.522607 -37.55625 
L 198.525909 -37.55625 
L 200.529212 -37.55625 
L 202.532514 -37.55625 
L 204.535817 -37.55625 
L 206.539119 -37.55625 
L 208.542422 -37.55625 
L 210.545724 -37.55625 
L 212.549027 -37.55625 
L 214.552329 -37.55625 
L 216.555632 -37.55625 
L 218.558934 -37.55625 
L 220.562237 -37.55625 
L 222.565539 -37.55625 
L 224.568842 -37.55625 
L 226.572145 -37.55625 
L 228.575447 -37.55625 
L 230.57875 -37.55625 
L 232.582052 -37.55625 
L 234.585355 -37.55625 
L 236.588657 -37.55625 
L 238.59196 -37.55625 
L 240.595262 -37.55625 
L 242.598565 -37.55625 
L 244.601867 -37.55625 
L 246.60517 -37.55625 
L 248.608472 -37.55625 
L 250.611775 -37.55625 
L 252.615077 -37.55625 
L 254.61838 -37.55625 
L 256.621682 -37.55625 
L 258.624985 -37.55625 
L 260.628287 -37.55625 
L 262.63159 -37.55625 
L 264.634892 -37.55625 
L 266.638195 -37.55625 
L 268.641497 -37.55625 
L 270.6448 -37.55625 
L 272.648102 -37.55625 
L 274.651405 -37.55625 
L 276.654707 -37.55625 
L 278.65801 -37.55625 
L 280.661312 -37.55625 
L 282.664615 -37.55625 
L 284.667917 -37.55625 
L 286.67122 -37.55625 
L 288.674522 -37.55625 
L 290.677825 -37.55625 
L 292.681127 -37.55625 
L 294.68443 -37.55625 
L 296.687732 -37.55625 
L 298.691035 -37.55625 
L 300.694337 -37.55625 
L 302.69764 -37.55625 
L 304.700942 -37.55625 
L 306.704245 -37.55625 
L 308.707547 -37.55625 
L 310.71085 -37.55625 
L 312.714152 -37.55625 
L 314.717455 -37.55625 
L 316.720757 -37.55625 
L 318.72406 -37.55625 
L 320.727362 -37.55625 
L 322.730665 -37.55625 
L 324.733967 -37.55625 
L 326.73727 -37.55625 
L 328.740572 -37.55625 
L 330.743875 -37.55625 
L 332.747177 -37.55625 
L 334.75048 -37.55625 
L 336.753782 -37.55625 
L 338.757085 -37.55625 
L 340.760387 -37.55625 
L 342.76369 -37.55625 
L 344.766992 -37.55625 
L 346.770295 -37.55625 
L 348.773597 -37.55625 
L 350.7769 -37.55625 
L 352.780202 -37.55625 
L 354.783505 -37.55625 
L 356.786807 -37.55625 
L 358.79011 -37.55625 
L 360.793413 -37.55625 
L 362.796715 -37.55625 
L 364.800018 -37.55625 
L 366.80332 -37.55625 
L 368.806623 -37.55625 
L 370.809925 -37.55625 
L 372.813228 -37.55625 
L 374.81653 -37.55625 
L 376.819833 -37.55625 
L 378.823135 -37.55625 
L 380.826438 -37.55625 
L 382.82974 -37.55625 
L 384.833043 -37.55625 
L 386.836345 -37.55625 
L 388.839648 -37.55625 
L 390.84295 -37.55625 
L 392.846253 -37.55625 
L 394.849555 -37.55625 
L 396.852858 -37.55625 
L 398.85616 -37.55625 
L 400.859463 -37.55625 
L 402.862765 -37.55625 
L 404.866068 -37.55625 
L 406.86937 -37.55625 
L 408.872673 -37.55625 
L 410.875975 -37.55625 
L 412.879278 -37.55625 
L 414.88258 -37.55625 
L 416.885883 -37.55625 
L 418.889185 -37.55625 
L 420.892488 -37.55625 
L 422.89579 -37.55625 
L 424.899093 -37.55625 
L 426.902395 -37.55625 
L 428.905698 -37.55625 
L 430.909 -37.55625 
L 432.912303 -37.55625 
L 434.915605 -37.55625 
L 436.918908 -37.55625 
L 438.92221 -37.55625 
L 440.925513 -37.55625 
L 442.928815 -37.55625 
L 444.932118 -37.55625 
L 446.93542 -37.55625 
L 448.938723 -37.55625 
L 450.942025 -37.55625 
L 452.945328 -37.55625 
L 454.94863 -37.55625 
L 456.951933 -37.55625 
L 458.955235 -37.55625 
L 460.958538 -37.55625 
L 460.958538 -37.559352 
L 460.958538 -37.559352 
L 458.955235 -37.563218 
L 456.951933 -37.57116 
L 454.94863 -37.586667 
L 452.945328 -37.615476 
L 450.942025 -37.666435 
L 448.938723 -37.75234 
L 446.93542 -37.890479 
L 444.932118 -38.102625 
L 442.928815 -38.414212 
L 440.925513 -38.852668 
L 438.92221 -39.445143 
L 436.918908 -40.216163 
L 434.915605 -41.18589 
L 432.912303 -42.369506 
L 430.909 -43.777776 
L 428.905698 -45.418282 
L 426.902395 -47.29641 
L 424.899093 -49.415338 
L 422.89579 -51.774862 
L 420.892488 -54.369778 
L 418.889185 -57.189078 
L 416.885883 -60.216987 
L 414.88258 -63.435952 
L 412.879278 -66.830467 
L 410.875975 -70.389843 
L 408.872673 -74.108167 
L 406.86937 -77.980796 
L 404.866068 -81.998318 
L 402.862765 -86.140295 
L 400.859463 -90.37172 
L 398.85616 -94.644547 
L 396.852858 -98.904928 
L 394.849555 -103.10447 
L 392.846253 -107.211693 
L 390.84295 -111.21904 
L 388.839648 -115.141981 
L 386.836345 -119.009675 
L 384.833043 -122.850352 
L 382.82974 -126.677272 
L 380.826438 -130.481466 
L 378.823135 -134.234954 
L 376.819833 -137.903663 
L 374.81653 -141.464637 
L 372.813228 -144.919755 
L 370.809925 -148.299267 
L 368.806623 -151.65303 
L 366.80332 -155.033131 
L 364.800018 -158.475739 
L 362.796715 -161.990256 
L 360.793413 -165.559904 
L 358.79011 -169.152094 
L 356.786807 -172.732474 
L 354.783505 -176.275827 
L 352.780202 -179.770021 
L 350.7769 -183.213754 
L 348.773597 -186.612009 
L 346.770295 -189.973186 
L 344.766992 -193.309385 
L 342.76369 -196.638331 
L 340.760387 -199.984074 
L 338.757085 -203.37462 
L 336.753782 -206.836839 
L 334.75048 -210.390631 
L 332.747177 -214.044204 
L 330.743875 -217.791038 
L 328.740572 -221.607942 
L 326.73727 -225.453906 
L 324.733967 -229.27087 
L 322.730665 -232.98869 
L 320.727362 -236.535942 
L 318.72406 -239.855666 
L 316.720757 -242.921919 
L 314.717455 -245.751211 
L 312.714152 -248.403693 
L 310.71085 -250.972236 
L 308.707547 -253.561694 
L 306.704245 -256.264008 
L 304.700942 -259.136273 
L 302.69764 -262.188101 
L 300.694337 -265.381872 
L 298.691035 -268.64554 
L 296.687732 -271.893416 
L 294.68443 -275.047528 
L 292.681127 -278.051899 
L 290.677825 -280.875146 
L 288.674522 -283.501931 
L 286.67122 -285.91862 
L 284.667917 -288.100662 
L 282.664615 -290.007673 
L 280.661312 -291.588323 
L 278.65801 -292.792893 
L 276.654707 -293.588956 
L 274.651405 -293.975189 
L 272.648102 -293.989323 
L 270.6448 -293.707537 
L 268.641497 -293.234162 
L 266.638195 -292.682642 
L 264.634892 -292.151496 
L 262.63159 -291.701773 
L 260.628287 -291.343389 
L 258.624985 -291.03566 
L 256.621682 -290.70229 
L 254.61838 -290.255352 
L 252.615077 -289.619112 
L 250.611775 -288.745076 
L 248.608472 -287.613986 
L 246.60517 -286.226451 
L 244.601867 -284.588395 
L 242.598565 -282.698792 
L 240.595262 -280.544999 
L 238.59196 -278.10689 
L 236.588657 -275.366974 
L 234.585355 -272.321178 
L 232.582052 -268.985102 
L 230.57875 -265.392985 
L 228.575447 -261.590346 
L 226.572145 -257.624415 
L 224.568842 -253.537355 
L 222.565539 -249.365226 
L 220.562237 -245.141871 
L 218.558934 -240.90363 
L 216.555632 -236.69025 
L 214.552329 -232.539942 
L 212.549027 -228.480691 
L 210.545724 -224.522828 
L 208.542422 -220.657603 
L 206.539119 -216.863108 
L 204.535817 -213.114662 
L 202.532514 -209.394288 
L 200.529212 -205.694871 
L 198.525909 -202.018012 
L 196.522607 -198.368292 
L 194.519304 -194.748185 
L 192.516002 -191.156635 
L 190.512699 -187.591451 
L 188.509397 -184.053225 
L 186.506094 -180.547911 
L 184.502792 -177.086331 
L 182.499489 -173.680742 
L 180.496187 -170.339881 
L 178.492884 -167.064265 
L 176.489582 -163.84311 
L 174.486279 -160.653692 
L 172.482977 -157.463456 
L 170.479674 -154.234772 
L 168.476372 -150.931674 
L 166.473069 -147.527367 
L 164.469767 -144.010829 
L 162.466464 -140.390901 
L 160.463162 -136.696756 
L 158.459859 -132.974431 
L 156.456557 -129.27993 
L 154.453254 -125.669936 
L 152.449952 -122.191593 
L 150.446649 -118.873114 
L 148.443347 -115.717303 
L 146.440044 -112.699963 
L 144.436742 -109.774342 
L 142.433439 -106.881081 
L 140.430137 -103.961173 
L 138.426834 -100.968113 
L 136.423532 -97.875708 
L 134.420229 -94.679723 
L 132.416927 -91.39406 
L 130.413624 -88.043996 
L 128.410322 -84.65943 
L 126.407019 -81.270043 
L 124.403717 -77.902684 
L 122.400414 -74.580228 
L 120.397112 -71.321128 
L 118.393809 -68.139512 
L 116.390507 -65.046286 
L 114.387204 -62.05151 
L 112.383902 -59.167518 
L 110.380599 -56.41146 
L 108.377297 -53.805847 
L 106.373994 -51.376511 
L 104.370692 -49.148618 
L 102.367389 -47.142252 
L 100.364087 -45.369121 
L 98.360784 -43.831253 
L 96.357482 -42.521608 
L 94.354179 -41.425895 
L 92.350877 -40.524819 
L 90.347574 -39.796217 
L 88.344271 -39.216862 
L 86.340969 -38.763909 
L 84.337666 -38.415964 
L 82.334364 -38.153751 
L 80.331061 -37.960389 
L 78.327759 -37.821357 
L 76.324456 -37.724304 
L 74.321154 -37.658836 
L 72.317851 -37.616356 
L 70.314549 -37.589952 
L 68.311246 -37.574289 
L 66.307944 -37.565447 
L 64.304641 -37.560708 
L 62.301339 -37.558302 
z
" style="stroke: #fa8072"/>
    </defs>
    <g clip-path="url(#p01e5bab10d)">
     <use xlink:href="#mf959c59cf1" x="0" y="337.074375" style="fill: #fa8072; fill-opacity: 0.25; stroke: #fa8072"/>
    </g>
   </g>
   <g id="PolyCollection_2">
    <defs>
     <path id="m8dad640241" d="M 60.894034 -37.559052 
L 60.894034 -37.55625 
L 62.933321 -37.55625 
L 64.972609 -37.55625 
L 67.011896 -37.55625 
L 69.051183 -37.55625 
L 71.090471 -37.55625 
L 73.129758 -37.55625 
L 75.169046 -37.55625 
L 77.208333 -37.55625 
L 79.24762 -37.55625 
L 81.286908 -37.55625 
L 83.326195 -37.55625 
L 85.365482 -37.55625 
L 87.40477 -37.55625 
L 89.444057 -37.55625 
L 91.483344 -37.55625 
L 93.522632 -37.55625 
L 95.561919 -37.55625 
L 97.601206 -37.55625 
L 99.640494 -37.55625 
L 101.679781 -37.55625 
L 103.719068 -37.55625 
L 105.758356 -37.55625 
L 107.797643 -37.55625 
L 109.83693 -37.55625 
L 111.876218 -37.55625 
L 113.915505 -37.55625 
L 115.954792 -37.55625 
L 117.99408 -37.55625 
L 120.033367 -37.55625 
L 122.072654 -37.55625 
L 124.111942 -37.55625 
L 126.151229 -37.55625 
L 128.190517 -37.55625 
L 130.229804 -37.55625 
L 132.269091 -37.55625 
L 134.308379 -37.55625 
L 136.347666 -37.55625 
L 138.386953 -37.55625 
L 140.426241 -37.55625 
L 142.465528 -37.55625 
L 144.504815 -37.55625 
L 146.544103 -37.55625 
L 148.58339 -37.55625 
L 150.622677 -37.55625 
L 152.661965 -37.55625 
L 154.701252 -37.55625 
L 156.740539 -37.55625 
L 158.779827 -37.55625 
L 160.819114 -37.55625 
L 162.858401 -37.55625 
L 164.897689 -37.55625 
L 166.936976 -37.55625 
L 168.976263 -37.55625 
L 171.015551 -37.55625 
L 173.054838 -37.55625 
L 175.094125 -37.55625 
L 177.133413 -37.55625 
L 179.1727 -37.55625 
L 181.211987 -37.55625 
L 183.251275 -37.55625 
L 185.290562 -37.55625 
L 187.32985 -37.55625 
L 189.369137 -37.55625 
L 191.408424 -37.55625 
L 193.447712 -37.55625 
L 195.486999 -37.55625 
L 197.526286 -37.55625 
L 199.565574 -37.55625 
L 201.604861 -37.55625 
L 203.644148 -37.55625 
L 205.683436 -37.55625 
L 207.722723 -37.55625 
L 209.76201 -37.55625 
L 211.801298 -37.55625 
L 213.840585 -37.55625 
L 215.879872 -37.55625 
L 217.91916 -37.55625 
L 219.958447 -37.55625 
L 221.997734 -37.55625 
L 224.037022 -37.55625 
L 226.076309 -37.55625 
L 228.115596 -37.55625 
L 230.154884 -37.55625 
L 232.194171 -37.55625 
L 234.233458 -37.55625 
L 236.272746 -37.55625 
L 238.312033 -37.55625 
L 240.351321 -37.55625 
L 242.390608 -37.55625 
L 244.429895 -37.55625 
L 246.469183 -37.55625 
L 248.50847 -37.55625 
L 250.547757 -37.55625 
L 252.587045 -37.55625 
L 254.626332 -37.55625 
L 256.665619 -37.55625 
L 258.704907 -37.55625 
L 260.744194 -37.55625 
L 262.783481 -37.55625 
L 264.822769 -37.55625 
L 266.862056 -37.55625 
L 268.901343 -37.55625 
L 270.940631 -37.55625 
L 272.979918 -37.55625 
L 275.019205 -37.55625 
L 277.058493 -37.55625 
L 279.09778 -37.55625 
L 281.137067 -37.55625 
L 283.176355 -37.55625 
L 285.215642 -37.55625 
L 287.254929 -37.55625 
L 289.294217 -37.55625 
L 291.333504 -37.55625 
L 293.372792 -37.55625 
L 295.412079 -37.55625 
L 297.451366 -37.55625 
L 299.490654 -37.55625 
L 301.529941 -37.55625 
L 303.569228 -37.55625 
L 305.608516 -37.55625 
L 307.647803 -37.55625 
L 309.68709 -37.55625 
L 311.726378 -37.55625 
L 313.765665 -37.55625 
L 315.804952 -37.55625 
L 317.84424 -37.55625 
L 319.883527 -37.55625 
L 321.922814 -37.55625 
L 323.962102 -37.55625 
L 326.001389 -37.55625 
L 328.040676 -37.55625 
L 330.079964 -37.55625 
L 332.119251 -37.55625 
L 334.158538 -37.55625 
L 336.197826 -37.55625 
L 338.237113 -37.55625 
L 340.2764 -37.55625 
L 342.315688 -37.55625 
L 344.354975 -37.55625 
L 346.394263 -37.55625 
L 348.43355 -37.55625 
L 350.472837 -37.55625 
L 352.512125 -37.55625 
L 354.551412 -37.55625 
L 356.590699 -37.55625 
L 358.629987 -37.55625 
L 360.669274 -37.55625 
L 362.708561 -37.55625 
L 364.747849 -37.55625 
L 366.787136 -37.55625 
L 368.826423 -37.55625 
L 370.865711 -37.55625 
L 372.904998 -37.55625 
L 374.944285 -37.55625 
L 376.983573 -37.55625 
L 379.02286 -37.55625 
L 381.062147 -37.55625 
L 383.101435 -37.55625 
L 385.140722 -37.55625 
L 387.180009 -37.55625 
L 389.219297 -37.55625 
L 391.258584 -37.55625 
L 393.297871 -37.55625 
L 395.337159 -37.55625 
L 397.376446 -37.55625 
L 399.415733 -37.55625 
L 401.455021 -37.55625 
L 403.494308 -37.55625 
L 405.533596 -37.55625 
L 407.572883 -37.55625 
L 409.61217 -37.55625 
L 411.651458 -37.55625 
L 413.690745 -37.55625 
L 415.730032 -37.55625 
L 417.76932 -37.55625 
L 419.808607 -37.55625 
L 421.847894 -37.55625 
L 423.887182 -37.55625 
L 425.926469 -37.55625 
L 427.965756 -37.55625 
L 430.005044 -37.55625 
L 432.044331 -37.55625 
L 434.083618 -37.55625 
L 436.122906 -37.55625 
L 438.162193 -37.55625 
L 440.20148 -37.55625 
L 442.240768 -37.55625 
L 444.280055 -37.55625 
L 446.319342 -37.55625 
L 448.35863 -37.55625 
L 450.397917 -37.55625 
L 452.437204 -37.55625 
L 454.476492 -37.55625 
L 456.515779 -37.55625 
L 458.555067 -37.55625 
L 460.594354 -37.55625 
L 462.633641 -37.55625 
L 464.672929 -37.55625 
L 466.712216 -37.55625 
L 466.712216 -37.557287 
L 466.712216 -37.557287 
L 464.672929 -37.558573 
L 462.633641 -37.561203 
L 460.594354 -37.566324 
L 458.555067 -37.575823 
L 456.515779 -37.592627 
L 454.476492 -37.621021 
L 452.437204 -37.66692 
L 450.397917 -37.73803 
L 448.35863 -37.843862 
L 446.319342 -37.995618 
L 444.280055 -38.206004 
L 442.240768 -38.489103 
L 440.20148 -38.860337 
L 438.162193 -39.336424 
L 436.122906 -39.935074 
L 434.083618 -40.674109 
L 432.044331 -41.569921 
L 430.005044 -42.635595 
L 427.965756 -43.879482 
L 425.926469 -45.305149 
L 423.887182 -46.913186 
L 421.847894 -48.704445 
L 419.808607 -50.683246 
L 417.76932 -52.858602 
L 415.730032 -55.24201 
L 413.690745 -57.841919 
L 411.651458 -60.6568 
L 409.61217 -63.670078 
L 407.572883 -66.849797 
L 405.533596 -70.15397 
L 403.494308 -73.539729 
L 401.455021 -76.972266 
L 399.415733 -80.429576 
L 397.376446 -83.901217 
L 395.337159 -87.382649 
L 393.297871 -90.869054 
L 391.258584 -94.352517 
L 389.219297 -97.82394 
L 387.180009 -101.277935 
L 385.140722 -104.717088 
L 383.101435 -108.152629 
L 381.062147 -111.601004 
L 379.02286 -115.078243 
L 376.983573 -118.594895 
L 374.944285 -122.153195 
L 372.904998 -125.746392 
L 370.865711 -129.359102 
L 368.826423 -132.967946 
L 366.787136 -136.542963 
L 364.747849 -140.051099 
L 362.708561 -143.462593 
L 360.669274 -146.759378 
L 358.629987 -149.942774 
L 356.590699 -153.036917 
L 354.551412 -156.08545 
L 352.512125 -159.141556 
L 350.472837 -162.254493 
L 348.43355 -165.457633 
L 346.394263 -168.762679 
L 344.354975 -172.161999 
L 342.315688 -175.637282 
L 340.2764 -179.169893 
L 338.237113 -182.74792 
L 336.197826 -186.367159 
L 334.158538 -190.026773 
L 332.119251 -193.723129 
L 330.079964 -197.445722 
L 328.040676 -201.177311 
L 326.001389 -204.897546 
L 323.962102 -208.587424 
L 321.922814 -212.232003 
L 319.883527 -215.820526 
L 317.84424 -219.345328 
L 315.804952 -222.801729 
L 313.765665 -226.190147 
L 311.726378 -229.51944 
L 309.68709 -232.808799 
L 307.647803 -236.085687 
L 305.608516 -239.379488 
L 303.569228 -242.713284 
L 301.529941 -246.097548 
L 299.490654 -249.528626 
L 297.451366 -252.992274 
L 295.412079 -256.469944 
L 293.372792 -259.94458 
L 291.333504 -263.403549 
L 289.294217 -266.838116 
L 287.254929 -270.240343 
L 285.215642 -273.59896 
L 283.176355 -276.895912 
L 281.137067 -280.105222 
L 279.09778 -283.195444 
L 277.058493 -286.135669 
L 275.019205 -288.902763 
L 272.979918 -291.485328 
L 270.940631 -293.879633 
L 268.901343 -296.075824 
L 266.862056 -298.038371 
L 264.822769 -299.690102 
L 262.783481 -300.910714 
L 260.744194 -301.55625 
L 258.704907 -301.496983 
L 256.665619 -300.661596 
L 254.626332 -299.070589 
L 252.587045 -296.844576 
L 250.547757 -294.182637 
L 248.50847 -291.317889 
L 246.469183 -288.465972 
L 244.429895 -285.783501 
L 242.390608 -283.347641 
L 240.351321 -281.158558 
L 238.312033 -279.158592 
L 236.272746 -277.258647 
L 234.233458 -275.363589 
L 232.194171 -273.391739 
L 230.154884 -271.286483 
L 228.115596 -269.019569 
L 226.076309 -266.586737 
L 224.037022 -263.99791 
L 221.997734 -261.265937 
L 219.958447 -258.398548 
L 217.91916 -255.39673 
L 215.879872 -252.259481 
L 213.840585 -248.991772 
L 211.801298 -245.611286 
L 209.76201 -242.150661 
L 207.722723 -238.654417 
L 205.683436 -235.171986 
L 203.644148 -231.749196 
L 201.604861 -228.420351 
L 199.565574 -225.202402 
L 197.526286 -222.092093 
L 195.486999 -219.066573 
L 193.447712 -216.08749 
L 191.408424 -213.107879 
L 189.369137 -210.080462 
L 187.32985 -206.965573 
L 185.290562 -203.737044 
L 183.251275 -200.384983 
L 181.211987 -196.915217 
L 179.1727 -193.345882 
L 177.133413 -189.70219 
L 175.094125 -186.010667 
L 173.054838 -182.294212 
L 171.015551 -178.569029 
L 168.976263 -174.843781 
L 166.936976 -171.12043 
L 164.897689 -167.39559 
L 162.858401 -163.661467 
L 160.819114 -159.906418 
L 158.779827 -156.116381 
L 156.740539 -152.278668 
L 154.701252 -148.388427 
L 152.661965 -144.455769 
L 150.622677 -140.509694 
L 148.58339 -136.594981 
L 146.544103 -132.760729 
L 144.504815 -129.043267 
L 142.465528 -125.449543 
L 140.426241 -121.947951 
L 138.386953 -118.471201 
L 136.347666 -114.931309 
L 134.308379 -111.242181 
L 132.269091 -107.342579 
L 130.229804 -103.212424 
L 128.190517 -98.87804 
L 126.151229 -94.405714 
L 124.111942 -89.886383 
L 122.072654 -85.41629 
L 120.033367 -81.078854 
L 117.99408 -76.932093 
L 115.954792 -73.004068 
L 113.915505 -69.296625 
L 111.876218 -65.795399 
L 109.83693 -62.482359 
L 107.797643 -59.346641 
L 105.758356 -56.390378 
L 103.719068 -53.628362 
L 101.679781 -51.082793 
L 99.640494 -48.775951 
L 97.601206 -46.723747 
L 95.561919 -44.932062 
L 93.522632 -43.396201 
L 91.483344 -42.102644 
L 89.444057 -41.031795 
L 87.40477 -40.160704 
L 85.365482 -39.465175 
L 83.326195 -38.921146 
L 81.286908 -38.505463 
L 79.24762 -38.196275 
L 77.208333 -37.973286 
L 75.169046 -37.817997 
L 73.129758 -37.714002 
L 71.090471 -37.647283 
L 69.051183 -37.606419 
L 67.011896 -37.582594 
L 64.972609 -37.569405 
L 62.933321 -37.562486 
L 60.894034 -37.559052 
z
" style="stroke: #87ceeb"/>
    </defs>
    <g clip-path="url(#p01e5bab10d)">
     <use xlink:href="#m8dad640241" x="0" y="337.074375" style="fill: #87ceeb; fill-opacity: 0.25; stroke: #87ceeb"/>
    </g>
   </g>
   <g id="matplotlib.axis_1">
    <g id="xtick_1">
     <g id="line2d_1">
      <defs>
       <path id="m1537c43640" d="M 0 0 
L 0 3.5 
" style="stroke: #000000; stroke-width: 0.8"/>
      </defs>
      <g>
       <use xlink:href="#m1537c43640" x="65.291917" y="299.518125" style="stroke: #000000; stroke-width: 0.8"/>
      </g>
     </g>
     <g id="text_1">
      <!-- 0.400 -->
      <g transform="translate(50.977854 314.116563) scale(0.1 -0.1)">
       <defs>
        <path id="DejaVuSans-30" d="M 2034 4250 
Q 1547 4250 1301 3770 
Q 1056 3291 1056 2328 
Q 1056 1369 1301 889 
Q 1547 409 2034 409 
Q 2525 409 2770 889 
Q 3016 1369 3016 2328 
Q 3016 3291 2770 3770 
Q 2525 4250 2034 4250 
z
M 2034 4750 
Q 2819 4750 3233 4129 
Q 3647 3509 3647 2328 
Q 3647 1150 3233 529 
Q 2819 -91 2034 -91 
Q 1250 -91 836 529 
Q 422 1150 422 2328 
Q 422 3509 836 4129 
Q 1250 4750 2034 4750 
z
" transform="scale(0.015625)"/>
        <path id="DejaVuSans-2e" d="M 684 794 
L 1344 794 
L 1344 0 
L 684 0 
L 684 794 
z
" transform="scale(0.015625)"/>
        <path id="DejaVuSans-34" d="M 2419 4116 
L 825 1625 
L 2419 1625 
L 2419 4116 
z
M 2253 4666 
L 3047 4666 
L 3047 1625 
L 3713 1625 
L 3713 1100 
L 3047 1100 
L 3047 0 
L 2419 0 
L 2419 1100 
L 313 1100 
L 313 1709 
L 2253 4666 
z
" transform="scale(0.015625)"/>
       </defs>
       <use xlink:href="#DejaVuSans-30"/>
       <use xlink:href="#DejaVuSans-2e" x="63.623047"/>
       <use xlink:href="#DejaVuSans-34" x="95.410156"/>
       <use xlink:href="#DejaVuSans-30" x="159.033203"/>
       <use xlink:href="#DejaVuSans-30" x="222.65625"/>
      </g>
     </g>
    </g>
    <g id="xtick_2">
     <g id="line2d_2">
      <g>
       <use xlink:href="#m1537c43640" x="116.643326" y="299.518125" style="stroke: #000000; stroke-width: 0.8"/>
      </g>
     </g>
     <g id="text_2">
      <!-- 0.425 -->
      <g transform="translate(102.329264 314.116563) scale(0.1 -0.1)">
       <defs>
        <path id="DejaVuSans-32" d="M 1228 531 
L 3431 531 
L 3431 0 
L 469 0 
L 469 531 
Q 828 903 1448 1529 
Q 2069 2156 2228 2338 
Q 2531 2678 2651 2914 
Q 2772 3150 2772 3378 
Q 2772 3750 2511 3984 
Q 2250 4219 1831 4219 
Q 1534 4219 1204 4116 
Q 875 4013 500 3803 
L 500 4441 
Q 881 4594 1212 4672 
Q 1544 4750 1819 4750 
Q 2544 4750 2975 4387 
Q 3406 4025 3406 3419 
Q 3406 3131 3298 2873 
Q 3191 2616 2906 2266 
Q 2828 2175 2409 1742 
Q 1991 1309 1228 531 
z
" transform="scale(0.015625)"/>
        <path id="DejaVuSans-35" d="M 691 4666 
L 3169 4666 
L 3169 4134 
L 1269 4134 
L 1269 2991 
Q 1406 3038 1543 3061 
Q 1681 3084 1819 3084 
Q 2600 3084 3056 2656 
Q 3513 2228 3513 1497 
Q 3513 744 3044 326 
Q 2575 -91 1722 -91 
Q 1428 -91 1123 -41 
Q 819 9 494 109 
L 494 744 
Q 775 591 1075 516 
Q 1375 441 1709 441 
Q 2250 441 2565 725 
Q 2881 1009 2881 1497 
Q 2881 1984 2565 2268 
Q 2250 2553 1709 2553 
Q 1456 2553 1204 2497 
Q 953 2441 691 2322 
L 691 4666 
z
" transform="scale(0.015625)"/>
       </defs>
       <use xlink:href="#DejaVuSans-30"/>
       <use xlink:href="#DejaVuSans-2e" x="63.623047"/>
       <use xlink:href="#DejaVuSans-34" x="95.410156"/>
       <use xlink:href="#DejaVuSans-32" x="159.033203"/>
       <use xlink:href="#DejaVuSans-35" x="222.65625"/>
      </g>
     </g>
    </g>
    <g id="xtick_3">
     <g id="line2d_3">
      <g>
       <use xlink:href="#m1537c43640" x="167.994736" y="299.518125" style="stroke: #000000; stroke-width: 0.8"/>
      </g>
     </g>
     <g id="text_3">
      <!-- 0.450 -->
      <g transform="translate(153.680673 314.116563) scale(0.1 -0.1)">
       <use xlink:href="#DejaVuSans-30"/>
       <use xlink:href="#DejaVuSans-2e" x="63.623047"/>
       <use xlink:href="#DejaVuSans-34" x="95.410156"/>
       <use xlink:href="#DejaVuSans-35" x="159.033203"/>
       <use xlink:href="#DejaVuSans-30" x="222.65625"/>
      </g>
     </g>
    </g>
    <g id="xtick_4">
     <g id="line2d_4">
      <g>
       <use xlink:href="#m1537c43640" x="219.346145" y="299.518125" style="stroke: #000000; stroke-width: 0.8"/>
      </g>
     </g>
     <g id="text_4">
      <!-- 0.475 -->
      <g transform="translate(205.032083 314.116563) scale(0.1 -0.1)">
       <defs>
        <path id="DejaVuSans-37" d="M 525 4666 
L 3525 4666 
L 3525 4397 
L 1831 0 
L 1172 0 
L 2766 4134 
L 525 4134 
L 525 4666 
z
" transform="scale(0.015625)"/>
       </defs>
       <use xlink:href="#DejaVuSans-30"/>
       <use xlink:href="#DejaVuSans-2e" x="63.623047"/>
       <use xlink:href="#DejaVuSans-34" x="95.410156"/>
       <use xlink:href="#DejaVuSans-37" x="159.033203"/>
       <use xlink:href="#DejaVuSans-35" x="222.65625"/>
      </g>
     </g>
    </g>
    <g id="xtick_5">
     <g id="line2d_5">
      <g>
       <use xlink:href="#m1537c43640" x="270.697554" y="299.518125" style="stroke: #000000; stroke-width: 0.8"/>
      </g>
     </g>
     <g id="text_5">
      <!-- 0.500 -->
      <g transform="translate(256.383492 314.116563) scale(0.1 -0.1)">
       <use xlink:href="#DejaVuSans-30"/>
       <use xlink:href="#DejaVuSans-2e" x="63.623047"/>
       <use xlink:href="#DejaVuSans-35" x="95.410156"/>
       <use xlink:href="#DejaVuSans-30" x="159.033203"/>
       <use xlink:href="#DejaVuSans-30" x="222.65625"/>
      </g>
     </g>
    </g>
    <g id="xtick_6">
     <g id="line2d_6">
      <g>
       <use xlink:href="#m1537c43640" x="322.048964" y="299.518125" style="stroke: #000000; stroke-width: 0.8"/>
      </g>
     </g>
     <g id="text_6">
      <!-- 0.525 -->
      <g transform="translate(307.734901 314.116563) scale(0.1 -0.1)">
       <use xlink:href="#DejaVuSans-30"/>
       <use xlink:href="#DejaVuSans-2e" x="63.623047"/>
       <use xlink:href="#DejaVuSans-35" x="95.410156"/>
       <use xlink:href="#DejaVuSans-32" x="159.033203"/>
       <use xlink:href="#DejaVuSans-35" x="222.65625"/>
      </g>
     </g>
    </g>
    <g id="xtick_7">
     <g id="line2d_7">
      <g>
       <use xlink:href="#m1537c43640" x="373.400373" y="299.518125" style="stroke: #000000; stroke-width: 0.8"/>
      </g>
     </g>
     <g id="text_7">
      <!-- 0.550 -->
      <g transform="translate(359.086311 314.116563) scale(0.1 -0.1)">
       <use xlink:href="#DejaVuSans-30"/>
       <use xlink:href="#DejaVuSans-2e" x="63.623047"/>
       <use xlink:href="#DejaVuSans-35" x="95.410156"/>
       <use xlink:href="#DejaVuSans-35" x="159.033203"/>
       <use xlink:href="#DejaVuSans-30" x="222.65625"/>
      </g>
     </g>
    </g>
    <g id="xtick_8">
     <g id="line2d_8">
      <g>
       <use xlink:href="#m1537c43640" x="424.751783" y="299.518125" style="stroke: #000000; stroke-width: 0.8"/>
      </g>
     </g>
     <g id="text_8">
      <!-- 0.575 -->
      <g transform="translate(410.43772 314.116563) scale(0.1 -0.1)">
       <use xlink:href="#DejaVuSans-30"/>
       <use xlink:href="#DejaVuSans-2e" x="63.623047"/>
       <use xlink:href="#DejaVuSans-35" x="95.410156"/>
       <use xlink:href="#DejaVuSans-37" x="159.033203"/>
       <use xlink:href="#DejaVuSans-35" x="222.65625"/>
      </g>
     </g>
    </g>
    <g id="xtick_9">
     <g id="line2d_9">
      <g>
       <use xlink:href="#m1537c43640" x="476.103192" y="299.518125" style="stroke: #000000; stroke-width: 0.8"/>
      </g>
     </g>
     <g id="text_9">
      <!-- 0.600 -->
      <g transform="translate(461.78913 314.116563) scale(0.1 -0.1)">
       <defs>
        <path id="DejaVuSans-36" d="M 2113 2584 
Q 1688 2584 1439 2293 
Q 1191 2003 1191 1497 
Q 1191 994 1439 701 
Q 1688 409 2113 409 
Q 2538 409 2786 701 
Q 3034 994 3034 1497 
Q 3034 2003 2786 2293 
Q 2538 2584 2113 2584 
z
M 3366 4563 
L 3366 3988 
Q 3128 4100 2886 4159 
Q 2644 4219 2406 4219 
Q 1781 4219 1451 3797 
Q 1122 3375 1075 2522 
Q 1259 2794 1537 2939 
Q 1816 3084 2150 3084 
Q 2853 3084 3261 2657 
Q 3669 2231 3669 1497 
Q 3669 778 3244 343 
Q 2819 -91 2113 -91 
Q 1303 -91 875 529 
Q 447 1150 447 2328 
Q 447 3434 972 4092 
Q 1497 4750 2381 4750 
Q 2619 4750 2861 4703 
Q 3103 4656 3366 4563 
z
" transform="scale(0.015625)"/>
       </defs>
       <use xlink:href="#DejaVuSans-30"/>
       <use xlink:href="#DejaVuSans-2e" x="63.623047"/>
       <use xlink:href="#DejaVuSans-36" x="95.410156"/>
       <use xlink:href="#DejaVuSans-30" x="159.033203"/>
       <use xlink:href="#DejaVuSans-30" x="222.65625"/>
      </g>
     </g>
    </g>
    <g id="text_10">
     <!-- Estimated Propensity Score -->
     <g transform="translate(195.101562 327.794688) scale(0.1 -0.1)">
      <defs>
       <path id="DejaVuSans-45" d="M 628 4666 
L 3578 4666 
L 3578 4134 
L 1259 4134 
L 1259 2753 
L 3481 2753 
L 3481 2222 
L 1259 2222 
L 1259 531 
L 3634 531 
L 3634 0 
L 628 0 
L 628 4666 
z
" transform="scale(0.015625)"/>
       <path id="DejaVuSans-73" d="M 2834 3397 
L 2834 2853 
Q 2591 2978 2328 3040 
Q 2066 3103 1784 3103 
Q 1356 3103 1142 2972 
Q 928 2841 928 2578 
Q 928 2378 1081 2264 
Q 1234 2150 1697 2047 
L 1894 2003 
Q 2506 1872 2764 1633 
Q 3022 1394 3022 966 
Q 3022 478 2636 193 
Q 2250 -91 1575 -91 
Q 1294 -91 989 -36 
Q 684 19 347 128 
L 347 722 
Q 666 556 975 473 
Q 1284 391 1588 391 
Q 1994 391 2212 530 
Q 2431 669 2431 922 
Q 2431 1156 2273 1281 
Q 2116 1406 1581 1522 
L 1381 1569 
Q 847 1681 609 1914 
Q 372 2147 372 2553 
Q 372 3047 722 3315 
Q 1072 3584 1716 3584 
Q 2034 3584 2315 3537 
Q 2597 3491 2834 3397 
z
" transform="scale(0.015625)"/>
       <path id="DejaVuSans-74" d="M 1172 4494 
L 1172 3500 
L 2356 3500 
L 2356 3053 
L 1172 3053 
L 1172 1153 
Q 1172 725 1289 603 
Q 1406 481 1766 481 
L 2356 481 
L 2356 0 
L 1766 0 
Q 1100 0 847 248 
Q 594 497 594 1153 
L 594 3053 
L 172 3053 
L 172 3500 
L 594 3500 
L 594 4494 
L 1172 4494 
z
" transform="scale(0.015625)"/>
       <path id="DejaVuSans-69" d="M 603 3500 
L 1178 3500 
L 1178 0 
L 603 0 
L 603 3500 
z
M 603 4863 
L 1178 4863 
L 1178 4134 
L 603 4134 
L 603 4863 
z
" transform="scale(0.015625)"/>
       <path id="DejaVuSans-6d" d="M 3328 2828 
Q 3544 3216 3844 3400 
Q 4144 3584 4550 3584 
Q 5097 3584 5394 3201 
Q 5691 2819 5691 2113 
L 5691 0 
L 5113 0 
L 5113 2094 
Q 5113 2597 4934 2840 
Q 4756 3084 4391 3084 
Q 3944 3084 3684 2787 
Q 3425 2491 3425 1978 
L 3425 0 
L 2847 0 
L 2847 2094 
Q 2847 2600 2669 2842 
Q 2491 3084 2119 3084 
Q 1678 3084 1418 2786 
Q 1159 2488 1159 1978 
L 1159 0 
L 581 0 
L 581 3500 
L 1159 3500 
L 1159 2956 
Q 1356 3278 1631 3431 
Q 1906 3584 2284 3584 
Q 2666 3584 2933 3390 
Q 3200 3197 3328 2828 
z
" transform="scale(0.015625)"/>
       <path id="DejaVuSans-61" d="M 2194 1759 
Q 1497 1759 1228 1600 
Q 959 1441 959 1056 
Q 959 750 1161 570 
Q 1363 391 1709 391 
Q 2188 391 2477 730 
Q 2766 1069 2766 1631 
L 2766 1759 
L 2194 1759 
z
M 3341 1997 
L 3341 0 
L 2766 0 
L 2766 531 
Q 2569 213 2275 61 
Q 1981 -91 1556 -91 
Q 1019 -91 701 211 
Q 384 513 384 1019 
Q 384 1609 779 1909 
Q 1175 2209 1959 2209 
L 2766 2209 
L 2766 2266 
Q 2766 2663 2505 2880 
Q 2244 3097 1772 3097 
Q 1472 3097 1187 3025 
Q 903 2953 641 2809 
L 641 3341 
Q 956 3463 1253 3523 
Q 1550 3584 1831 3584 
Q 2591 3584 2966 3190 
Q 3341 2797 3341 1997 
z
" transform="scale(0.015625)"/>
       <path id="DejaVuSans-65" d="M 3597 1894 
L 3597 1613 
L 953 1613 
Q 991 1019 1311 708 
Q 1631 397 2203 397 
Q 2534 397 2845 478 
Q 3156 559 3463 722 
L 3463 178 
Q 3153 47 2828 -22 
Q 2503 -91 2169 -91 
Q 1331 -91 842 396 
Q 353 884 353 1716 
Q 353 2575 817 3079 
Q 1281 3584 2069 3584 
Q 2775 3584 3186 3129 
Q 3597 2675 3597 1894 
z
M 3022 2063 
Q 3016 2534 2758 2815 
Q 2500 3097 2075 3097 
Q 1594 3097 1305 2825 
Q 1016 2553 972 2059 
L 3022 2063 
z
" transform="scale(0.015625)"/>
       <path id="DejaVuSans-64" d="M 2906 2969 
L 2906 4863 
L 3481 4863 
L 3481 0 
L 2906 0 
L 2906 525 
Q 2725 213 2448 61 
Q 2172 -91 1784 -91 
Q 1150 -91 751 415 
Q 353 922 353 1747 
Q 353 2572 751 3078 
Q 1150 3584 1784 3584 
Q 2172 3584 2448 3432 
Q 2725 3281 2906 2969 
z
M 947 1747 
Q 947 1113 1208 752 
Q 1469 391 1925 391 
Q 2381 391 2643 752 
Q 2906 1113 2906 1747 
Q 2906 2381 2643 2742 
Q 2381 3103 1925 3103 
Q 1469 3103 1208 2742 
Q 947 2381 947 1747 
z
" transform="scale(0.015625)"/>
       <path id="DejaVuSans-20" transform="scale(0.015625)"/>
       <path id="DejaVuSans-50" d="M 1259 4147 
L 1259 2394 
L 2053 2394 
Q 2494 2394 2734 2622 
Q 2975 2850 2975 3272 
Q 2975 3691 2734 3919 
Q 2494 4147 2053 4147 
L 1259 4147 
z
M 628 4666 
L 2053 4666 
Q 2838 4666 3239 4311 
Q 3641 3956 3641 3272 
Q 3641 2581 3239 2228 
Q 2838 1875 2053 1875 
L 1259 1875 
L 1259 0 
L 628 0 
L 628 4666 
z
" transform="scale(0.015625)"/>
       <path id="DejaVuSans-72" d="M 2631 2963 
Q 2534 3019 2420 3045 
Q 2306 3072 2169 3072 
Q 1681 3072 1420 2755 
Q 1159 2438 1159 1844 
L 1159 0 
L 581 0 
L 581 3500 
L 1159 3500 
L 1159 2956 
Q 1341 3275 1631 3429 
Q 1922 3584 2338 3584 
Q 2397 3584 2469 3576 
Q 2541 3569 2628 3553 
L 2631 2963 
z
" transform="scale(0.015625)"/>
       <path id="DejaVuSans-6f" d="M 1959 3097 
Q 1497 3097 1228 2736 
Q 959 2375 959 1747 
Q 959 1119 1226 758 
Q 1494 397 1959 397 
Q 2419 397 2687 759 
Q 2956 1122 2956 1747 
Q 2956 2369 2687 2733 
Q 2419 3097 1959 3097 
z
M 1959 3584 
Q 2709 3584 3137 3096 
Q 3566 2609 3566 1747 
Q 3566 888 3137 398 
Q 2709 -91 1959 -91 
Q 1206 -91 779 398 
Q 353 888 353 1747 
Q 353 2609 779 3096 
Q 1206 3584 1959 3584 
z
" transform="scale(0.015625)"/>
       <path id="DejaVuSans-70" d="M 1159 525 
L 1159 -1331 
L 581 -1331 
L 581 3500 
L 1159 3500 
L 1159 2969 
Q 1341 3281 1617 3432 
Q 1894 3584 2278 3584 
Q 2916 3584 3314 3078 
Q 3713 2572 3713 1747 
Q 3713 922 3314 415 
Q 2916 -91 2278 -91 
Q 1894 -91 1617 61 
Q 1341 213 1159 525 
z
M 3116 1747 
Q 3116 2381 2855 2742 
Q 2594 3103 2138 3103 
Q 1681 3103 1420 2742 
Q 1159 2381 1159 1747 
Q 1159 1113 1420 752 
Q 1681 391 2138 391 
Q 2594 391 2855 752 
Q 3116 1113 3116 1747 
z
" transform="scale(0.015625)"/>
       <path id="DejaVuSans-6e" d="M 3513 2113 
L 3513 0 
L 2938 0 
L 2938 2094 
Q 2938 2591 2744 2837 
Q 2550 3084 2163 3084 
Q 1697 3084 1428 2787 
Q 1159 2491 1159 1978 
L 1159 0 
L 581 0 
L 581 3500 
L 1159 3500 
L 1159 2956 
Q 1366 3272 1645 3428 
Q 1925 3584 2291 3584 
Q 2894 3584 3203 3211 
Q 3513 2838 3513 2113 
z
" transform="scale(0.015625)"/>
       <path id="DejaVuSans-79" d="M 2059 -325 
Q 1816 -950 1584 -1140 
Q 1353 -1331 966 -1331 
L 506 -1331 
L 506 -850 
L 844 -850 
Q 1081 -850 1212 -737 
Q 1344 -625 1503 -206 
L 1606 56 
L 191 3500 
L 800 3500 
L 1894 763 
L 2988 3500 
L 3597 3500 
L 2059 -325 
z
" transform="scale(0.015625)"/>
       <path id="DejaVuSans-53" d="M 3425 4513 
L 3425 3897 
Q 3066 4069 2747 4153 
Q 2428 4238 2131 4238 
Q 1616 4238 1336 4038 
Q 1056 3838 1056 3469 
Q 1056 3159 1242 3001 
Q 1428 2844 1947 2747 
L 2328 2669 
Q 3034 2534 3370 2195 
Q 3706 1856 3706 1288 
Q 3706 609 3251 259 
Q 2797 -91 1919 -91 
Q 1588 -91 1214 -16 
Q 841 59 441 206 
L 441 856 
Q 825 641 1194 531 
Q 1563 422 1919 422 
Q 2459 422 2753 634 
Q 3047 847 3047 1241 
Q 3047 1584 2836 1778 
Q 2625 1972 2144 2069 
L 1759 2144 
Q 1053 2284 737 2584 
Q 422 2884 422 3419 
Q 422 4038 858 4394 
Q 1294 4750 2059 4750 
Q 2388 4750 2728 4690 
Q 3069 4631 3425 4513 
z
" transform="scale(0.015625)"/>
       <path id="DejaVuSans-63" d="M 3122 3366 
L 3122 2828 
Q 2878 2963 2633 3030 
Q 2388 3097 2138 3097 
Q 1578 3097 1268 2742 
Q 959 2388 959 1747 
Q 959 1106 1268 751 
Q 1578 397 2138 397 
Q 2388 397 2633 464 
Q 2878 531 3122 666 
L 3122 134 
Q 2881 22 2623 -34 
Q 2366 -91 2075 -91 
Q 1284 -91 818 406 
Q 353 903 353 1747 
Q 353 2603 823 3093 
Q 1294 3584 2113 3584 
Q 2378 3584 2631 3529 
Q 2884 3475 3122 3366 
z
" transform="scale(0.015625)"/>
      </defs>
      <use xlink:href="#DejaVuSans-45"/>
      <use xlink:href="#DejaVuSans-73" x="63.183594"/>
      <use xlink:href="#DejaVuSans-74" x="115.283203"/>
      <use xlink:href="#DejaVuSans-69" x="154.492188"/>
      <use xlink:href="#DejaVuSans-6d" x="182.275391"/>
      <use xlink:href="#DejaVuSans-61" x="279.6875"/>
      <use xlink:href="#DejaVuSans-74" x="340.966797"/>
      <use xlink:href="#DejaVuSans-65" x="380.175781"/>
      <use xlink:href="#DejaVuSans-64" x="441.699219"/>
      <use xlink:href="#DejaVuSans-20" x="505.175781"/>
      <use xlink:href="#DejaVuSans-50" x="536.962891"/>
      <use xlink:href="#DejaVuSans-72" x="595.515625"/>
      <use xlink:href="#DejaVuSans-6f" x="634.378906"/>
      <use xlink:href="#DejaVuSans-70" x="695.560547"/>
      <use xlink:href="#DejaVuSans-65" x="759.037109"/>
      <use xlink:href="#DejaVuSans-6e" x="820.560547"/>
      <use xlink:href="#DejaVuSans-73" x="883.939453"/>
      <use xlink:href="#DejaVuSans-69" x="936.039062"/>
      <use xlink:href="#DejaVuSans-74" x="963.822266"/>
      <use xlink:href="#DejaVuSans-79" x="1003.03125"/>
      <use xlink:href="#DejaVuSans-20" x="1062.210938"/>
      <use xlink:href="#DejaVuSans-53" x="1093.998047"/>
      <use xlink:href="#DejaVuSans-63" x="1157.474609"/>
      <use xlink:href="#DejaVuSans-6f" x="1212.455078"/>
      <use xlink:href="#DejaVuSans-72" x="1273.636719"/>
      <use xlink:href="#DejaVuSans-65" x="1312.5"/>
     </g>
    </g>
   </g>
   <g id="matplotlib.axis_2">
    <g id="ytick_1">
     <g id="line2d_10">
      <defs>
       <path id="m1eb8258696" d="M 0 0 
L -3.5 0 
" style="stroke: #000000; stroke-width: 0.8"/>
      </defs>
      <g>
       <use xlink:href="#m1eb8258696" x="40.603125" y="299.518125" style="stroke: #000000; stroke-width: 0.8"/>
      </g>
     </g>
     <g id="text_11">
      <!-- 0 -->
      <g transform="translate(27.240625 303.317344) scale(0.1 -0.1)">
       <use xlink:href="#DejaVuSans-30"/>
      </g>
     </g>
    </g>
    <g id="ytick_2">
     <g id="line2d_11">
      <g>
       <use xlink:href="#m1eb8258696" x="40.603125" y="253.719209" style="stroke: #000000; stroke-width: 0.8"/>
      </g>
     </g>
     <g id="text_12">
      <!-- 2 -->
      <g transform="translate(27.240625 257.518428) scale(0.1 -0.1)">
       <use xlink:href="#DejaVuSans-32"/>
      </g>
     </g>
    </g>
    <g id="ytick_3">
     <g id="line2d_12">
      <g>
       <use xlink:href="#m1eb8258696" x="40.603125" y="207.920293" style="stroke: #000000; stroke-width: 0.8"/>
      </g>
     </g>
     <g id="text_13">
      <!-- 4 -->
      <g transform="translate(27.240625 211.719512) scale(0.1 -0.1)">
       <use xlink:href="#DejaVuSans-34"/>
      </g>
     </g>
    </g>
    <g id="ytick_4">
     <g id="line2d_13">
      <g>
       <use xlink:href="#m1eb8258696" x="40.603125" y="162.121377" style="stroke: #000000; stroke-width: 0.8"/>
      </g>
     </g>
     <g id="text_14">
      <!-- 6 -->
      <g transform="translate(27.240625 165.920596) scale(0.1 -0.1)">
       <use xlink:href="#DejaVuSans-36"/>
      </g>
     </g>
    </g>
    <g id="ytick_5">
     <g id="line2d_14">
      <g>
       <use xlink:href="#m1eb8258696" x="40.603125" y="116.322461" style="stroke: #000000; stroke-width: 0.8"/>
      </g>
     </g>
     <g id="text_15">
      <!-- 8 -->
      <g transform="translate(27.240625 120.12168) scale(0.1 -0.1)">
       <defs>
        <path id="DejaVuSans-38" d="M 2034 2216 
Q 1584 2216 1326 1975 
Q 1069 1734 1069 1313 
Q 1069 891 1326 650 
Q 1584 409 2034 409 
Q 2484 409 2743 651 
Q 3003 894 3003 1313 
Q 3003 1734 2745 1975 
Q 2488 2216 2034 2216 
z
M 1403 2484 
Q 997 2584 770 2862 
Q 544 3141 544 3541 
Q 544 4100 942 4425 
Q 1341 4750 2034 4750 
Q 2731 4750 3128 4425 
Q 3525 4100 3525 3541 
Q 3525 3141 3298 2862 
Q 3072 2584 2669 2484 
Q 3125 2378 3379 2068 
Q 3634 1759 3634 1313 
Q 3634 634 3220 271 
Q 2806 -91 2034 -91 
Q 1263 -91 848 271 
Q 434 634 434 1313 
Q 434 1759 690 2068 
Q 947 2378 1403 2484 
z
M 1172 3481 
Q 1172 3119 1398 2916 
Q 1625 2713 2034 2713 
Q 2441 2713 2670 2916 
Q 2900 3119 2900 3481 
Q 2900 3844 2670 4047 
Q 2441 4250 2034 4250 
Q 1625 4250 1398 4047 
Q 1172 3844 1172 3481 
z
" transform="scale(0.015625)"/>
       </defs>
       <use xlink:href="#DejaVuSans-38"/>
      </g>
     </g>
    </g>
    <g id="ytick_6">
     <g id="line2d_15">
      <g>
       <use xlink:href="#m1eb8258696" x="40.603125" y="70.523545" style="stroke: #000000; stroke-width: 0.8"/>
      </g>
     </g>
     <g id="text_16">
      <!-- 10 -->
      <g transform="translate(20.878125 74.322764) scale(0.1 -0.1)">
       <defs>
        <path id="DejaVuSans-31" d="M 794 531 
L 1825 531 
L 1825 4091 
L 703 3866 
L 703 4441 
L 1819 4666 
L 2450 4666 
L 2450 531 
L 3481 531 
L 3481 0 
L 794 0 
L 794 531 
z
" transform="scale(0.015625)"/>
       </defs>
       <use xlink:href="#DejaVuSans-31"/>
       <use xlink:href="#DejaVuSans-30" x="63.623047"/>
      </g>
     </g>
    </g>
    <g id="ytick_7">
     <g id="line2d_16">
      <g>
       <use xlink:href="#m1eb8258696" x="40.603125" y="24.724629" style="stroke: #000000; stroke-width: 0.8"/>
      </g>
     </g>
     <g id="text_17">
      <!-- 12 -->
      <g transform="translate(20.878125 28.523848) scale(0.1 -0.1)">
       <use xlink:href="#DejaVuSans-31"/>
       <use xlink:href="#DejaVuSans-32" x="63.623047"/>
      </g>
     </g>
    </g>
    <g id="text_18">
     <!-- Density -->
     <g transform="translate(14.798438 179.926719) rotate(-90) scale(0.1 -0.1)">
      <defs>
       <path id="DejaVuSans-44" d="M 1259 4147 
L 1259 519 
L 2022 519 
Q 2988 519 3436 956 
Q 3884 1394 3884 2338 
Q 3884 3275 3436 3711 
Q 2988 4147 2022 4147 
L 1259 4147 
z
M 628 4666 
L 1925 4666 
Q 3281 4666 3915 4102 
Q 4550 3538 4550 2338 
Q 4550 1131 3912 565 
Q 3275 0 1925 0 
L 628 0 
L 628 4666 
z
" transform="scale(0.015625)"/>
      </defs>
      <use xlink:href="#DejaVuSans-44"/>
      <use xlink:href="#DejaVuSans-65" x="77.001953"/>
      <use xlink:href="#DejaVuSans-6e" x="138.525391"/>
      <use xlink:href="#DejaVuSans-73" x="201.904297"/>
      <use xlink:href="#DejaVuSans-69" x="254.003906"/>
      <use xlink:href="#DejaVuSans-74" x="281.787109"/>
      <use xlink:href="#DejaVuSans-79" x="320.996094"/>
     </g>
    </g>
   </g>
   <g id="patch_3">
    <path d="M 40.603125 299.518125 
L 40.603125 22.318125 
" style="fill: none; stroke: #000000; stroke-width: 0.8; stroke-linejoin: miter; stroke-linecap: square"/>
   </g>
   <g id="patch_4">
    <path d="M 487.003125 299.518125 
L 487.003125 22.318125 
" style="fill: none; stroke: #000000; stroke-width: 0.8; stroke-linejoin: miter; stroke-linecap: square"/>
   </g>
   <g id="patch_5">
    <path d="M 40.603125 299.518125 
L 487.003125 299.518125 
" style="fill: none; stroke: #000000; stroke-width: 0.8; stroke-linejoin: miter; stroke-linecap: square"/>
   </g>
   <g id="patch_6">
    <path d="M 40.603125 22.318125 
L 487.003125 22.318125 
" style="fill: none; stroke: #000000; stroke-width: 0.8; stroke-linejoin: miter; stroke-linecap: square"/>
   </g>
   <g id="text_19">
    <!-- Distribution of Propensity Scores by Treatment Group -->
    <g transform="translate(103.985625 16.318125) scale(0.12 -0.12)">
     <defs>
      <path id="DejaVuSans-62" d="M 3116 1747 
Q 3116 2381 2855 2742 
Q 2594 3103 2138 3103 
Q 1681 3103 1420 2742 
Q 1159 2381 1159 1747 
Q 1159 1113 1420 752 
Q 1681 391 2138 391 
Q 2594 391 2855 752 
Q 3116 1113 3116 1747 
z
M 1159 2969 
Q 1341 3281 1617 3432 
Q 1894 3584 2278 3584 
Q 2916 3584 3314 3078 
Q 3713 2572 3713 1747 
Q 3713 922 3314 415 
Q 2916 -91 2278 -91 
Q 1894 -91 1617 61 
Q 1341 213 1159 525 
L 1159 0 
L 581 0 
L 581 4863 
L 1159 4863 
L 1159 2969 
z
" transform="scale(0.015625)"/>
      <path id="DejaVuSans-75" d="M 544 1381 
L 544 3500 
L 1119 3500 
L 1119 1403 
Q 1119 906 1312 657 
Q 1506 409 1894 409 
Q 2359 409 2629 706 
Q 2900 1003 2900 1516 
L 2900 3500 
L 3475 3500 
L 3475 0 
L 2900 0 
L 2900 538 
Q 2691 219 2414 64 
Q 2138 -91 1772 -91 
Q 1169 -91 856 284 
Q 544 659 544 1381 
z
M 1991 3584 
L 1991 3584 
z
" transform="scale(0.015625)"/>
      <path id="DejaVuSans-66" d="M 2375 4863 
L 2375 4384 
L 1825 4384 
Q 1516 4384 1395 4259 
Q 1275 4134 1275 3809 
L 1275 3500 
L 2222 3500 
L 2222 3053 
L 1275 3053 
L 1275 0 
L 697 0 
L 697 3053 
L 147 3053 
L 147 3500 
L 697 3500 
L 697 3744 
Q 697 4328 969 4595 
Q 1241 4863 1831 4863 
L 2375 4863 
z
" transform="scale(0.015625)"/>
      <path id="DejaVuSans-54" d="M -19 4666 
L 3928 4666 
L 3928 4134 
L 2272 4134 
L 2272 0 
L 1638 0 
L 1638 4134 
L -19 4134 
L -19 4666 
z
" transform="scale(0.015625)"/>
      <path id="DejaVuSans-47" d="M 3809 666 
L 3809 1919 
L 2778 1919 
L 2778 2438 
L 4434 2438 
L 4434 434 
Q 4069 175 3628 42 
Q 3188 -91 2688 -91 
Q 1594 -91 976 548 
Q 359 1188 359 2328 
Q 359 3472 976 4111 
Q 1594 4750 2688 4750 
Q 3144 4750 3555 4637 
Q 3966 4525 4313 4306 
L 4313 3634 
Q 3963 3931 3569 4081 
Q 3175 4231 2741 4231 
Q 1884 4231 1454 3753 
Q 1025 3275 1025 2328 
Q 1025 1384 1454 906 
Q 1884 428 2741 428 
Q 3075 428 3337 486 
Q 3600 544 3809 666 
z
" transform="scale(0.015625)"/>
     </defs>
     <use xlink:href="#DejaVuSans-44"/>
     <use xlink:href="#DejaVuSans-69" x="77.001953"/>
     <use xlink:href="#DejaVuSans-73" x="104.785156"/>
     <use xlink:href="#DejaVuSans-74" x="156.884766"/>
     <use xlink:href="#DejaVuSans-72" x="196.09375"/>
     <use xlink:href="#DejaVuSans-69" x="237.207031"/>
     <use xlink:href="#DejaVuSans-62" x="264.990234"/>
     <use xlink:href="#DejaVuSans-75" x="328.466797"/>
     <use xlink:href="#DejaVuSans-74" x="391.845703"/>
     <use xlink:href="#DejaVuSans-69" x="431.054688"/>
     <use xlink:href="#DejaVuSans-6f" x="458.837891"/>
     <use xlink:href="#DejaVuSans-6e" x="520.019531"/>
     <use xlink:href="#DejaVuSans-20" x="583.398438"/>
     <use xlink:href="#DejaVuSans-6f" x="615.185547"/>
     <use xlink:href="#DejaVuSans-66" x="676.367188"/>
     <use xlink:href="#DejaVuSans-20" x="711.572266"/>
     <use xlink:href="#DejaVuSans-50" x="743.359375"/>
     <use xlink:href="#DejaVuSans-72" x="801.912109"/>
     <use xlink:href="#DejaVuSans-6f" x="840.775391"/>
     <use xlink:href="#DejaVuSans-70" x="901.957031"/>
     <use xlink:href="#DejaVuSans-65" x="965.433594"/>
     <use xlink:href="#DejaVuSans-6e" x="1026.957031"/>
     <use xlink:href="#DejaVuSans-73" x="1090.335938"/>
     <use xlink:href="#DejaVuSans-69" x="1142.435547"/>
     <use xlink:href="#DejaVuSans-74" x="1170.21875"/>
     <use xlink:href="#DejaVuSans-79" x="1209.427734"/>
     <use xlink:href="#DejaVuSans-20" x="1268.607422"/>
     <use xlink:href="#DejaVuSans-53" x="1300.394531"/>
     <use xlink:href="#DejaVuSans-63" x="1363.871094"/>
     <use xlink:href="#DejaVuSans-6f" x="1418.851562"/>
     <use xlink:href="#DejaVuSans-72" x="1480.033203"/>
     <use xlink:href="#DejaVuSans-65" x="1518.896484"/>
     <use xlink:href="#DejaVuSans-73" x="1580.419922"/>
     <use xlink:href="#DejaVuSans-20" x="1632.519531"/>
     <use xlink:href="#DejaVuSans-62" x="1664.306641"/>
     <use xlink:href="#DejaVuSans-79" x="1727.783203"/>
     <use xlink:href="#DejaVuSans-20" x="1786.962891"/>
     <use xlink:href="#DejaVuSans-54" x="1818.75"/>
     <use xlink:href="#DejaVuSans-72" x="1865.083984"/>
     <use xlink:href="#DejaVuSans-65" x="1903.947266"/>
     <use xlink:href="#DejaVuSans-61" x="1965.470703"/>
     <use xlink:href="#DejaVuSans-74" x="2026.75"/>
     <use xlink:href="#DejaVuSans-6d" x="2065.958984"/>
     <use xlink:href="#DejaVuSans-65" x="2163.371094"/>
     <use xlink:href="#DejaVuSans-6e" x="2224.894531"/>
     <use xlink:href="#DejaVuSans-74" x="2288.273438"/>
     <use xlink:href="#DejaVuSans-20" x="2327.482422"/>
     <use xlink:href="#DejaVuSans-47" x="2359.269531"/>
     <use xlink:href="#DejaVuSans-72" x="2436.759766"/>
     <use xlink:href="#DejaVuSans-6f" x="2475.623047"/>
     <use xlink:href="#DejaVuSans-75" x="2536.804688"/>
     <use xlink:href="#DejaVuSans-70" x="2600.183594"/>
    </g>
   </g>
   <g id="legend_1">
    <g id="patch_7">
     <path d="M 410.78125 59.674375 
L 480.003125 59.674375 
Q 482.003125 59.674375 482.003125 57.674375 
L 482.003125 29.318125 
Q 482.003125 27.318125 480.003125 27.318125 
L 410.78125 27.318125 
Q 408.78125 27.318125 408.78125 29.318125 
L 408.78125 57.674375 
Q 408.78125 59.674375 410.78125 59.674375 
z
" style="fill: #ffffff; opacity: 0.8; stroke: #cccccc; stroke-linejoin: miter"/>
    </g>
    <g id="patch_8">
     <path d="M 412.78125 38.916562 
L 432.78125 38.916562 
L 432.78125 31.916562 
L 412.78125 31.916562 
z
" style="fill: #fa8072; fill-opacity: 0.25; stroke: #fa8072; stroke-linejoin: miter"/>
    </g>
    <g id="text_20">
     <!-- Treated -->
     <g transform="translate(440.78125 38.916562) scale(0.1 -0.1)">
      <use xlink:href="#DejaVuSans-54"/>
      <use xlink:href="#DejaVuSans-72" x="46.333984"/>
      <use xlink:href="#DejaVuSans-65" x="85.197266"/>
      <use xlink:href="#DejaVuSans-61" x="146.720703"/>
      <use xlink:href="#DejaVuSans-74" x="208"/>
      <use xlink:href="#DejaVuSans-65" x="247.208984"/>
      <use xlink:href="#DejaVuSans-64" x="308.732422"/>
     </g>
    </g>
    <g id="patch_9">
     <path d="M 412.78125 53.594688 
L 432.78125 53.594688 
L 432.78125 46.594688 
L 412.78125 46.594688 
z
" style="fill: #87ceeb; fill-opacity: 0.25; stroke: #87ceeb; stroke-linejoin: miter"/>
    </g>
    <g id="text_21">
     <!-- Control -->
     <g transform="translate(440.78125 53.594688) scale(0.1 -0.1)">
      <defs>
       <path id="DejaVuSans-43" d="M 4122 4306 
L 4122 3641 
Q 3803 3938 3442 4084 
Q 3081 4231 2675 4231 
Q 1875 4231 1450 3742 
Q 1025 3253 1025 2328 
Q 1025 1406 1450 917 
Q 1875 428 2675 428 
Q 3081 428 3442 575 
Q 3803 722 4122 1019 
L 4122 359 
Q 3791 134 3420 21 
Q 3050 -91 2638 -91 
Q 1578 -91 968 557 
Q 359 1206 359 2328 
Q 359 3453 968 4101 
Q 1578 4750 2638 4750 
Q 3056 4750 3426 4639 
Q 3797 4528 4122 4306 
z
" transform="scale(0.015625)"/>
       <path id="DejaVuSans-6c" d="M 603 4863 
L 1178 4863 
L 1178 0 
L 603 0 
L 603 4863 
z
" transform="scale(0.015625)"/>
      </defs>
      <use xlink:href="#DejaVuSans-43"/>
      <use xlink:href="#DejaVuSans-6f" x="69.824219"/>
      <use xlink:href="#DejaVuSans-6e" x="131.005859"/>
      <use xlink:href="#DejaVuSans-74" x="194.384766"/>
      <use xlink:href="#DejaVuSans-72" x="233.59375"/>
      <use xlink:href="#DejaVuSans-6f" x="272.457031"/>
      <use xlink:href="#DejaVuSans-6c" x="333.638672"/>
     </g>
    </g>
   </g>
  </g>
 </g>
 <defs>
  <clipPath id="p01e5bab10d">
   <rect x="40.603125" y="22.318125" width="446.4" height="277.2"/>
  </clipPath>
 </defs>
</svg>
