<?xml version="1.0" encoding="utf-8" standalone="no"?>
<!DOCTYPE svg PUBLIC "-//W3C//DTD SVG 1.1//EN"
  "http://www.w3.org/Graphics/SVG/1.1/DTD/svg11.dtd">
<svg xmlns:xlink="http://www.w3.org/1999/xlink" width="730.128125pt" height="337.074375pt" viewBox="0 0 730.128125 337.074375" xmlns="http://www.w3.org/2000/svg" version="1.1">
 <metadata>
  <rdf:RDF xmlns:dc="http://purl.org/dc/elements/1.1/" xmlns:cc="http://creativecommons.org/ns#" xmlns:rdf="http://www.w3.org/1999/02/22-rdf-syntax-ns#">
   <cc:Work>
    <dc:type rdf:resource="http://purl.org/dc/dcmitype/StillImage"/>
    <dc:date>2025-03-31T21:35:59.690455</dc:date>
    <dc:format>image/svg+xml</dc:format>
    <dc:creator>
     <cc:Agent>
      <dc:title>Matplotlib v3.9.2, https://matplotlib.org/</dc:title>
     </cc:Agent>
    </dc:creator>
   </cc:Work>
  </rdf:RDF>
 </metadata>
 <defs>
  <style type="text/css">*{stroke-linejoin: round; stroke-linecap: butt}</style>
 </defs>
 <g id="figure_1">
  <g id="patch_1">
   <path d="M 0 337.074375 
L 730.128125 337.074375 
L 730.128125 0 
L 0 0 
z
" style="fill: #ffffff"/>
  </g>
  <g id="axes_1">
   <g id="patch_2">
    <path d="M 53.328125 299.518125 
L 357.691761 299.518125 
L 357.691761 22.318125 
L 53.328125 22.318125 
z
" style="fill: #ffffff"/>
   </g>
   <g id="patch_3">
    <path d="M 67.162836 299.518125 
L 76.385976 299.518125 
L 76.385976 298.199538 
L 67.162836 298.199538 
z
" clip-path="url(#pd32a54b506)" style="fill: #fa8072; fill-opacity: 0.5; stroke: #000000; stroke-width: 0.922314; stroke-linejoin: miter"/>
   </g>
   <g id="patch_4">
    <path d="M 76.385976 299.518125 
L 85.609117 299.518125 
L 85.609117 291.606602 
L 76.385976 291.606602 
z
" clip-path="url(#pd32a54b506)" style="fill: #fa8072; fill-opacity: 0.5; stroke: #000000; stroke-width: 0.922314; stroke-linejoin: miter"/>
   </g>
   <g id="patch_5">
    <path d="M 85.609117 299.518125 
L 94.832257 299.518125 
L 94.832257 275.971925 
L 85.609117 275.971925 
z
" clip-path="url(#pd32a54b506)" style="fill: #fa8072; fill-opacity: 0.5; stroke: #000000; stroke-width: 0.922314; stroke-linejoin: miter"/>
   </g>
   <g id="patch_6">
    <path d="M 94.832257 299.518125 
L 104.055398 299.518125 
L 104.055398 257.134964 
L 94.832257 257.134964 
z
" clip-path="url(#pd32a54b506)" style="fill: #fa8072; fill-opacity: 0.5; stroke: #000000; stroke-width: 0.922314; stroke-linejoin: miter"/>
   </g>
   <g id="patch_7">
    <path d="M 104.055398 299.518125 
L 113.278538 299.518125 
L 113.278538 236.037568 
L 104.055398 236.037568 
z
" clip-path="url(#pd32a54b506)" style="fill: #fa8072; fill-opacity: 0.5; stroke: #000000; stroke-width: 0.922314; stroke-linejoin: miter"/>
   </g>
   <g id="patch_8">
    <path d="M 113.278538 299.518125 
L 122.501679 299.518125 
L 122.501679 223.699359 
L 113.278538 223.699359 
z
" clip-path="url(#pd32a54b506)" style="fill: #fa8072; fill-opacity: 0.5; stroke: #000000; stroke-width: 0.922314; stroke-linejoin: miter"/>
   </g>
   <g id="patch_9">
    <path d="M 122.501679 299.518125 
L 131.724819 299.518125 
L 131.724819 201.189192 
L 122.501679 201.189192 
z
" clip-path="url(#pd32a54b506)" style="fill: #fa8072; fill-opacity: 0.5; stroke: #000000; stroke-width: 0.922314; stroke-linejoin: miter"/>
   </g>
   <g id="patch_10">
    <path d="M 131.724819 299.518125 
L 140.94796 299.518125 
L 140.94796 181.975492 
L 131.724819 181.975492 
z
" clip-path="url(#pd32a54b506)" style="fill: #fa8072; fill-opacity: 0.5; stroke: #000000; stroke-width: 0.922314; stroke-linejoin: miter"/>
   </g>
   <g id="patch_11">
    <path d="M 140.94796 299.518125 
L 150.1711 299.518125 
L 150.1711 164.457119 
L 140.94796 164.457119 
z
" clip-path="url(#pd32a54b506)" style="fill: #fa8072; fill-opacity: 0.5; stroke: #000000; stroke-width: 0.922314; stroke-linejoin: miter"/>
   </g>
   <g id="patch_12">
    <path d="M 150.1711 299.518125 
L 159.394241 299.518125 
L 159.394241 144.772495 
L 150.1711 144.772495 
z
" clip-path="url(#pd32a54b506)" style="fill: #fa8072; fill-opacity: 0.5; stroke: #000000; stroke-width: 0.922314; stroke-linejoin: miter"/>
   </g>
   <g id="patch_13">
    <path d="M 159.394241 299.518125 
L 168.617381 299.518125 
L 168.617381 125.464611 
L 159.394241 125.464611 
z
" clip-path="url(#pd32a54b506)" style="fill: #fa8072; fill-opacity: 0.5; stroke: #000000; stroke-width: 0.922314; stroke-linejoin: miter"/>
   </g>
   <g id="patch_14">
    <path d="M 168.617381 299.518125 
L 177.840522 299.518125 
L 177.840522 98.998682 
L 168.617381 98.998682 
z
" clip-path="url(#pd32a54b506)" style="fill: #fa8072; fill-opacity: 0.5; stroke: #000000; stroke-width: 0.922314; stroke-linejoin: miter"/>
   </g>
   <g id="patch_15">
    <path d="M 177.840522 299.518125 
L 187.063662 299.518125 
L 187.063662 72.626937 
L 177.840522 72.626937 
z
" clip-path="url(#pd32a54b506)" style="fill: #fa8072; fill-opacity: 0.5; stroke: #000000; stroke-width: 0.922314; stroke-linejoin: miter"/>
   </g>
   <g id="patch_16">
    <path d="M 187.063662 299.518125 
L 196.286803 299.518125 
L 196.286803 64.997968 
L 187.063662 64.997968 
z
" clip-path="url(#pd32a54b506)" style="fill: #fa8072; fill-opacity: 0.5; stroke: #000000; stroke-width: 0.922314; stroke-linejoin: miter"/>
   </g>
   <g id="patch_17">
    <path d="M 196.286803 299.518125 
L 205.509943 299.518125 
L 205.509943 58.970141 
L 196.286803 58.970141 
z
" clip-path="url(#pd32a54b506)" style="fill: #fa8072; fill-opacity: 0.5; stroke: #000000; stroke-width: 0.922314; stroke-linejoin: miter"/>
   </g>
   <g id="patch_18">
    <path d="M 205.509943 299.518125 
L 214.733084 299.518125 
L 214.733084 50.870248 
L 205.509943 50.870248 
z
" clip-path="url(#pd32a54b506)" style="fill: #fa8072; fill-opacity: 0.5; stroke: #000000; stroke-width: 0.922314; stroke-linejoin: miter"/>
   </g>
   <g id="patch_19">
    <path d="M 214.733084 299.518125 
L 223.956224 299.518125 
L 223.956224 58.687586 
L 214.733084 58.687586 
z
" clip-path="url(#pd32a54b506)" style="fill: #fa8072; fill-opacity: 0.5; stroke: #000000; stroke-width: 0.922314; stroke-linejoin: miter"/>
   </g>
   <g id="patch_20">
    <path d="M 223.956224 299.518125 
L 233.179365 299.518125 
L 233.179365 70.178132 
L 223.956224 70.178132 
z
" clip-path="url(#pd32a54b506)" style="fill: #fa8072; fill-opacity: 0.5; stroke: #000000; stroke-width: 0.922314; stroke-linejoin: miter"/>
   </g>
   <g id="patch_21">
    <path d="M 233.179365 299.518125 
L 242.402505 299.518125 
L 242.402505 96.549877 
L 233.179365 96.549877 
z
" clip-path="url(#pd32a54b506)" style="fill: #fa8072; fill-opacity: 0.5; stroke: #000000; stroke-width: 0.922314; stroke-linejoin: miter"/>
   </g>
   <g id="patch_22">
    <path d="M 242.402505 299.518125 
L 251.625646 299.518125 
L 251.625646 99.092866 
L 242.402505 99.092866 
z
" clip-path="url(#pd32a54b506)" style="fill: #fa8072; fill-opacity: 0.5; stroke: #000000; stroke-width: 0.922314; stroke-linejoin: miter"/>
   </g>
   <g id="patch_23">
    <path d="M 251.625646 299.518125 
L 260.848786 299.518125 
L 260.848786 127.536677 
L 251.625646 127.536677 
z
" clip-path="url(#pd32a54b506)" style="fill: #fa8072; fill-opacity: 0.5; stroke: #000000; stroke-width: 0.922314; stroke-linejoin: miter"/>
   </g>
   <g id="patch_24">
    <path d="M 260.848786 299.518125 
L 270.071927 299.518125 
L 270.071927 146.373637 
L 260.848786 146.373637 
z
" clip-path="url(#pd32a54b506)" style="fill: #fa8072; fill-opacity: 0.5; stroke: #000000; stroke-width: 0.922314; stroke-linejoin: miter"/>
   </g>
   <g id="patch_25">
    <path d="M 270.071927 299.518125 
L 279.295067 299.518125 
L 279.295067 166.435 
L 270.071927 166.435 
z
" clip-path="url(#pd32a54b506)" style="fill: #fa8072; fill-opacity: 0.5; stroke: #000000; stroke-width: 0.922314; stroke-linejoin: miter"/>
   </g>
   <g id="patch_26">
    <path d="M 279.295067 299.518125 
L 288.518208 299.518125 
L 288.518208 187.720765 
L 279.295067 187.720765 
z
" clip-path="url(#pd32a54b506)" style="fill: #fa8072; fill-opacity: 0.5; stroke: #000000; stroke-width: 0.922314; stroke-linejoin: miter"/>
   </g>
   <g id="patch_27">
    <path d="M 288.518208 299.518125 
L 297.741348 299.518125 
L 297.741348 200.153159 
L 288.518208 200.153159 
z
" clip-path="url(#pd32a54b506)" style="fill: #fa8072; fill-opacity: 0.5; stroke: #000000; stroke-width: 0.922314; stroke-linejoin: miter"/>
   </g>
   <g id="patch_28">
    <path d="M 297.741348 299.518125 
L 306.964489 299.518125 
L 306.964489 224.735392 
L 297.741348 224.735392 
z
" clip-path="url(#pd32a54b506)" style="fill: #fa8072; fill-opacity: 0.5; stroke: #000000; stroke-width: 0.922314; stroke-linejoin: miter"/>
   </g>
   <g id="patch_29">
    <path d="M 306.964489 299.518125 
L 316.187629 299.518125 
L 316.187629 248.940886 
L 306.964489 248.940886 
z
" clip-path="url(#pd32a54b506)" style="fill: #fa8072; fill-opacity: 0.5; stroke: #000000; stroke-width: 0.922314; stroke-linejoin: miter"/>
   </g>
   <g id="patch_30">
    <path d="M 316.187629 299.518125 
L 325.41077 299.518125 
L 325.41077 272.769641 
L 316.187629 272.769641 
z
" clip-path="url(#pd32a54b506)" style="fill: #fa8072; fill-opacity: 0.5; stroke: #000000; stroke-width: 0.922314; stroke-linejoin: miter"/>
   </g>
   <g id="patch_31">
    <path d="M 325.41077 299.518125 
L 334.63391 299.518125 
L 334.63391 289.251982 
L 325.41077 289.251982 
z
" clip-path="url(#pd32a54b506)" style="fill: #fa8072; fill-opacity: 0.5; stroke: #000000; stroke-width: 0.922314; stroke-linejoin: miter"/>
   </g>
   <g id="patch_32">
    <path d="M 334.63391 299.518125 
L 343.857051 299.518125 
L 343.857051 298.293723 
L 334.63391 298.293723 
z
" clip-path="url(#pd32a54b506)" style="fill: #fa8072; fill-opacity: 0.5; stroke: #000000; stroke-width: 0.922314; stroke-linejoin: miter"/>
   </g>
   <g id="patch_33">
    <path d="M 67.162836 299.518125 
L 76.385976 299.518125 
L 76.385976 296.786766 
L 67.162836 296.786766 
z
" clip-path="url(#pd32a54b506)" style="fill: #87ceeb; fill-opacity: 0.5; stroke: #000000; stroke-width: 0.922314; stroke-linejoin: miter"/>
   </g>
   <g id="patch_34">
    <path d="M 76.385976 299.518125 
L 85.609117 299.518125 
L 85.609117 286.049698 
L 76.385976 286.049698 
z
" clip-path="url(#pd32a54b506)" style="fill: #87ceeb; fill-opacity: 0.5; stroke: #000000; stroke-width: 0.922314; stroke-linejoin: miter"/>
   </g>
   <g id="patch_35">
    <path d="M 85.609117 299.518125 
L 94.832257 299.518125 
L 94.832257 267.966216 
L 85.609117 267.966216 
z
" clip-path="url(#pd32a54b506)" style="fill: #87ceeb; fill-opacity: 0.5; stroke: #000000; stroke-width: 0.922314; stroke-linejoin: miter"/>
   </g>
   <g id="patch_36">
    <path d="M 94.832257 299.518125 
L 104.055398 299.518125 
L 104.055398 242.159581 
L 94.832257 242.159581 
z
" clip-path="url(#pd32a54b506)" style="fill: #87ceeb; fill-opacity: 0.5; stroke: #000000; stroke-width: 0.922314; stroke-linejoin: miter"/>
   </g>
   <g id="patch_37">
    <path d="M 104.055398 299.518125 
L 113.278538 299.518125 
L 113.278538 220.402891 
L 104.055398 220.402891 
z
" clip-path="url(#pd32a54b506)" style="fill: #87ceeb; fill-opacity: 0.5; stroke: #000000; stroke-width: 0.922314; stroke-linejoin: miter"/>
   </g>
   <g id="patch_38">
    <path d="M 113.278538 299.518125 
L 122.501679 299.518125 
L 122.501679 198.552017 
L 113.278538 198.552017 
z
" clip-path="url(#pd32a54b506)" style="fill: #87ceeb; fill-opacity: 0.5; stroke: #000000; stroke-width: 0.922314; stroke-linejoin: miter"/>
   </g>
   <g id="patch_39">
    <path d="M 122.501679 299.518125 
L 131.724819 299.518125 
L 131.724819 179.526687 
L 122.501679 179.526687 
z
" clip-path="url(#pd32a54b506)" style="fill: #87ceeb; fill-opacity: 0.5; stroke: #000000; stroke-width: 0.922314; stroke-linejoin: miter"/>
   </g>
   <g id="patch_40">
    <path d="M 131.724819 299.518125 
L 140.94796 299.518125 
L 140.94796 156.82815 
L 131.724819 156.82815 
z
" clip-path="url(#pd32a54b506)" style="fill: #87ceeb; fill-opacity: 0.5; stroke: #000000; stroke-width: 0.922314; stroke-linejoin: miter"/>
   </g>
   <g id="patch_41">
    <path d="M 140.94796 299.518125 
L 150.1711 299.518125 
L 150.1711 136.578418 
L 140.94796 136.578418 
z
" clip-path="url(#pd32a54b506)" style="fill: #87ceeb; fill-opacity: 0.5; stroke: #000000; stroke-width: 0.922314; stroke-linejoin: miter"/>
   </g>
   <g id="patch_42">
    <path d="M 150.1711 299.518125 
L 159.394241 299.518125 
L 159.394241 123.29836 
L 150.1711 123.29836 
z
" clip-path="url(#pd32a54b506)" style="fill: #87ceeb; fill-opacity: 0.5; stroke: #000000; stroke-width: 0.922314; stroke-linejoin: miter"/>
   </g>
   <g id="patch_43">
    <path d="M 159.394241 299.518125 
L 168.617381 299.518125 
L 168.617381 100.788193 
L 159.394241 100.788193 
z
" clip-path="url(#pd32a54b506)" style="fill: #87ceeb; fill-opacity: 0.5; stroke: #000000; stroke-width: 0.922314; stroke-linejoin: miter"/>
   </g>
   <g id="patch_44">
    <path d="M 168.617381 299.518125 
L 177.840522 299.518125 
L 177.840522 83.929113 
L 168.617381 83.929113 
z
" clip-path="url(#pd32a54b506)" style="fill: #87ceeb; fill-opacity: 0.5; stroke: #000000; stroke-width: 0.922314; stroke-linejoin: miter"/>
   </g>
   <g id="patch_45">
    <path d="M 177.840522 299.518125 
L 187.063662 299.518125 
L 187.063662 69.613023 
L 177.840522 69.613023 
z
" clip-path="url(#pd32a54b506)" style="fill: #87ceeb; fill-opacity: 0.5; stroke: #000000; stroke-width: 0.922314; stroke-linejoin: miter"/>
   </g>
   <g id="patch_46">
    <path d="M 187.063662 299.518125 
L 196.286803 299.518125 
L 196.286803 62.266609 
L 187.063662 62.266609 
z
" clip-path="url(#pd32a54b506)" style="fill: #87ceeb; fill-opacity: 0.5; stroke: #000000; stroke-width: 0.922314; stroke-linejoin: miter"/>
   </g>
   <g id="patch_47">
    <path d="M 196.286803 299.518125 
L 205.509943 299.518125 
L 205.509943 35.518125 
L 196.286803 35.518125 
z
" clip-path="url(#pd32a54b506)" style="fill: #87ceeb; fill-opacity: 0.5; stroke: #000000; stroke-width: 0.922314; stroke-linejoin: miter"/>
   </g>
   <g id="patch_48">
    <path d="M 205.509943 299.518125 
L 214.733084 299.518125 
L 214.733084 49.55166 
L 205.509943 49.55166 
z
" clip-path="url(#pd32a54b506)" style="fill: #87ceeb; fill-opacity: 0.5; stroke: #000000; stroke-width: 0.922314; stroke-linejoin: miter"/>
   </g>
   <g id="patch_49">
    <path d="M 214.733084 299.518125 
L 223.956224 299.518125 
L 223.956224 66.316555 
L 214.733084 66.316555 
z
" clip-path="url(#pd32a54b506)" style="fill: #87ceeb; fill-opacity: 0.5; stroke: #000000; stroke-width: 0.922314; stroke-linejoin: miter"/>
   </g>
   <g id="patch_50">
    <path d="M 223.956224 299.518125 
L 233.179365 299.518125 
L 233.179365 85.530255 
L 223.956224 85.530255 
z
" clip-path="url(#pd32a54b506)" style="fill: #87ceeb; fill-opacity: 0.5; stroke: #000000; stroke-width: 0.922314; stroke-linejoin: miter"/>
   </g>
   <g id="patch_51">
    <path d="M 233.179365 299.518125 
L 242.402505 299.518125 
L 242.402505 104.743954 
L 233.179365 104.743954 
z
" clip-path="url(#pd32a54b506)" style="fill: #87ceeb; fill-opacity: 0.5; stroke: #000000; stroke-width: 0.922314; stroke-linejoin: miter"/>
   </g>
   <g id="patch_52">
    <path d="M 242.402505 299.518125 
L 251.625646 299.518125 
L 251.625646 122.168143 
L 242.402505 122.168143 
z
" clip-path="url(#pd32a54b506)" style="fill: #87ceeb; fill-opacity: 0.5; stroke: #000000; stroke-width: 0.922314; stroke-linejoin: miter"/>
   </g>
   <g id="patch_53">
    <path d="M 251.625646 299.518125 
L 260.848786 299.518125 
L 260.848786 145.808528 
L 251.625646 145.808528 
z
" clip-path="url(#pd32a54b506)" style="fill: #87ceeb; fill-opacity: 0.5; stroke: #000000; stroke-width: 0.922314; stroke-linejoin: miter"/>
   </g>
   <g id="patch_54">
    <path d="M 260.848786 299.518125 
L 270.071927 299.518125 
L 270.071927 163.044347 
L 260.848786 163.044347 
z
" clip-path="url(#pd32a54b506)" style="fill: #87ceeb; fill-opacity: 0.5; stroke: #000000; stroke-width: 0.922314; stroke-linejoin: miter"/>
   </g>
   <g id="patch_55">
    <path d="M 270.071927 299.518125 
L 279.295067 299.518125 
L 279.295067 185.742884 
L 270.071927 185.742884 
z
" clip-path="url(#pd32a54b506)" style="fill: #87ceeb; fill-opacity: 0.5; stroke: #000000; stroke-width: 0.922314; stroke-linejoin: miter"/>
   </g>
   <g id="patch_56">
    <path d="M 279.295067 299.518125 
L 288.518208 299.518125 
L 288.518208 200.906637 
L 279.295067 200.906637 
z
" clip-path="url(#pd32a54b506)" style="fill: #87ceeb; fill-opacity: 0.5; stroke: #000000; stroke-width: 0.922314; stroke-linejoin: miter"/>
   </g>
   <g id="patch_57">
    <path d="M 288.518208 299.518125 
L 297.741348 299.518125 
L 297.741348 220.308707 
L 288.518208 220.308707 
z
" clip-path="url(#pd32a54b506)" style="fill: #87ceeb; fill-opacity: 0.5; stroke: #000000; stroke-width: 0.922314; stroke-linejoin: miter"/>
   </g>
   <g id="patch_58">
    <path d="M 297.741348 299.518125 
L 306.964489 299.518125 
L 306.964489 240.370069 
L 297.741348 240.370069 
z
" clip-path="url(#pd32a54b506)" style="fill: #87ceeb; fill-opacity: 0.5; stroke: #000000; stroke-width: 0.922314; stroke-linejoin: miter"/>
   </g>
   <g id="patch_59">
    <path d="M 306.964489 299.518125 
L 316.187629 299.518125 
L 316.187629 259.01866 
L 306.964489 259.01866 
z
" clip-path="url(#pd32a54b506)" style="fill: #87ceeb; fill-opacity: 0.5; stroke: #000000; stroke-width: 0.922314; stroke-linejoin: miter"/>
   </g>
   <g id="patch_60">
    <path d="M 316.187629 299.518125 
L 325.41077 299.518125 
L 325.41077 281.246273 
L 316.187629 281.246273 
z
" clip-path="url(#pd32a54b506)" style="fill: #87ceeb; fill-opacity: 0.5; stroke: #000000; stroke-width: 0.922314; stroke-linejoin: miter"/>
   </g>
   <g id="patch_61">
    <path d="M 325.41077 299.518125 
L 334.63391 299.518125 
L 334.63391 292.077526 
L 325.41077 292.077526 
z
" clip-path="url(#pd32a54b506)" style="fill: #87ceeb; fill-opacity: 0.5; stroke: #000000; stroke-width: 0.922314; stroke-linejoin: miter"/>
   </g>
   <g id="patch_62">
    <path d="M 334.63391 299.518125 
L 343.857051 299.518125 
L 343.857051 297.822799 
L 334.63391 297.822799 
z
" clip-path="url(#pd32a54b506)" style="fill: #87ceeb; fill-opacity: 0.5; stroke: #000000; stroke-width: 0.922314; stroke-linejoin: miter"/>
   </g>
   <g id="matplotlib.axis_1">
    <g id="xtick_1">
     <g id="line2d_1">
      <defs>
       <path id="m9a170cf079" d="M 0 0 
L 0 3.5 
" style="stroke: #000000; stroke-width: 0.8"/>
      </defs>
      <g>
       <use xlink:href="#m9a170cf079" x="91.383236" y="299.518125" style="stroke: #000000; stroke-width: 0.8"/>
      </g>
     </g>
     <g id="text_1">
      <!-- 0.425 -->
      <g transform="translate(77.069173 314.116563) scale(0.1 -0.1)">
       <defs>
        <path id="DejaVuSans-30" d="M 2034 4250 
Q 1547 4250 1301 3770 
Q 1056 3291 1056 2328 
Q 1056 1369 1301 889 
Q 1547 409 2034 409 
Q 2525 409 2770 889 
Q 3016 1369 3016 2328 
Q 3016 3291 2770 3770 
Q 2525 4250 2034 4250 
z
M 2034 4750 
Q 2819 4750 3233 4129 
Q 3647 3509 3647 2328 
Q 3647 1150 3233 529 
Q 2819 -91 2034 -91 
Q 1250 -91 836 529 
Q 422 1150 422 2328 
Q 422 3509 836 4129 
Q 1250 4750 2034 4750 
z
" transform="scale(0.015625)"/>
        <path id="DejaVuSans-2e" d="M 684 794 
L 1344 794 
L 1344 0 
L 684 0 
L 684 794 
z
" transform="scale(0.015625)"/>
        <path id="DejaVuSans-34" d="M 2419 4116 
L 825 1625 
L 2419 1625 
L 2419 4116 
z
M 2253 4666 
L 3047 4666 
L 3047 1625 
L 3713 1625 
L 3713 1100 
L 3047 1100 
L 3047 0 
L 2419 0 
L 2419 1100 
L 313 1100 
L 313 1709 
L 2253 4666 
z
" transform="scale(0.015625)"/>
        <path id="DejaVuSans-32" d="M 1228 531 
L 3431 531 
L 3431 0 
L 469 0 
L 469 531 
Q 828 903 1448 1529 
Q 2069 2156 2228 2338 
Q 2531 2678 2651 2914 
Q 2772 3150 2772 3378 
Q 2772 3750 2511 3984 
Q 2250 4219 1831 4219 
Q 1534 4219 1204 4116 
Q 875 4013 500 3803 
L 500 4441 
Q 881 4594 1212 4672 
Q 1544 4750 1819 4750 
Q 2544 4750 2975 4387 
Q 3406 4025 3406 3419 
Q 3406 3131 3298 2873 
Q 3191 2616 2906 2266 
Q 2828 2175 2409 1742 
Q 1991 1309 1228 531 
z
" transform="scale(0.015625)"/>
        <path id="DejaVuSans-35" d="M 691 4666 
L 3169 4666 
L 3169 4134 
L 1269 4134 
L 1269 2991 
Q 1406 3038 1543 3061 
Q 1681 3084 1819 3084 
Q 2600 3084 3056 2656 
Q 3513 2228 3513 1497 
Q 3513 744 3044 326 
Q 2575 -91 1722 -91 
Q 1428 -91 1123 -41 
Q 819 9 494 109 
L 494 744 
Q 775 591 1075 516 
Q 1375 441 1709 441 
Q 2250 441 2565 725 
Q 2881 1009 2881 1497 
Q 2881 1984 2565 2268 
Q 2250 2553 1709 2553 
Q 1456 2553 1204 2497 
Q 953 2441 691 2322 
L 691 4666 
z
" transform="scale(0.015625)"/>
       </defs>
       <use xlink:href="#DejaVuSans-30"/>
       <use xlink:href="#DejaVuSans-2e" x="63.623047"/>
       <use xlink:href="#DejaVuSans-34" x="95.410156"/>
       <use xlink:href="#DejaVuSans-32" x="159.033203"/>
       <use xlink:href="#DejaVuSans-35" x="222.65625"/>
      </g>
     </g>
    </g>
    <g id="xtick_2">
     <g id="line2d_2">
      <g>
       <use xlink:href="#m9a170cf079" x="131.207748" y="299.518125" style="stroke: #000000; stroke-width: 0.8"/>
      </g>
     </g>
     <g id="text_2">
      <!-- 0.450 -->
      <g transform="translate(116.893686 314.116563) scale(0.1 -0.1)">
       <use xlink:href="#DejaVuSans-30"/>
       <use xlink:href="#DejaVuSans-2e" x="63.623047"/>
       <use xlink:href="#DejaVuSans-34" x="95.410156"/>
       <use xlink:href="#DejaVuSans-35" x="159.033203"/>
       <use xlink:href="#DejaVuSans-30" x="222.65625"/>
      </g>
     </g>
    </g>
    <g id="xtick_3">
     <g id="line2d_3">
      <g>
       <use xlink:href="#m9a170cf079" x="171.032261" y="299.518125" style="stroke: #000000; stroke-width: 0.8"/>
      </g>
     </g>
     <g id="text_3">
      <!-- 0.475 -->
      <g transform="translate(156.718199 314.116563) scale(0.1 -0.1)">
       <defs>
        <path id="DejaVuSans-37" d="M 525 4666 
L 3525 4666 
L 3525 4397 
L 1831 0 
L 1172 0 
L 2766 4134 
L 525 4134 
L 525 4666 
z
" transform="scale(0.015625)"/>
       </defs>
       <use xlink:href="#DejaVuSans-30"/>
       <use xlink:href="#DejaVuSans-2e" x="63.623047"/>
       <use xlink:href="#DejaVuSans-34" x="95.410156"/>
       <use xlink:href="#DejaVuSans-37" x="159.033203"/>
       <use xlink:href="#DejaVuSans-35" x="222.65625"/>
      </g>
     </g>
    </g>
    <g id="xtick_4">
     <g id="line2d_4">
      <g>
       <use xlink:href="#m9a170cf079" x="210.856774" y="299.518125" style="stroke: #000000; stroke-width: 0.8"/>
      </g>
     </g>
     <g id="text_4">
      <!-- 0.500 -->
      <g transform="translate(196.542711 314.116563) scale(0.1 -0.1)">
       <use xlink:href="#DejaVuSans-30"/>
       <use xlink:href="#DejaVuSans-2e" x="63.623047"/>
       <use xlink:href="#DejaVuSans-35" x="95.410156"/>
       <use xlink:href="#DejaVuSans-30" x="159.033203"/>
       <use xlink:href="#DejaVuSans-30" x="222.65625"/>
      </g>
     </g>
    </g>
    <g id="xtick_5">
     <g id="line2d_5">
      <g>
       <use xlink:href="#m9a170cf079" x="250.681287" y="299.518125" style="stroke: #000000; stroke-width: 0.8"/>
      </g>
     </g>
     <g id="text_5">
      <!-- 0.525 -->
      <g transform="translate(236.367224 314.116563) scale(0.1 -0.1)">
       <use xlink:href="#DejaVuSans-30"/>
       <use xlink:href="#DejaVuSans-2e" x="63.623047"/>
       <use xlink:href="#DejaVuSans-35" x="95.410156"/>
       <use xlink:href="#DejaVuSans-32" x="159.033203"/>
       <use xlink:href="#DejaVuSans-35" x="222.65625"/>
      </g>
     </g>
    </g>
    <g id="xtick_6">
     <g id="line2d_6">
      <g>
       <use xlink:href="#m9a170cf079" x="290.505799" y="299.518125" style="stroke: #000000; stroke-width: 0.8"/>
      </g>
     </g>
     <g id="text_6">
      <!-- 0.550 -->
      <g transform="translate(276.191737 314.116563) scale(0.1 -0.1)">
       <use xlink:href="#DejaVuSans-30"/>
       <use xlink:href="#DejaVuSans-2e" x="63.623047"/>
       <use xlink:href="#DejaVuSans-35" x="95.410156"/>
       <use xlink:href="#DejaVuSans-35" x="159.033203"/>
       <use xlink:href="#DejaVuSans-30" x="222.65625"/>
      </g>
     </g>
    </g>
    <g id="xtick_7">
     <g id="line2d_7">
      <g>
       <use xlink:href="#m9a170cf079" x="330.330312" y="299.518125" style="stroke: #000000; stroke-width: 0.8"/>
      </g>
     </g>
     <g id="text_7">
      <!-- 0.575 -->
      <g transform="translate(316.01625 314.116563) scale(0.1 -0.1)">
       <use xlink:href="#DejaVuSans-30"/>
       <use xlink:href="#DejaVuSans-2e" x="63.623047"/>
       <use xlink:href="#DejaVuSans-35" x="95.410156"/>
       <use xlink:href="#DejaVuSans-37" x="159.033203"/>
       <use xlink:href="#DejaVuSans-35" x="222.65625"/>
      </g>
     </g>
    </g>
    <g id="text_8">
     <!-- Propensity Score -->
     <g transform="translate(163.656037 327.794688) scale(0.1 -0.1)">
      <defs>
       <path id="DejaVuSans-50" d="M 1259 4147 
L 1259 2394 
L 2053 2394 
Q 2494 2394 2734 2622 
Q 2975 2850 2975 3272 
Q 2975 3691 2734 3919 
Q 2494 4147 2053 4147 
L 1259 4147 
z
M 628 4666 
L 2053 4666 
Q 2838 4666 3239 4311 
Q 3641 3956 3641 3272 
Q 3641 2581 3239 2228 
Q 2838 1875 2053 1875 
L 1259 1875 
L 1259 0 
L 628 0 
L 628 4666 
z
" transform="scale(0.015625)"/>
       <path id="DejaVuSans-72" d="M 2631 2963 
Q 2534 3019 2420 3045 
Q 2306 3072 2169 3072 
Q 1681 3072 1420 2755 
Q 1159 2438 1159 1844 
L 1159 0 
L 581 0 
L 581 3500 
L 1159 3500 
L 1159 2956 
Q 1341 3275 1631 3429 
Q 1922 3584 2338 3584 
Q 2397 3584 2469 3576 
Q 2541 3569 2628 3553 
L 2631 2963 
z
" transform="scale(0.015625)"/>
       <path id="DejaVuSans-6f" d="M 1959 3097 
Q 1497 3097 1228 2736 
Q 959 2375 959 1747 
Q 959 1119 1226 758 
Q 1494 397 1959 397 
Q 2419 397 2687 759 
Q 2956 1122 2956 1747 
Q 2956 2369 2687 2733 
Q 2419 3097 1959 3097 
z
M 1959 3584 
Q 2709 3584 3137 3096 
Q 3566 2609 3566 1747 
Q 3566 888 3137 398 
Q 2709 -91 1959 -91 
Q 1206 -91 779 398 
Q 353 888 353 1747 
Q 353 2609 779 3096 
Q 1206 3584 1959 3584 
z
" transform="scale(0.015625)"/>
       <path id="DejaVuSans-70" d="M 1159 525 
L 1159 -1331 
L 581 -1331 
L 581 3500 
L 1159 3500 
L 1159 2969 
Q 1341 3281 1617 3432 
Q 1894 3584 2278 3584 
Q 2916 3584 3314 3078 
Q 3713 2572 3713 1747 
Q 3713 922 3314 415 
Q 2916 -91 2278 -91 
Q 1894 -91 1617 61 
Q 1341 213 1159 525 
z
M 3116 1747 
Q 3116 2381 2855 2742 
Q 2594 3103 2138 3103 
Q 1681 3103 1420 2742 
Q 1159 2381 1159 1747 
Q 1159 1113 1420 752 
Q 1681 391 2138 391 
Q 2594 391 2855 752 
Q 3116 1113 3116 1747 
z
" transform="scale(0.015625)"/>
       <path id="DejaVuSans-65" d="M 3597 1894 
L 3597 1613 
L 953 1613 
Q 991 1019 1311 708 
Q 1631 397 2203 397 
Q 2534 397 2845 478 
Q 3156 559 3463 722 
L 3463 178 
Q 3153 47 2828 -22 
Q 2503 -91 2169 -91 
Q 1331 -91 842 396 
Q 353 884 353 1716 
Q 353 2575 817 3079 
Q 1281 3584 2069 3584 
Q 2775 3584 3186 3129 
Q 3597 2675 3597 1894 
z
M 3022 2063 
Q 3016 2534 2758 2815 
Q 2500 3097 2075 3097 
Q 1594 3097 1305 2825 
Q 1016 2553 972 2059 
L 3022 2063 
z
" transform="scale(0.015625)"/>
       <path id="DejaVuSans-6e" d="M 3513 2113 
L 3513 0 
L 2938 0 
L 2938 2094 
Q 2938 2591 2744 2837 
Q 2550 3084 2163 3084 
Q 1697 3084 1428 2787 
Q 1159 2491 1159 1978 
L 1159 0 
L 581 0 
L 581 3500 
L 1159 3500 
L 1159 2956 
Q 1366 3272 1645 3428 
Q 1925 3584 2291 3584 
Q 2894 3584 3203 3211 
Q 3513 2838 3513 2113 
z
" transform="scale(0.015625)"/>
       <path id="DejaVuSans-73" d="M 2834 3397 
L 2834 2853 
Q 2591 2978 2328 3040 
Q 2066 3103 1784 3103 
Q 1356 3103 1142 2972 
Q 928 2841 928 2578 
Q 928 2378 1081 2264 
Q 1234 2150 1697 2047 
L 1894 2003 
Q 2506 1872 2764 1633 
Q 3022 1394 3022 966 
Q 3022 478 2636 193 
Q 2250 -91 1575 -91 
Q 1294 -91 989 -36 
Q 684 19 347 128 
L 347 722 
Q 666 556 975 473 
Q 1284 391 1588 391 
Q 1994 391 2212 530 
Q 2431 669 2431 922 
Q 2431 1156 2273 1281 
Q 2116 1406 1581 1522 
L 1381 1569 
Q 847 1681 609 1914 
Q 372 2147 372 2553 
Q 372 3047 722 3315 
Q 1072 3584 1716 3584 
Q 2034 3584 2315 3537 
Q 2597 3491 2834 3397 
z
" transform="scale(0.015625)"/>
       <path id="DejaVuSans-69" d="M 603 3500 
L 1178 3500 
L 1178 0 
L 603 0 
L 603 3500 
z
M 603 4863 
L 1178 4863 
L 1178 4134 
L 603 4134 
L 603 4863 
z
" transform="scale(0.015625)"/>
       <path id="DejaVuSans-74" d="M 1172 4494 
L 1172 3500 
L 2356 3500 
L 2356 3053 
L 1172 3053 
L 1172 1153 
Q 1172 725 1289 603 
Q 1406 481 1766 481 
L 2356 481 
L 2356 0 
L 1766 0 
Q 1100 0 847 248 
Q 594 497 594 1153 
L 594 3053 
L 172 3053 
L 172 3500 
L 594 3500 
L 594 4494 
L 1172 4494 
z
" transform="scale(0.015625)"/>
       <path id="DejaVuSans-79" d="M 2059 -325 
Q 1816 -950 1584 -1140 
Q 1353 -1331 966 -1331 
L 506 -1331 
L 506 -850 
L 844 -850 
Q 1081 -850 1212 -737 
Q 1344 -625 1503 -206 
L 1606 56 
L 191 3500 
L 800 3500 
L 1894 763 
L 2988 3500 
L 3597 3500 
L 2059 -325 
z
" transform="scale(0.015625)"/>
       <path id="DejaVuSans-20" transform="scale(0.015625)"/>
       <path id="DejaVuSans-53" d="M 3425 4513 
L 3425 3897 
Q 3066 4069 2747 4153 
Q 2428 4238 2131 4238 
Q 1616 4238 1336 4038 
Q 1056 3838 1056 3469 
Q 1056 3159 1242 3001 
Q 1428 2844 1947 2747 
L 2328 2669 
Q 3034 2534 3370 2195 
Q 3706 1856 3706 1288 
Q 3706 609 3251 259 
Q 2797 -91 1919 -91 
Q 1588 -91 1214 -16 
Q 841 59 441 206 
L 441 856 
Q 825 641 1194 531 
Q 1563 422 1919 422 
Q 2459 422 2753 634 
Q 3047 847 3047 1241 
Q 3047 1584 2836 1778 
Q 2625 1972 2144 2069 
L 1759 2144 
Q 1053 2284 737 2584 
Q 422 2884 422 3419 
Q 422 4038 858 4394 
Q 1294 4750 2059 4750 
Q 2388 4750 2728 4690 
Q 3069 4631 3425 4513 
z
" transform="scale(0.015625)"/>
       <path id="DejaVuSans-63" d="M 3122 3366 
L 3122 2828 
Q 2878 2963 2633 3030 
Q 2388 3097 2138 3097 
Q 1578 3097 1268 2742 
Q 959 2388 959 1747 
Q 959 1106 1268 751 
Q 1578 397 2138 397 
Q 2388 397 2633 464 
Q 2878 531 3122 666 
L 3122 134 
Q 2881 22 2623 -34 
Q 2366 -91 2075 -91 
Q 1284 -91 818 406 
Q 353 903 353 1747 
Q 353 2603 823 3093 
Q 1294 3584 2113 3584 
Q 2378 3584 2631 3529 
Q 2884 3475 3122 3366 
z
" transform="scale(0.015625)"/>
      </defs>
      <use xlink:href="#DejaVuSans-50"/>
      <use xlink:href="#DejaVuSans-72" x="58.552734"/>
      <use xlink:href="#DejaVuSans-6f" x="97.416016"/>
      <use xlink:href="#DejaVuSans-70" x="158.597656"/>
      <use xlink:href="#DejaVuSans-65" x="222.074219"/>
      <use xlink:href="#DejaVuSans-6e" x="283.597656"/>
      <use xlink:href="#DejaVuSans-73" x="346.976562"/>
      <use xlink:href="#DejaVuSans-69" x="399.076172"/>
      <use xlink:href="#DejaVuSans-74" x="426.859375"/>
      <use xlink:href="#DejaVuSans-79" x="466.068359"/>
      <use xlink:href="#DejaVuSans-20" x="525.248047"/>
      <use xlink:href="#DejaVuSans-53" x="557.035156"/>
      <use xlink:href="#DejaVuSans-63" x="620.511719"/>
      <use xlink:href="#DejaVuSans-6f" x="675.492188"/>
      <use xlink:href="#DejaVuSans-72" x="736.673828"/>
      <use xlink:href="#DejaVuSans-65" x="775.537109"/>
     </g>
    </g>
   </g>
   <g id="matplotlib.axis_2">
    <g id="ytick_1">
     <g id="line2d_8">
      <defs>
       <path id="mde80f44297" d="M 0 0 
L -3.5 0 
" style="stroke: #000000; stroke-width: 0.8"/>
      </defs>
      <g>
       <use xlink:href="#mde80f44297" x="53.328125" y="299.518125" style="stroke: #000000; stroke-width: 0.8"/>
      </g>
     </g>
     <g id="text_9">
      <!-- 0 -->
      <g transform="translate(39.965625 303.317344) scale(0.1 -0.1)">
       <use xlink:href="#DejaVuSans-30"/>
      </g>
     </g>
    </g>
    <g id="ytick_2">
     <g id="line2d_9">
      <g>
       <use xlink:href="#mde80f44297" x="53.328125" y="252.425724" style="stroke: #000000; stroke-width: 0.8"/>
      </g>
     </g>
     <g id="text_10">
      <!-- 500 -->
      <g transform="translate(27.240625 256.224943) scale(0.1 -0.1)">
       <use xlink:href="#DejaVuSans-35"/>
       <use xlink:href="#DejaVuSans-30" x="63.623047"/>
       <use xlink:href="#DejaVuSans-30" x="127.246094"/>
      </g>
     </g>
    </g>
    <g id="ytick_3">
     <g id="line2d_10">
      <g>
       <use xlink:href="#mde80f44297" x="53.328125" y="205.333323" style="stroke: #000000; stroke-width: 0.8"/>
      </g>
     </g>
     <g id="text_11">
      <!-- 1000 -->
      <g transform="translate(20.878125 209.132542) scale(0.1 -0.1)">
       <defs>
        <path id="DejaVuSans-31" d="M 794 531 
L 1825 531 
L 1825 4091 
L 703 3866 
L 703 4441 
L 1819 4666 
L 2450 4666 
L 2450 531 
L 3481 531 
L 3481 0 
L 794 0 
L 794 531 
z
" transform="scale(0.015625)"/>
       </defs>
       <use xlink:href="#DejaVuSans-31"/>
       <use xlink:href="#DejaVuSans-30" x="63.623047"/>
       <use xlink:href="#DejaVuSans-30" x="127.246094"/>
       <use xlink:href="#DejaVuSans-30" x="190.869141"/>
      </g>
     </g>
    </g>
    <g id="ytick_4">
     <g id="line2d_11">
      <g>
       <use xlink:href="#mde80f44297" x="53.328125" y="158.240922" style="stroke: #000000; stroke-width: 0.8"/>
      </g>
     </g>
     <g id="text_12">
      <!-- 1500 -->
      <g transform="translate(20.878125 162.040141) scale(0.1 -0.1)">
       <use xlink:href="#DejaVuSans-31"/>
       <use xlink:href="#DejaVuSans-35" x="63.623047"/>
       <use xlink:href="#DejaVuSans-30" x="127.246094"/>
       <use xlink:href="#DejaVuSans-30" x="190.869141"/>
      </g>
     </g>
    </g>
    <g id="ytick_5">
     <g id="line2d_12">
      <g>
       <use xlink:href="#mde80f44297" x="53.328125" y="111.148521" style="stroke: #000000; stroke-width: 0.8"/>
      </g>
     </g>
     <g id="text_13">
      <!-- 2000 -->
      <g transform="translate(20.878125 114.94774) scale(0.1 -0.1)">
       <use xlink:href="#DejaVuSans-32"/>
       <use xlink:href="#DejaVuSans-30" x="63.623047"/>
       <use xlink:href="#DejaVuSans-30" x="127.246094"/>
       <use xlink:href="#DejaVuSans-30" x="190.869141"/>
      </g>
     </g>
    </g>
    <g id="ytick_6">
     <g id="line2d_13">
      <g>
       <use xlink:href="#mde80f44297" x="53.328125" y="64.05612" style="stroke: #000000; stroke-width: 0.8"/>
      </g>
     </g>
     <g id="text_14">
      <!-- 2500 -->
      <g transform="translate(20.878125 67.855339) scale(0.1 -0.1)">
       <use xlink:href="#DejaVuSans-32"/>
       <use xlink:href="#DejaVuSans-35" x="63.623047"/>
       <use xlink:href="#DejaVuSans-30" x="127.246094"/>
       <use xlink:href="#DejaVuSans-30" x="190.869141"/>
      </g>
     </g>
    </g>
    <g id="text_15">
     <!-- Count -->
     <g transform="translate(14.798438 175.766563) rotate(-90) scale(0.1 -0.1)">
      <defs>
       <path id="DejaVuSans-43" d="M 4122 4306 
L 4122 3641 
Q 3803 3938 3442 4084 
Q 3081 4231 2675 4231 
Q 1875 4231 1450 3742 
Q 1025 3253 1025 2328 
Q 1025 1406 1450 917 
Q 1875 428 2675 428 
Q 3081 428 3442 575 
Q 3803 722 4122 1019 
L 4122 359 
Q 3791 134 3420 21 
Q 3050 -91 2638 -91 
Q 1578 -91 968 557 
Q 359 1206 359 2328 
Q 359 3453 968 4101 
Q 1578 4750 2638 4750 
Q 3056 4750 3426 4639 
Q 3797 4528 4122 4306 
z
" transform="scale(0.015625)"/>
       <path id="DejaVuSans-75" d="M 544 1381 
L 544 3500 
L 1119 3500 
L 1119 1403 
Q 1119 906 1312 657 
Q 1506 409 1894 409 
Q 2359 409 2629 706 
Q 2900 1003 2900 1516 
L 2900 3500 
L 3475 3500 
L 3475 0 
L 2900 0 
L 2900 538 
Q 2691 219 2414 64 
Q 2138 -91 1772 -91 
Q 1169 -91 856 284 
Q 544 659 544 1381 
z
M 1991 3584 
L 1991 3584 
z
" transform="scale(0.015625)"/>
      </defs>
      <use xlink:href="#DejaVuSans-43"/>
      <use xlink:href="#DejaVuSans-6f" x="69.824219"/>
      <use xlink:href="#DejaVuSans-75" x="131.005859"/>
      <use xlink:href="#DejaVuSans-6e" x="194.384766"/>
      <use xlink:href="#DejaVuSans-74" x="257.763672"/>
     </g>
    </g>
   </g>
   <g id="line2d_14">
    <path d="M 67.162836 298.536721 
L 69.943682 297.77765 
L 72.724529 296.611463 
L 74.114952 295.83663 
L 75.505375 294.913696 
L 76.895798 293.829397 
L 78.286221 292.573385 
L 79.676644 291.139459 
L 81.067068 289.526678 
L 83.847914 285.790079 
L 86.62876 281.46357 
L 89.409607 276.682765 
L 93.580876 268.884274 
L 97.752146 260.527359 
L 106.094685 243.513727 
L 110.265955 235.744005 
L 115.827647 225.781242 
L 118.608494 220.351817 
L 121.38934 214.439091 
L 131.122302 192.912011 
L 135.293572 184.591727 
L 140.855265 173.654268 
L 145.026534 165.015408 
L 151.97865 149.962674 
L 158.930766 134.382327 
L 164.492459 121.477187 
L 168.663729 111.139256 
L 177.006268 89.850869 
L 179.787114 83.290709 
L 182.567961 77.373394 
L 185.348807 72.313153 
L 186.73923 70.130799 
L 188.129653 68.171979 
L 189.520076 66.422822 
L 190.9105 64.870607 
L 192.300923 63.508549 
L 193.691346 62.337015 
L 195.081769 61.360287 
L 196.472192 60.579662 
L 197.862616 59.985315 
L 200.643462 59.229186 
L 204.814732 58.379397 
L 207.595578 57.540323 
L 210.376424 56.643102 
L 211.766848 56.337888 
L 213.157271 56.228919 
L 214.547694 56.377924 
L 215.938117 56.825385 
L 217.32854 57.587352 
L 218.718963 58.656895 
L 220.109387 60.009449 
L 221.49981 61.610721 
L 222.890233 63.42533 
L 225.671079 67.587019 
L 228.451926 72.364518 
L 231.232772 77.655102 
L 236.794465 88.534206 
L 239.575311 93.377515 
L 246.527427 104.666787 
L 249.308274 110.037788 
L 252.08912 116.108542 
L 261.822082 138.371784 
L 265.993352 147.076603 
L 274.335891 164.234948 
L 279.897584 176.269758 
L 285.459277 188.223011 
L 292.411393 202.691379 
L 296.582662 212.103274 
L 303.534778 228.439707 
L 307.706048 238.780015 
L 316.048587 260.169681 
L 318.829433 266.710768 
L 321.61028 272.775733 
L 324.391126 278.328313 
L 327.171972 283.293867 
L 329.952819 287.58457 
L 332.733665 291.150258 
L 334.124088 292.659342 
L 335.514511 293.989192 
L 336.904935 295.143898 
L 338.295358 296.128978 
L 339.685781 296.952013 
L 341.076204 297.623318 
L 342.466627 298.156263 
L 343.857051 298.567005 
L 343.857051 298.567005 
" clip-path="url(#pd32a54b506)" style="fill: none; stroke: #fa8072; stroke-width: 1.5; stroke-linecap: square"/>
   </g>
   <g id="line2d_15">
    <path d="M 67.162836 297.665205 
L 68.553259 297.081406 
L 69.943682 296.368639 
L 71.334105 295.511005 
L 72.724529 294.493097 
L 74.114952 293.300965 
L 75.505375 291.923394 
L 76.895798 290.353362 
L 78.286221 288.589356 
L 81.067068 284.503937 
L 83.847914 279.761511 
L 86.62876 274.463963 
L 89.409607 268.625099 
L 92.190453 262.16958 
L 94.9713 255.07028 
L 103.313839 232.741524 
L 106.094685 226.229725 
L 115.827647 204.866437 
L 126.951033 178.642754 
L 139.464842 150.32729 
L 143.636111 141.405211 
L 146.416958 135.884372 
L 150.588227 128.158263 
L 154.759497 120.504468 
L 157.540343 115.091791 
L 161.711613 106.418084 
L 167.273305 94.776127 
L 170.054152 89.394932 
L 172.834998 84.414474 
L 175.615845 79.839141 
L 178.396691 75.713008 
L 181.177537 72.073741 
L 188.129653 63.764816 
L 190.9105 59.685166 
L 193.691346 54.950408 
L 196.472192 50.223491 
L 197.862616 48.215823 
L 199.253039 46.637396 
L 200.643462 45.590839 
L 202.033885 45.124159 
L 203.424308 45.226985 
L 204.814732 45.84019 
L 206.205155 46.875297 
L 207.595578 48.237325 
L 208.986001 49.844264 
L 211.766848 53.587432 
L 214.547694 57.910059 
L 217.32854 62.772834 
L 220.109387 68.0805 
L 224.280656 76.537978 
L 242.356158 113.924048 
L 246.527427 122.480908 
L 250.698697 131.477068 
L 257.650813 147.152321 
L 264.602929 162.612696 
L 268.774198 171.483792 
L 272.945468 179.797971 
L 282.67843 198.434584 
L 286.8497 207.353112 
L 295.192239 225.521391 
L 314.658164 266.53476 
L 318.829433 274.810599 
L 321.61028 279.738487 
L 324.391126 284.036509 
L 327.171972 287.70719 
L 329.952819 290.803307 
L 332.733665 293.353088 
L 335.514511 295.362616 
L 338.295358 296.859749 
L 341.076204 297.912734 
L 343.857051 298.612113 
L 343.857051 298.612113 
" clip-path="url(#pd32a54b506)" style="fill: none; stroke: #87ceeb; stroke-width: 1.5; stroke-linecap: square"/>
   </g>
   <g id="patch_63">
    <path d="M 53.328125 299.518125 
L 53.328125 22.318125 
" style="fill: none; stroke: #000000; stroke-width: 0.8; stroke-linejoin: miter; stroke-linecap: square"/>
   </g>
   <g id="patch_64">
    <path d="M 357.691761 299.518125 
L 357.691761 22.318125 
" style="fill: none; stroke: #000000; stroke-width: 0.8; stroke-linejoin: miter; stroke-linecap: square"/>
   </g>
   <g id="patch_65">
    <path d="M 53.328125 299.518125 
L 357.691761 299.518125 
" style="fill: none; stroke: #000000; stroke-width: 0.8; stroke-linejoin: miter; stroke-linecap: square"/>
   </g>
   <g id="patch_66">
    <path d="M 53.328125 22.318125 
L 357.691761 22.318125 
" style="fill: none; stroke: #000000; stroke-width: 0.8; stroke-linejoin: miter; stroke-linecap: square"/>
   </g>
   <g id="text_16">
    <!-- Propensity Score Distribution (Before Matching) -->
    <g transform="translate(62.679006 16.318125) scale(0.12 -0.12)">
     <defs>
      <path id="DejaVuSans-44" d="M 1259 4147 
L 1259 519 
L 2022 519 
Q 2988 519 3436 956 
Q 3884 1394 3884 2338 
Q 3884 3275 3436 3711 
Q 2988 4147 2022 4147 
L 1259 4147 
z
M 628 4666 
L 1925 4666 
Q 3281 4666 3915 4102 
Q 4550 3538 4550 2338 
Q 4550 1131 3912 565 
Q 3275 0 1925 0 
L 628 0 
L 628 4666 
z
" transform="scale(0.015625)"/>
      <path id="DejaVuSans-62" d="M 3116 1747 
Q 3116 2381 2855 2742 
Q 2594 3103 2138 3103 
Q 1681 3103 1420 2742 
Q 1159 2381 1159 1747 
Q 1159 1113 1420 752 
Q 1681 391 2138 391 
Q 2594 391 2855 752 
Q 3116 1113 3116 1747 
z
M 1159 2969 
Q 1341 3281 1617 3432 
Q 1894 3584 2278 3584 
Q 2916 3584 3314 3078 
Q 3713 2572 3713 1747 
Q 3713 922 3314 415 
Q 2916 -91 2278 -91 
Q 1894 -91 1617 61 
Q 1341 213 1159 525 
L 1159 0 
L 581 0 
L 581 4863 
L 1159 4863 
L 1159 2969 
z
" transform="scale(0.015625)"/>
      <path id="DejaVuSans-28" d="M 1984 4856 
Q 1566 4138 1362 3434 
Q 1159 2731 1159 2009 
Q 1159 1288 1364 580 
Q 1569 -128 1984 -844 
L 1484 -844 
Q 1016 -109 783 600 
Q 550 1309 550 2009 
Q 550 2706 781 3412 
Q 1013 4119 1484 4856 
L 1984 4856 
z
" transform="scale(0.015625)"/>
      <path id="DejaVuSans-42" d="M 1259 2228 
L 1259 519 
L 2272 519 
Q 2781 519 3026 730 
Q 3272 941 3272 1375 
Q 3272 1813 3026 2020 
Q 2781 2228 2272 2228 
L 1259 2228 
z
M 1259 4147 
L 1259 2741 
L 2194 2741 
Q 2656 2741 2882 2914 
Q 3109 3088 3109 3444 
Q 3109 3797 2882 3972 
Q 2656 4147 2194 4147 
L 1259 4147 
z
M 628 4666 
L 2241 4666 
Q 2963 4666 3353 4366 
Q 3744 4066 3744 3513 
Q 3744 3084 3544 2831 
Q 3344 2578 2956 2516 
Q 3422 2416 3680 2098 
Q 3938 1781 3938 1306 
Q 3938 681 3513 340 
Q 3088 0 2303 0 
L 628 0 
L 628 4666 
z
" transform="scale(0.015625)"/>
      <path id="DejaVuSans-66" d="M 2375 4863 
L 2375 4384 
L 1825 4384 
Q 1516 4384 1395 4259 
Q 1275 4134 1275 3809 
L 1275 3500 
L 2222 3500 
L 2222 3053 
L 1275 3053 
L 1275 0 
L 697 0 
L 697 3053 
L 147 3053 
L 147 3500 
L 697 3500 
L 697 3744 
Q 697 4328 969 4595 
Q 1241 4863 1831 4863 
L 2375 4863 
z
" transform="scale(0.015625)"/>
      <path id="DejaVuSans-4d" d="M 628 4666 
L 1569 4666 
L 2759 1491 
L 3956 4666 
L 4897 4666 
L 4897 0 
L 4281 0 
L 4281 4097 
L 3078 897 
L 2444 897 
L 1241 4097 
L 1241 0 
L 628 0 
L 628 4666 
z
" transform="scale(0.015625)"/>
      <path id="DejaVuSans-61" d="M 2194 1759 
Q 1497 1759 1228 1600 
Q 959 1441 959 1056 
Q 959 750 1161 570 
Q 1363 391 1709 391 
Q 2188 391 2477 730 
Q 2766 1069 2766 1631 
L 2766 1759 
L 2194 1759 
z
M 3341 1997 
L 3341 0 
L 2766 0 
L 2766 531 
Q 2569 213 2275 61 
Q 1981 -91 1556 -91 
Q 1019 -91 701 211 
Q 384 513 384 1019 
Q 384 1609 779 1909 
Q 1175 2209 1959 2209 
L 2766 2209 
L 2766 2266 
Q 2766 2663 2505 2880 
Q 2244 3097 1772 3097 
Q 1472 3097 1187 3025 
Q 903 2953 641 2809 
L 641 3341 
Q 956 3463 1253 3523 
Q 1550 3584 1831 3584 
Q 2591 3584 2966 3190 
Q 3341 2797 3341 1997 
z
" transform="scale(0.015625)"/>
      <path id="DejaVuSans-68" d="M 3513 2113 
L 3513 0 
L 2938 0 
L 2938 2094 
Q 2938 2591 2744 2837 
Q 2550 3084 2163 3084 
Q 1697 3084 1428 2787 
Q 1159 2491 1159 1978 
L 1159 0 
L 581 0 
L 581 4863 
L 1159 4863 
L 1159 2956 
Q 1366 3272 1645 3428 
Q 1925 3584 2291 3584 
Q 2894 3584 3203 3211 
Q 3513 2838 3513 2113 
z
" transform="scale(0.015625)"/>
      <path id="DejaVuSans-67" d="M 2906 1791 
Q 2906 2416 2648 2759 
Q 2391 3103 1925 3103 
Q 1463 3103 1205 2759 
Q 947 2416 947 1791 
Q 947 1169 1205 825 
Q 1463 481 1925 481 
Q 2391 481 2648 825 
Q 2906 1169 2906 1791 
z
M 3481 434 
Q 3481 -459 3084 -895 
Q 2688 -1331 1869 -1331 
Q 1566 -1331 1297 -1286 
Q 1028 -1241 775 -1147 
L 775 -588 
Q 1028 -725 1275 -790 
Q 1522 -856 1778 -856 
Q 2344 -856 2625 -561 
Q 2906 -266 2906 331 
L 2906 616 
Q 2728 306 2450 153 
Q 2172 0 1784 0 
Q 1141 0 747 490 
Q 353 981 353 1791 
Q 353 2603 747 3093 
Q 1141 3584 1784 3584 
Q 2172 3584 2450 3431 
Q 2728 3278 2906 2969 
L 2906 3500 
L 3481 3500 
L 3481 434 
z
" transform="scale(0.015625)"/>
      <path id="DejaVuSans-29" d="M 513 4856 
L 1013 4856 
Q 1481 4119 1714 3412 
Q 1947 2706 1947 2009 
Q 1947 1309 1714 600 
Q 1481 -109 1013 -844 
L 513 -844 
Q 928 -128 1133 580 
Q 1338 1288 1338 2009 
Q 1338 2731 1133 3434 
Q 928 4138 513 4856 
z
" transform="scale(0.015625)"/>
     </defs>
     <use xlink:href="#DejaVuSans-50"/>
     <use xlink:href="#DejaVuSans-72" x="58.552734"/>
     <use xlink:href="#DejaVuSans-6f" x="97.416016"/>
     <use xlink:href="#DejaVuSans-70" x="158.597656"/>
     <use xlink:href="#DejaVuSans-65" x="222.074219"/>
     <use xlink:href="#DejaVuSans-6e" x="283.597656"/>
     <use xlink:href="#DejaVuSans-73" x="346.976562"/>
     <use xlink:href="#DejaVuSans-69" x="399.076172"/>
     <use xlink:href="#DejaVuSans-74" x="426.859375"/>
     <use xlink:href="#DejaVuSans-79" x="466.068359"/>
     <use xlink:href="#DejaVuSans-20" x="525.248047"/>
     <use xlink:href="#DejaVuSans-53" x="557.035156"/>
     <use xlink:href="#DejaVuSans-63" x="620.511719"/>
     <use xlink:href="#DejaVuSans-6f" x="675.492188"/>
     <use xlink:href="#DejaVuSans-72" x="736.673828"/>
     <use xlink:href="#DejaVuSans-65" x="775.537109"/>
     <use xlink:href="#DejaVuSans-20" x="837.060547"/>
     <use xlink:href="#DejaVuSans-44" x="868.847656"/>
     <use xlink:href="#DejaVuSans-69" x="945.849609"/>
     <use xlink:href="#DejaVuSans-73" x="973.632812"/>
     <use xlink:href="#DejaVuSans-74" x="1025.732422"/>
     <use xlink:href="#DejaVuSans-72" x="1064.941406"/>
     <use xlink:href="#DejaVuSans-69" x="1106.054688"/>
     <use xlink:href="#DejaVuSans-62" x="1133.837891"/>
     <use xlink:href="#DejaVuSans-75" x="1197.314453"/>
     <use xlink:href="#DejaVuSans-74" x="1260.693359"/>
     <use xlink:href="#DejaVuSans-69" x="1299.902344"/>
     <use xlink:href="#DejaVuSans-6f" x="1327.685547"/>
     <use xlink:href="#DejaVuSans-6e" x="1388.867188"/>
     <use xlink:href="#DejaVuSans-20" x="1452.246094"/>
     <use xlink:href="#DejaVuSans-28" x="1484.033203"/>
     <use xlink:href="#DejaVuSans-42" x="1523.046875"/>
     <use xlink:href="#DejaVuSans-65" x="1591.650391"/>
     <use xlink:href="#DejaVuSans-66" x="1653.173828"/>
     <use xlink:href="#DejaVuSans-6f" x="1688.378906"/>
     <use xlink:href="#DejaVuSans-72" x="1749.560547"/>
     <use xlink:href="#DejaVuSans-65" x="1788.423828"/>
     <use xlink:href="#DejaVuSans-20" x="1849.947266"/>
     <use xlink:href="#DejaVuSans-4d" x="1881.734375"/>
     <use xlink:href="#DejaVuSans-61" x="1968.013672"/>
     <use xlink:href="#DejaVuSans-74" x="2029.292969"/>
     <use xlink:href="#DejaVuSans-63" x="2068.501953"/>
     <use xlink:href="#DejaVuSans-68" x="2123.482422"/>
     <use xlink:href="#DejaVuSans-69" x="2186.861328"/>
     <use xlink:href="#DejaVuSans-6e" x="2214.644531"/>
     <use xlink:href="#DejaVuSans-67" x="2278.023438"/>
     <use xlink:href="#DejaVuSans-29" x="2341.5"/>
    </g>
   </g>
   <g id="legend_1">
    <g id="patch_67">
     <path d="M 296.532386 74.3525 
L 350.691761 74.3525 
Q 352.691761 74.3525 352.691761 72.3525 
L 352.691761 29.318125 
Q 352.691761 27.318125 350.691761 27.318125 
L 296.532386 27.318125 
Q 294.532386 27.318125 294.532386 29.318125 
L 294.532386 72.3525 
Q 294.532386 74.3525 296.532386 74.3525 
z
" style="fill: #ffffff; opacity: 0.8; stroke: #cccccc; stroke-linejoin: miter"/>
    </g>
    <g id="text_17">
     <!-- treatment -->
     <g transform="translate(298.532386 38.916562) scale(0.1 -0.1)">
      <defs>
       <path id="DejaVuSans-6d" d="M 3328 2828 
Q 3544 3216 3844 3400 
Q 4144 3584 4550 3584 
Q 5097 3584 5394 3201 
Q 5691 2819 5691 2113 
L 5691 0 
L 5113 0 
L 5113 2094 
Q 5113 2597 4934 2840 
Q 4756 3084 4391 3084 
Q 3944 3084 3684 2787 
Q 3425 2491 3425 1978 
L 3425 0 
L 2847 0 
L 2847 2094 
Q 2847 2600 2669 2842 
Q 2491 3084 2119 3084 
Q 1678 3084 1418 2786 
Q 1159 2488 1159 1978 
L 1159 0 
L 581 0 
L 581 3500 
L 1159 3500 
L 1159 2956 
Q 1356 3278 1631 3431 
Q 1906 3584 2284 3584 
Q 2666 3584 2933 3390 
Q 3200 3197 3328 2828 
z
" transform="scale(0.015625)"/>
      </defs>
      <use xlink:href="#DejaVuSans-74"/>
      <use xlink:href="#DejaVuSans-72" x="39.208984"/>
      <use xlink:href="#DejaVuSans-65" x="78.072266"/>
      <use xlink:href="#DejaVuSans-61" x="139.595703"/>
      <use xlink:href="#DejaVuSans-74" x="200.875"/>
      <use xlink:href="#DejaVuSans-6d" x="240.083984"/>
      <use xlink:href="#DejaVuSans-65" x="337.496094"/>
      <use xlink:href="#DejaVuSans-6e" x="399.019531"/>
      <use xlink:href="#DejaVuSans-74" x="462.398438"/>
     </g>
    </g>
    <g id="patch_68">
     <path d="M 306.430824 53.594688 
L 326.430824 53.594688 
L 326.430824 46.594688 
L 306.430824 46.594688 
z
" style="fill: #87ceeb; fill-opacity: 0.5; stroke: #000000; stroke-linejoin: miter"/>
    </g>
    <g id="text_18">
     <!-- 0 -->
     <g transform="translate(334.430824 53.594688) scale(0.1 -0.1)">
      <use xlink:href="#DejaVuSans-30"/>
     </g>
    </g>
    <g id="patch_69">
     <path d="M 306.430824 68.272813 
L 326.430824 68.272813 
L 326.430824 61.272813 
L 306.430824 61.272813 
z
" style="fill: #fa8072; fill-opacity: 0.5; stroke: #000000; stroke-linejoin: miter"/>
    </g>
    <g id="text_19">
     <!-- 1 -->
     <g transform="translate(334.430824 68.272813) scale(0.1 -0.1)">
      <use xlink:href="#DejaVuSans-31"/>
     </g>
    </g>
   </g>
  </g>
  <g id="axes_2">
   <g id="patch_70">
    <path d="M 418.564489 299.518125 
L 722.928125 299.518125 
L 722.928125 22.318125 
L 418.564489 22.318125 
z
" style="fill: #ffffff"/>
   </g>
   <g id="patch_71">
    <path d="M 432.399199 299.518125 
L 441.62234 299.518125 
L 441.62234 298.011168 
L 432.399199 298.011168 
z
" clip-path="url(#p15e9b2b080)" style="fill: #fa8072; fill-opacity: 0.5; stroke: #000000; stroke-width: 0.922314; stroke-linejoin: miter"/>
   </g>
   <g id="patch_72">
    <path d="M 441.62234 299.518125 
L 450.84548 299.518125 
L 450.84548 290.288014 
L 441.62234 290.288014 
z
" clip-path="url(#p15e9b2b080)" style="fill: #fa8072; fill-opacity: 0.5; stroke: #000000; stroke-width: 0.922314; stroke-linejoin: miter"/>
   </g>
   <g id="patch_73">
    <path d="M 450.84548 299.518125 
L 460.068621 299.518125 
L 460.068621 275.124261 
L 450.84548 275.124261 
z
" clip-path="url(#p15e9b2b080)" style="fill: #fa8072; fill-opacity: 0.5; stroke: #000000; stroke-width: 0.922314; stroke-linejoin: miter"/>
   </g>
   <g id="patch_74">
    <path d="M 460.068621 299.518125 
L 469.291761 299.518125 
L 469.291761 254.780344 
L 460.068621 254.780344 
z
" clip-path="url(#p15e9b2b080)" style="fill: #fa8072; fill-opacity: 0.5; stroke: #000000; stroke-width: 0.922314; stroke-linejoin: miter"/>
   </g>
   <g id="patch_75">
    <path d="M 469.291761 299.518125 
L 478.514902 299.518125 
L 478.514902 236.131753 
L 469.291761 236.131753 
z
" clip-path="url(#p15e9b2b080)" style="fill: #fa8072; fill-opacity: 0.5; stroke: #000000; stroke-width: 0.922314; stroke-linejoin: miter"/>
   </g>
   <g id="patch_76">
    <path d="M 478.514902 299.518125 
L 487.738042 299.518125 
L 487.738042 221.344739 
L 478.514902 221.344739 
z
" clip-path="url(#p15e9b2b080)" style="fill: #fa8072; fill-opacity: 0.5; stroke: #000000; stroke-width: 0.922314; stroke-linejoin: miter"/>
   </g>
   <g id="patch_77">
    <path d="M 487.738042 299.518125 
L 496.961183 299.518125 
L 496.961183 200.341528 
L 487.738042 200.341528 
z
" clip-path="url(#p15e9b2b080)" style="fill: #fa8072; fill-opacity: 0.5; stroke: #000000; stroke-width: 0.922314; stroke-linejoin: miter"/>
   </g>
   <g id="patch_78">
    <path d="M 496.961183 299.518125 
L 506.184323 299.518125 
L 506.184323 182.258047 
L 496.961183 182.258047 
z
" clip-path="url(#p15e9b2b080)" style="fill: #fa8072; fill-opacity: 0.5; stroke: #000000; stroke-width: 0.922314; stroke-linejoin: miter"/>
   </g>
   <g id="patch_79">
    <path d="M 506.184323 299.518125 
L 515.407464 299.518125 
L 515.407464 163.421086 
L 506.184323 163.421086 
z
" clip-path="url(#p15e9b2b080)" style="fill: #fa8072; fill-opacity: 0.5; stroke: #000000; stroke-width: 0.922314; stroke-linejoin: miter"/>
   </g>
   <g id="patch_80">
    <path d="M 515.407464 299.518125 
L 524.630604 299.518125 
L 524.630604 144.113202 
L 515.407464 144.113202 
z
" clip-path="url(#p15e9b2b080)" style="fill: #fa8072; fill-opacity: 0.5; stroke: #000000; stroke-width: 0.922314; stroke-linejoin: miter"/>
   </g>
   <g id="patch_81">
    <path d="M 524.630604 299.518125 
L 533.853745 299.518125 
L 533.853745 122.639067 
L 524.630604 122.639067 
z
" clip-path="url(#p15e9b2b080)" style="fill: #fa8072; fill-opacity: 0.5; stroke: #000000; stroke-width: 0.922314; stroke-linejoin: miter"/>
   </g>
   <g id="patch_82">
    <path d="M 533.853745 299.518125 
L 543.076885 299.518125 
L 543.076885 96.832431 
L 533.853745 96.832431 
z
" clip-path="url(#p15e9b2b080)" style="fill: #fa8072; fill-opacity: 0.5; stroke: #000000; stroke-width: 0.922314; stroke-linejoin: miter"/>
   </g>
   <g id="patch_83">
    <path d="M 543.076885 299.518125 
L 552.300026 299.518125 
L 552.300026 77.524547 
L 543.076885 77.524547 
z
" clip-path="url(#p15e9b2b080)" style="fill: #fa8072; fill-opacity: 0.5; stroke: #000000; stroke-width: 0.922314; stroke-linejoin: miter"/>
   </g>
   <g id="patch_84">
    <path d="M 552.300026 299.518125 
L 561.523166 299.518125 
L 561.523166 66.316555 
L 552.300026 66.316555 
z
" clip-path="url(#p15e9b2b080)" style="fill: #fa8072; fill-opacity: 0.5; stroke: #000000; stroke-width: 0.922314; stroke-linejoin: miter"/>
   </g>
   <g id="patch_85">
    <path d="M 561.523166 299.518125 
L 570.746307 299.518125 
L 570.746307 57.839923 
L 561.523166 57.839923 
z
" clip-path="url(#p15e9b2b080)" style="fill: #fa8072; fill-opacity: 0.5; stroke: #000000; stroke-width: 0.922314; stroke-linejoin: miter"/>
   </g>
   <g id="patch_86">
    <path d="M 570.746307 299.518125 
L 579.969447 299.518125 
L 579.969447 53.789977 
L 570.746307 53.789977 
z
" clip-path="url(#p15e9b2b080)" style="fill: #fa8072; fill-opacity: 0.5; stroke: #000000; stroke-width: 0.922314; stroke-linejoin: miter"/>
   </g>
   <g id="patch_87">
    <path d="M 579.969447 299.518125 
L 589.192588 299.518125 
L 589.192588 68.200251 
L 579.969447 68.200251 
z
" clip-path="url(#p15e9b2b080)" style="fill: #fa8072; fill-opacity: 0.5; stroke: #000000; stroke-width: 0.922314; stroke-linejoin: miter"/>
   </g>
   <g id="patch_88">
    <path d="M 589.192588 299.518125 
L 598.415728 299.518125 
L 598.415728 85.2477 
L 589.192588 85.2477 
z
" clip-path="url(#p15e9b2b080)" style="fill: #fa8072; fill-opacity: 0.5; stroke: #000000; stroke-width: 0.922314; stroke-linejoin: miter"/>
   </g>
   <g id="patch_89">
    <path d="M 598.415728 299.518125 
L 607.638869 299.518125 
L 607.638869 112.467108 
L 598.415728 112.467108 
z
" clip-path="url(#p15e9b2b080)" style="fill: #fa8072; fill-opacity: 0.5; stroke: #000000; stroke-width: 0.922314; stroke-linejoin: miter"/>
   </g>
   <g id="patch_90">
    <path d="M 607.638869 299.518125 
L 616.862009 299.518125 
L 616.862009 120.190262 
L 607.638869 120.190262 
z
" clip-path="url(#p15e9b2b080)" style="fill: #fa8072; fill-opacity: 0.5; stroke: #000000; stroke-width: 0.922314; stroke-linejoin: miter"/>
   </g>
   <g id="patch_91">
    <path d="M 616.862009 299.518125 
L 626.08515 299.518125 
L 626.08515 144.960865 
L 616.862009 144.960865 
z
" clip-path="url(#p15e9b2b080)" style="fill: #fa8072; fill-opacity: 0.5; stroke: #000000; stroke-width: 0.922314; stroke-linejoin: miter"/>
   </g>
   <g id="patch_92">
    <path d="M 626.08515 299.518125 
L 635.30829 299.518125 
L 635.30829 164.739673 
L 626.08515 164.739673 
z
" clip-path="url(#p15e9b2b080)" style="fill: #fa8072; fill-opacity: 0.5; stroke: #000000; stroke-width: 0.922314; stroke-linejoin: miter"/>
   </g>
   <g id="patch_93">
    <path d="M 635.30829 299.518125 
L 644.531431 299.518125 
L 644.531431 186.778917 
L 635.30829 186.778917 
z
" clip-path="url(#p15e9b2b080)" style="fill: #fa8072; fill-opacity: 0.5; stroke: #000000; stroke-width: 0.922314; stroke-linejoin: miter"/>
   </g>
   <g id="patch_94">
    <path d="M 644.531431 299.518125 
L 653.754571 299.518125 
L 653.754571 202.507779 
L 644.531431 202.507779 
z
" clip-path="url(#p15e9b2b080)" style="fill: #fa8072; fill-opacity: 0.5; stroke: #000000; stroke-width: 0.922314; stroke-linejoin: miter"/>
   </g>
   <g id="patch_95">
    <path d="M 653.754571 299.518125 
L 662.977712 299.518125 
L 662.977712 220.214522 
L 653.754571 220.214522 
z
" clip-path="url(#p15e9b2b080)" style="fill: #fa8072; fill-opacity: 0.5; stroke: #000000; stroke-width: 0.922314; stroke-linejoin: miter"/>
   </g>
   <g id="patch_96">
    <path d="M 662.977712 299.518125 
L 672.200852 299.518125 
L 672.200852 240.087515 
L 662.977712 240.087515 
z
" clip-path="url(#p15e9b2b080)" style="fill: #fa8072; fill-opacity: 0.5; stroke: #000000; stroke-width: 0.922314; stroke-linejoin: miter"/>
   </g>
   <g id="patch_97">
    <path d="M 672.200852 299.518125 
L 681.423993 299.518125 
L 681.423993 260.337247 
L 672.200852 260.337247 
z
" clip-path="url(#p15e9b2b080)" style="fill: #fa8072; fill-opacity: 0.5; stroke: #000000; stroke-width: 0.922314; stroke-linejoin: miter"/>
   </g>
   <g id="patch_98">
    <path d="M 681.423993 299.518125 
L 690.647133 299.518125 
L 690.647133 279.833501 
L 681.423993 279.833501 
z
" clip-path="url(#p15e9b2b080)" style="fill: #fa8072; fill-opacity: 0.5; stroke: #000000; stroke-width: 0.922314; stroke-linejoin: miter"/>
   </g>
   <g id="patch_99">
    <path d="M 690.647133 299.518125 
L 699.870274 299.518125 
L 699.870274 291.700786 
L 690.647133 291.700786 
z
" clip-path="url(#p15e9b2b080)" style="fill: #fa8072; fill-opacity: 0.5; stroke: #000000; stroke-width: 0.922314; stroke-linejoin: miter"/>
   </g>
   <g id="patch_100">
    <path d="M 699.870274 299.518125 
L 709.093414 299.518125 
L 709.093414 298.670462 
L 699.870274 298.670462 
z
" clip-path="url(#p15e9b2b080)" style="fill: #fa8072; fill-opacity: 0.5; stroke: #000000; stroke-width: 0.922314; stroke-linejoin: miter"/>
   </g>
   <g id="patch_101">
    <path d="M 432.399199 299.518125 
L 441.62234 299.518125 
L 441.62234 298.011168 
L 432.399199 298.011168 
z
" clip-path="url(#p15e9b2b080)" style="fill: #87ceeb; fill-opacity: 0.5; stroke: #000000; stroke-width: 0.922314; stroke-linejoin: miter"/>
   </g>
   <g id="patch_102">
    <path d="M 441.62234 299.518125 
L 450.84548 299.518125 
L 450.84548 290.19383 
L 441.62234 290.19383 
z
" clip-path="url(#p15e9b2b080)" style="fill: #87ceeb; fill-opacity: 0.5; stroke: #000000; stroke-width: 0.922314; stroke-linejoin: miter"/>
   </g>
   <g id="patch_103">
    <path d="M 450.84548 299.518125 
L 460.068621 299.518125 
L 460.068621 275.124261 
L 450.84548 275.124261 
z
" clip-path="url(#p15e9b2b080)" style="fill: #87ceeb; fill-opacity: 0.5; stroke: #000000; stroke-width: 0.922314; stroke-linejoin: miter"/>
   </g>
   <g id="patch_104">
    <path d="M 460.068621 299.518125 
L 469.291761 299.518125 
L 469.291761 254.874529 
L 460.068621 254.874529 
z
" clip-path="url(#p15e9b2b080)" style="fill: #87ceeb; fill-opacity: 0.5; stroke: #000000; stroke-width: 0.922314; stroke-linejoin: miter"/>
   </g>
   <g id="patch_105">
    <path d="M 469.291761 299.518125 
L 478.514902 299.518125 
L 478.514902 236.131753 
L 469.291761 236.131753 
z
" clip-path="url(#p15e9b2b080)" style="fill: #87ceeb; fill-opacity: 0.5; stroke: #000000; stroke-width: 0.922314; stroke-linejoin: miter"/>
   </g>
   <g id="patch_106">
    <path d="M 478.514902 299.518125 
L 487.738042 299.518125 
L 487.738042 221.627294 
L 478.514902 221.627294 
z
" clip-path="url(#p15e9b2b080)" style="fill: #87ceeb; fill-opacity: 0.5; stroke: #000000; stroke-width: 0.922314; stroke-linejoin: miter"/>
   </g>
   <g id="patch_107">
    <path d="M 487.738042 299.518125 
L 496.961183 299.518125 
L 496.961183 199.870604 
L 487.738042 199.870604 
z
" clip-path="url(#p15e9b2b080)" style="fill: #87ceeb; fill-opacity: 0.5; stroke: #000000; stroke-width: 0.922314; stroke-linejoin: miter"/>
   </g>
   <g id="patch_108">
    <path d="M 496.961183 299.518125 
L 506.184323 299.518125 
L 506.184323 182.352231 
L 496.961183 182.352231 
z
" clip-path="url(#p15e9b2b080)" style="fill: #87ceeb; fill-opacity: 0.5; stroke: #000000; stroke-width: 0.922314; stroke-linejoin: miter"/>
   </g>
   <g id="patch_109">
    <path d="M 506.184323 299.518125 
L 515.407464 299.518125 
L 515.407464 162.761792 
L 506.184323 162.761792 
z
" clip-path="url(#p15e9b2b080)" style="fill: #87ceeb; fill-opacity: 0.5; stroke: #000000; stroke-width: 0.922314; stroke-linejoin: miter"/>
   </g>
   <g id="patch_110">
    <path d="M 515.407464 299.518125 
L 524.630604 299.518125 
L 524.630604 144.395756 
L 515.407464 144.395756 
z
" clip-path="url(#p15e9b2b080)" style="fill: #87ceeb; fill-opacity: 0.5; stroke: #000000; stroke-width: 0.922314; stroke-linejoin: miter"/>
   </g>
   <g id="patch_111">
    <path d="M 524.630604 299.518125 
L 533.853745 299.518125 
L 533.853745 123.109991 
L 524.630604 123.109991 
z
" clip-path="url(#p15e9b2b080)" style="fill: #87ceeb; fill-opacity: 0.5; stroke: #000000; stroke-width: 0.922314; stroke-linejoin: miter"/>
   </g>
   <g id="patch_112">
    <path d="M 533.853745 299.518125 
L 543.076885 299.518125 
L 543.076885 96.738246 
L 533.853745 96.738246 
z
" clip-path="url(#p15e9b2b080)" style="fill: #87ceeb; fill-opacity: 0.5; stroke: #000000; stroke-width: 0.922314; stroke-linejoin: miter"/>
   </g>
   <g id="patch_113">
    <path d="M 543.076885 299.518125 
L 552.300026 299.518125 
L 552.300026 77.053623 
L 543.076885 77.053623 
z
" clip-path="url(#p15e9b2b080)" style="fill: #87ceeb; fill-opacity: 0.5; stroke: #000000; stroke-width: 0.922314; stroke-linejoin: miter"/>
   </g>
   <g id="patch_114">
    <path d="M 552.300026 299.518125 
L 561.523166 299.518125 
L 561.523166 66.881664 
L 552.300026 66.881664 
z
" clip-path="url(#p15e9b2b080)" style="fill: #87ceeb; fill-opacity: 0.5; stroke: #000000; stroke-width: 0.922314; stroke-linejoin: miter"/>
   </g>
   <g id="patch_115">
    <path d="M 561.523166 299.518125 
L 570.746307 299.518125 
L 570.746307 56.80389 
L 561.523166 56.80389 
z
" clip-path="url(#p15e9b2b080)" style="fill: #87ceeb; fill-opacity: 0.5; stroke: #000000; stroke-width: 0.922314; stroke-linejoin: miter"/>
   </g>
   <g id="patch_116">
    <path d="M 570.746307 299.518125 
L 579.969447 299.518125 
L 579.969447 55.673673 
L 570.746307 55.673673 
z
" clip-path="url(#p15e9b2b080)" style="fill: #87ceeb; fill-opacity: 0.5; stroke: #000000; stroke-width: 0.922314; stroke-linejoin: miter"/>
   </g>
   <g id="patch_117">
    <path d="M 579.969447 299.518125 
L 589.192588 299.518125 
L 589.192588 68.576991 
L 579.969447 68.576991 
z
" clip-path="url(#p15e9b2b080)" style="fill: #87ceeb; fill-opacity: 0.5; stroke: #000000; stroke-width: 0.922314; stroke-linejoin: miter"/>
   </g>
   <g id="patch_118">
    <path d="M 589.192588 299.518125 
L 598.415728 299.518125 
L 598.415728 85.059331 
L 589.192588 85.059331 
z
" clip-path="url(#p15e9b2b080)" style="fill: #87ceeb; fill-opacity: 0.5; stroke: #000000; stroke-width: 0.922314; stroke-linejoin: miter"/>
   </g>
   <g id="patch_119">
    <path d="M 598.415728 299.518125 
L 607.638869 299.518125 
L 607.638869 107.192759 
L 598.415728 107.192759 
z
" clip-path="url(#p15e9b2b080)" style="fill: #87ceeb; fill-opacity: 0.5; stroke: #000000; stroke-width: 0.922314; stroke-linejoin: miter"/>
   </g>
   <g id="patch_120">
    <path d="M 607.638869 299.518125 
L 616.862009 299.518125 
L 616.862009 125.558796 
L 607.638869 125.558796 
z
" clip-path="url(#p15e9b2b080)" style="fill: #87ceeb; fill-opacity: 0.5; stroke: #000000; stroke-width: 0.922314; stroke-linejoin: miter"/>
   </g>
   <g id="patch_121">
    <path d="M 616.862009 299.518125 
L 626.08515 299.518125 
L 626.08515 145.431789 
L 616.862009 145.431789 
z
" clip-path="url(#p15e9b2b080)" style="fill: #87ceeb; fill-opacity: 0.5; stroke: #000000; stroke-width: 0.922314; stroke-linejoin: miter"/>
   </g>
   <g id="patch_122">
    <path d="M 626.08515 299.518125 
L 635.30829 299.518125 
L 635.30829 162.479238 
L 626.08515 162.479238 
z
" clip-path="url(#p15e9b2b080)" style="fill: #87ceeb; fill-opacity: 0.5; stroke: #000000; stroke-width: 0.922314; stroke-linejoin: miter"/>
   </g>
   <g id="patch_123">
    <path d="M 635.30829 299.518125 
L 644.531431 299.518125 
L 644.531431 186.684732 
L 635.30829 186.684732 
z
" clip-path="url(#p15e9b2b080)" style="fill: #87ceeb; fill-opacity: 0.5; stroke: #000000; stroke-width: 0.922314; stroke-linejoin: miter"/>
   </g>
   <g id="patch_124">
    <path d="M 644.531431 299.518125 
L 653.754571 299.518125 
L 653.754571 200.718268 
L 644.531431 200.718268 
z
" clip-path="url(#p15e9b2b080)" style="fill: #87ceeb; fill-opacity: 0.5; stroke: #000000; stroke-width: 0.922314; stroke-linejoin: miter"/>
   </g>
   <g id="patch_125">
    <path d="M 653.754571 299.518125 
L 662.977712 299.518125 
L 662.977712 221.533109 
L 653.754571 221.533109 
z
" clip-path="url(#p15e9b2b080)" style="fill: #87ceeb; fill-opacity: 0.5; stroke: #000000; stroke-width: 0.922314; stroke-linejoin: miter"/>
   </g>
   <g id="patch_126">
    <path d="M 662.977712 299.518125 
L 672.200852 299.518125 
L 672.200852 241.406102 
L 662.977712 241.406102 
z
" clip-path="url(#p15e9b2b080)" style="fill: #87ceeb; fill-opacity: 0.5; stroke: #000000; stroke-width: 0.922314; stroke-linejoin: miter"/>
   </g>
   <g id="patch_127">
    <path d="M 672.200852 299.518125 
L 681.423993 299.518125 
L 681.423993 258.924475 
L 672.200852 258.924475 
z
" clip-path="url(#p15e9b2b080)" style="fill: #87ceeb; fill-opacity: 0.5; stroke: #000000; stroke-width: 0.922314; stroke-linejoin: miter"/>
   </g>
   <g id="patch_128">
    <path d="M 681.423993 299.518125 
L 690.647133 299.518125 
L 690.647133 281.623013 
L 681.423993 281.623013 
z
" clip-path="url(#p15e9b2b080)" style="fill: #87ceeb; fill-opacity: 0.5; stroke: #000000; stroke-width: 0.922314; stroke-linejoin: miter"/>
   </g>
   <g id="patch_129">
    <path d="M 690.647133 299.518125 
L 699.870274 299.518125 
L 699.870274 292.077526 
L 690.647133 292.077526 
z
" clip-path="url(#p15e9b2b080)" style="fill: #87ceeb; fill-opacity: 0.5; stroke: #000000; stroke-width: 0.922314; stroke-linejoin: miter"/>
   </g>
   <g id="patch_130">
    <path d="M 699.870274 299.518125 
L 709.093414 299.518125 
L 709.093414 297.822799 
L 699.870274 297.822799 
z
" clip-path="url(#p15e9b2b080)" style="fill: #87ceeb; fill-opacity: 0.5; stroke: #000000; stroke-width: 0.922314; stroke-linejoin: miter"/>
   </g>
   <g id="matplotlib.axis_3">
    <g id="xtick_8">
     <g id="line2d_16">
      <g>
       <use xlink:href="#m9a170cf079" x="455.850061" y="299.518125" style="stroke: #000000; stroke-width: 0.8"/>
      </g>
     </g>
     <g id="text_20">
      <!-- 0.425 -->
      <g transform="translate(441.535998 314.116563) scale(0.1 -0.1)">
       <use xlink:href="#DejaVuSans-30"/>
       <use xlink:href="#DejaVuSans-2e" x="63.623047"/>
       <use xlink:href="#DejaVuSans-34" x="95.410156"/>
       <use xlink:href="#DejaVuSans-32" x="159.033203"/>
       <use xlink:href="#DejaVuSans-35" x="222.65625"/>
      </g>
     </g>
    </g>
    <g id="xtick_9">
     <g id="line2d_17">
      <g>
       <use xlink:href="#m9a170cf079" x="495.795958" y="299.518125" style="stroke: #000000; stroke-width: 0.8"/>
      </g>
     </g>
     <g id="text_21">
      <!-- 0.450 -->
      <g transform="translate(481.481896 314.116563) scale(0.1 -0.1)">
       <use xlink:href="#DejaVuSans-30"/>
       <use xlink:href="#DejaVuSans-2e" x="63.623047"/>
       <use xlink:href="#DejaVuSans-34" x="95.410156"/>
       <use xlink:href="#DejaVuSans-35" x="159.033203"/>
       <use xlink:href="#DejaVuSans-30" x="222.65625"/>
      </g>
     </g>
    </g>
    <g id="xtick_10">
     <g id="line2d_18">
      <g>
       <use xlink:href="#m9a170cf079" x="535.741856" y="299.518125" style="stroke: #000000; stroke-width: 0.8"/>
      </g>
     </g>
     <g id="text_22">
      <!-- 0.475 -->
      <g transform="translate(521.427794 314.116563) scale(0.1 -0.1)">
       <use xlink:href="#DejaVuSans-30"/>
       <use xlink:href="#DejaVuSans-2e" x="63.623047"/>
       <use xlink:href="#DejaVuSans-34" x="95.410156"/>
       <use xlink:href="#DejaVuSans-37" x="159.033203"/>
       <use xlink:href="#DejaVuSans-35" x="222.65625"/>
      </g>
     </g>
    </g>
    <g id="xtick_11">
     <g id="line2d_19">
      <g>
       <use xlink:href="#m9a170cf079" x="575.687754" y="299.518125" style="stroke: #000000; stroke-width: 0.8"/>
      </g>
     </g>
     <g id="text_23">
      <!-- 0.500 -->
      <g transform="translate(561.373691 314.116563) scale(0.1 -0.1)">
       <use xlink:href="#DejaVuSans-30"/>
       <use xlink:href="#DejaVuSans-2e" x="63.623047"/>
       <use xlink:href="#DejaVuSans-35" x="95.410156"/>
       <use xlink:href="#DejaVuSans-30" x="159.033203"/>
       <use xlink:href="#DejaVuSans-30" x="222.65625"/>
      </g>
     </g>
    </g>
    <g id="xtick_12">
     <g id="line2d_20">
      <g>
       <use xlink:href="#m9a170cf079" x="615.633651" y="299.518125" style="stroke: #000000; stroke-width: 0.8"/>
      </g>
     </g>
     <g id="text_24">
      <!-- 0.525 -->
      <g transform="translate(601.319589 314.116563) scale(0.1 -0.1)">
       <use xlink:href="#DejaVuSans-30"/>
       <use xlink:href="#DejaVuSans-2e" x="63.623047"/>
       <use xlink:href="#DejaVuSans-35" x="95.410156"/>
       <use xlink:href="#DejaVuSans-32" x="159.033203"/>
       <use xlink:href="#DejaVuSans-35" x="222.65625"/>
      </g>
     </g>
    </g>
    <g id="xtick_13">
     <g id="line2d_21">
      <g>
       <use xlink:href="#m9a170cf079" x="655.579549" y="299.518125" style="stroke: #000000; stroke-width: 0.8"/>
      </g>
     </g>
     <g id="text_25">
      <!-- 0.550 -->
      <g transform="translate(641.265486 314.116563) scale(0.1 -0.1)">
       <use xlink:href="#DejaVuSans-30"/>
       <use xlink:href="#DejaVuSans-2e" x="63.623047"/>
       <use xlink:href="#DejaVuSans-35" x="95.410156"/>
       <use xlink:href="#DejaVuSans-35" x="159.033203"/>
       <use xlink:href="#DejaVuSans-30" x="222.65625"/>
      </g>
     </g>
    </g>
    <g id="xtick_14">
     <g id="line2d_22">
      <g>
       <use xlink:href="#m9a170cf079" x="695.525446" y="299.518125" style="stroke: #000000; stroke-width: 0.8"/>
      </g>
     </g>
     <g id="text_26">
      <!-- 0.575 -->
      <g transform="translate(681.211384 314.116563) scale(0.1 -0.1)">
       <use xlink:href="#DejaVuSans-30"/>
       <use xlink:href="#DejaVuSans-2e" x="63.623047"/>
       <use xlink:href="#DejaVuSans-35" x="95.410156"/>
       <use xlink:href="#DejaVuSans-37" x="159.033203"/>
       <use xlink:href="#DejaVuSans-35" x="222.65625"/>
      </g>
     </g>
    </g>
    <g id="text_27">
     <!-- Propensity Score -->
     <g transform="translate(528.892401 327.794688) scale(0.1 -0.1)">
      <use xlink:href="#DejaVuSans-50"/>
      <use xlink:href="#DejaVuSans-72" x="58.552734"/>
      <use xlink:href="#DejaVuSans-6f" x="97.416016"/>
      <use xlink:href="#DejaVuSans-70" x="158.597656"/>
      <use xlink:href="#DejaVuSans-65" x="222.074219"/>
      <use xlink:href="#DejaVuSans-6e" x="283.597656"/>
      <use xlink:href="#DejaVuSans-73" x="346.976562"/>
      <use xlink:href="#DejaVuSans-69" x="399.076172"/>
      <use xlink:href="#DejaVuSans-74" x="426.859375"/>
      <use xlink:href="#DejaVuSans-79" x="466.068359"/>
      <use xlink:href="#DejaVuSans-20" x="525.248047"/>
      <use xlink:href="#DejaVuSans-53" x="557.035156"/>
      <use xlink:href="#DejaVuSans-63" x="620.511719"/>
      <use xlink:href="#DejaVuSans-6f" x="675.492188"/>
      <use xlink:href="#DejaVuSans-72" x="736.673828"/>
      <use xlink:href="#DejaVuSans-65" x="775.537109"/>
     </g>
    </g>
   </g>
   <g id="matplotlib.axis_4">
    <g id="ytick_7">
     <g id="line2d_23">
      <g>
       <use xlink:href="#mde80f44297" x="418.564489" y="299.518125" style="stroke: #000000; stroke-width: 0.8"/>
      </g>
     </g>
    </g>
    <g id="ytick_8">
     <g id="line2d_24">
      <g>
       <use xlink:href="#mde80f44297" x="418.564489" y="252.425724" style="stroke: #000000; stroke-width: 0.8"/>
      </g>
     </g>
    </g>
    <g id="ytick_9">
     <g id="line2d_25">
      <g>
       <use xlink:href="#mde80f44297" x="418.564489" y="205.333323" style="stroke: #000000; stroke-width: 0.8"/>
      </g>
     </g>
    </g>
    <g id="ytick_10">
     <g id="line2d_26">
      <g>
       <use xlink:href="#mde80f44297" x="418.564489" y="158.240922" style="stroke: #000000; stroke-width: 0.8"/>
      </g>
     </g>
    </g>
    <g id="ytick_11">
     <g id="line2d_27">
      <g>
       <use xlink:href="#mde80f44297" x="418.564489" y="111.148521" style="stroke: #000000; stroke-width: 0.8"/>
      </g>
     </g>
    </g>
    <g id="ytick_12">
     <g id="line2d_28">
      <g>
       <use xlink:href="#mde80f44297" x="418.564489" y="64.05612" style="stroke: #000000; stroke-width: 0.8"/>
      </g>
     </g>
    </g>
   </g>
   <g id="line2d_29">
    <path d="M 432.399199 298.360415 
L 435.180046 297.502196 
L 436.570469 296.915959 
L 437.960892 296.204064 
L 439.351315 295.351105 
L 440.741739 294.342952 
L 442.132162 293.167832 
L 443.522585 291.817561 
L 444.913008 290.288763 
L 447.693854 286.711042 
L 450.474701 282.519966 
L 453.255547 277.850944 
L 456.036394 272.821766 
L 460.207663 264.753236 
L 472.721472 239.670418 
L 476.892741 232.235159 
L 481.064011 224.72084 
L 483.844857 219.20535 
L 486.625704 213.216593 
L 494.968243 194.75549 
L 499.139513 186.400265 
L 506.091628 172.799452 
L 510.262898 164.150314 
L 517.215014 149.138112 
L 524.16713 133.61294 
L 529.728823 120.72872 
L 533.900092 110.394856 
L 540.852208 92.911451 
L 543.633055 86.432541 
L 546.413901 80.541738 
L 549.194747 75.428821 
L 551.975594 71.158381 
L 554.75644 67.638774 
L 557.537287 64.765388 
L 558.92771 63.574909 
L 560.318133 62.566586 
L 561.708556 61.752091 
L 563.098979 61.130596 
L 564.489402 60.682722 
L 567.270249 60.146855 
L 571.441518 59.649094 
L 572.831942 59.550292 
L 574.222365 59.565136 
L 575.612788 59.77157 
L 577.003211 60.246609 
L 578.393634 61.050819 
L 579.784058 62.21745 
L 581.174481 63.748254 
L 582.564904 65.615978 
L 583.955327 67.771908 
L 586.736174 72.7078 
L 590.907443 80.910028 
L 596.469136 92.470909 
L 602.030829 104.178303 
L 606.202098 112.409331 
L 611.763791 123.300297 
L 614.544637 129.216773 
L 618.715907 138.743864 
L 624.2776 151.64737 
L 628.448869 160.769301 
L 634.010562 172.386192 
L 638.181832 180.70798 
L 649.305217 202.177618 
L 654.86691 213.916448 
L 665.990295 238.119004 
L 674.332834 254.972673 
L 679.894527 266.682136 
L 682.675374 272.109734 
L 685.45622 277.043908 
L 688.237066 281.476271 
L 691.017913 285.431824 
L 693.798759 288.909407 
L 696.579606 291.88363 
L 699.360452 294.330898 
L 702.141298 296.241696 
L 703.531721 296.998377 
L 706.312568 298.137954 
L 709.093414 298.844528 
L 709.093414 298.844528 
" clip-path="url(#p15e9b2b080)" style="fill: none; stroke: #fa8072; stroke-width: 1.5; stroke-linecap: square"/>
   </g>
   <g id="line2d_30">
    <path d="M 432.399199 298.362074 
L 435.180046 297.506427 
L 436.570469 296.920578 
L 437.960892 296.208383 
L 439.351315 295.35459 
L 440.741739 294.345362 
L 442.132162 293.169295 
L 443.522585 291.81855 
L 444.913008 290.289995 
L 447.693854 286.715044 
L 450.474701 282.528127 
L 453.255547 277.861083 
L 456.036394 272.829009 
L 460.207663 264.749139 
L 472.721472 239.661414 
L 476.892741 232.237687 
L 481.064011 224.731201 
L 483.844857 219.217211 
L 486.625704 213.226947 
L 494.968243 194.745736 
L 499.139513 186.390064 
L 506.091628 172.799814 
L 510.262898 164.154415 
L 517.215014 149.14251 
L 524.16713 133.615579 
L 529.728823 120.720871 
L 533.900092 110.347525 
L 540.852208 92.768833 
L 543.633055 86.314686 
L 546.413901 80.508188 
L 549.194747 75.510976 
L 551.975594 71.33955 
L 554.75644 67.858011 
L 557.537287 64.940055 
L 558.92771 63.699911 
L 560.318133 62.630913 
L 561.708556 61.752245 
L 563.098979 61.07046 
L 564.489402 60.571864 
L 567.270249 59.972802 
L 571.441518 59.463276 
L 572.831942 59.378004 
L 574.222365 59.414838 
L 575.612788 59.651082 
L 577.003211 60.161327 
L 578.393634 61.001582 
L 579.784058 62.199178 
L 581.174481 63.750355 
L 582.564904 65.624926 
L 583.955327 67.77542 
L 586.736174 72.688554 
L 589.51702 78.108346 
L 595.078713 89.603249 
L 602.030829 104.028303 
L 613.154214 126.57275 
L 618.715907 138.792062 
L 628.448869 160.54575 
L 634.010562 172.356404 
L 638.181832 180.584992 
L 646.524371 196.284985 
L 650.69564 204.988145 
L 661.819026 228.98397 
L 682.675374 272.404395 
L 685.45622 277.573107 
L 688.237066 282.151743 
L 691.017913 286.090136 
L 693.798759 289.434232 
L 696.579606 292.230259 
L 699.360452 294.488019 
L 702.141298 296.217498 
L 704.922145 297.467312 
L 707.702991 298.320849 
L 709.093414 298.62796 
L 709.093414 298.62796 
" clip-path="url(#p15e9b2b080)" style="fill: none; stroke: #87ceeb; stroke-width: 1.5; stroke-linecap: square"/>
   </g>
   <g id="patch_131">
    <path d="M 418.564489 299.518125 
L 418.564489 22.318125 
" style="fill: none; stroke: #000000; stroke-width: 0.8; stroke-linejoin: miter; stroke-linecap: square"/>
   </g>
   <g id="patch_132">
    <path d="M 722.928125 299.518125 
L 722.928125 22.318125 
" style="fill: none; stroke: #000000; stroke-width: 0.8; stroke-linejoin: miter; stroke-linecap: square"/>
   </g>
   <g id="patch_133">
    <path d="M 418.564489 299.518125 
L 722.928125 299.518125 
" style="fill: none; stroke: #000000; stroke-width: 0.8; stroke-linejoin: miter; stroke-linecap: square"/>
   </g>
   <g id="patch_134">
    <path d="M 418.564489 22.318125 
L 722.928125 22.318125 
" style="fill: none; stroke: #000000; stroke-width: 0.8; stroke-linejoin: miter; stroke-linecap: square"/>
   </g>
   <g id="text_28">
    <!-- Propensity Score Distribution (After Matching) -->
    <g transform="translate(433.125994 16.318125) scale(0.12 -0.12)">
     <defs>
      <path id="DejaVuSans-41" d="M 2188 4044 
L 1331 1722 
L 3047 1722 
L 2188 4044 
z
M 1831 4666 
L 2547 4666 
L 4325 0 
L 3669 0 
L 3244 1197 
L 1141 1197 
L 716 0 
L 50 0 
L 1831 4666 
z
" transform="scale(0.015625)"/>
     </defs>
     <use xlink:href="#DejaVuSans-50"/>
     <use xlink:href="#DejaVuSans-72" x="58.552734"/>
     <use xlink:href="#DejaVuSans-6f" x="97.416016"/>
     <use xlink:href="#DejaVuSans-70" x="158.597656"/>
     <use xlink:href="#DejaVuSans-65" x="222.074219"/>
     <use xlink:href="#DejaVuSans-6e" x="283.597656"/>
     <use xlink:href="#DejaVuSans-73" x="346.976562"/>
     <use xlink:href="#DejaVuSans-69" x="399.076172"/>
     <use xlink:href="#DejaVuSans-74" x="426.859375"/>
     <use xlink:href="#DejaVuSans-79" x="466.068359"/>
     <use xlink:href="#DejaVuSans-20" x="525.248047"/>
     <use xlink:href="#DejaVuSans-53" x="557.035156"/>
     <use xlink:href="#DejaVuSans-63" x="620.511719"/>
     <use xlink:href="#DejaVuSans-6f" x="675.492188"/>
     <use xlink:href="#DejaVuSans-72" x="736.673828"/>
     <use xlink:href="#DejaVuSans-65" x="775.537109"/>
     <use xlink:href="#DejaVuSans-20" x="837.060547"/>
     <use xlink:href="#DejaVuSans-44" x="868.847656"/>
     <use xlink:href="#DejaVuSans-69" x="945.849609"/>
     <use xlink:href="#DejaVuSans-73" x="973.632812"/>
     <use xlink:href="#DejaVuSans-74" x="1025.732422"/>
     <use xlink:href="#DejaVuSans-72" x="1064.941406"/>
     <use xlink:href="#DejaVuSans-69" x="1106.054688"/>
     <use xlink:href="#DejaVuSans-62" x="1133.837891"/>
     <use xlink:href="#DejaVuSans-75" x="1197.314453"/>
     <use xlink:href="#DejaVuSans-74" x="1260.693359"/>
     <use xlink:href="#DejaVuSans-69" x="1299.902344"/>
     <use xlink:href="#DejaVuSans-6f" x="1327.685547"/>
     <use xlink:href="#DejaVuSans-6e" x="1388.867188"/>
     <use xlink:href="#DejaVuSans-20" x="1452.246094"/>
     <use xlink:href="#DejaVuSans-28" x="1484.033203"/>
     <use xlink:href="#DejaVuSans-41" x="1523.046875"/>
     <use xlink:href="#DejaVuSans-66" x="1587.830078"/>
     <use xlink:href="#DejaVuSans-74" x="1621.285156"/>
     <use xlink:href="#DejaVuSans-65" x="1660.494141"/>
     <use xlink:href="#DejaVuSans-72" x="1722.017578"/>
     <use xlink:href="#DejaVuSans-20" x="1763.130859"/>
     <use xlink:href="#DejaVuSans-4d" x="1794.917969"/>
     <use xlink:href="#DejaVuSans-61" x="1881.197266"/>
     <use xlink:href="#DejaVuSans-74" x="1942.476562"/>
     <use xlink:href="#DejaVuSans-63" x="1981.685547"/>
     <use xlink:href="#DejaVuSans-68" x="2036.666016"/>
     <use xlink:href="#DejaVuSans-69" x="2100.044922"/>
     <use xlink:href="#DejaVuSans-6e" x="2127.828125"/>
     <use xlink:href="#DejaVuSans-67" x="2191.207031"/>
     <use xlink:href="#DejaVuSans-29" x="2254.683594"/>
    </g>
   </g>
   <g id="legend_2">
    <g id="patch_135">
     <path d="M 661.76875 74.3525 
L 715.928125 74.3525 
Q 717.928125 74.3525 717.928125 72.3525 
L 717.928125 29.318125 
Q 717.928125 27.318125 715.928125 27.318125 
L 661.76875 27.318125 
Q 659.76875 27.318125 659.76875 29.318125 
L 659.76875 72.3525 
Q 659.76875 74.3525 661.76875 74.3525 
z
" style="fill: #ffffff; opacity: 0.8; stroke: #cccccc; stroke-linejoin: miter"/>
    </g>
    <g id="text_29">
     <!-- treatment -->
     <g transform="translate(663.76875 38.916562) scale(0.1 -0.1)">
      <use xlink:href="#DejaVuSans-74"/>
      <use xlink:href="#DejaVuSans-72" x="39.208984"/>
      <use xlink:href="#DejaVuSans-65" x="78.072266"/>
      <use xlink:href="#DejaVuSans-61" x="139.595703"/>
      <use xlink:href="#DejaVuSans-74" x="200.875"/>
      <use xlink:href="#DejaVuSans-6d" x="240.083984"/>
      <use xlink:href="#DejaVuSans-65" x="337.496094"/>
      <use xlink:href="#DejaVuSans-6e" x="399.019531"/>
      <use xlink:href="#DejaVuSans-74" x="462.398438"/>
     </g>
    </g>
    <g id="patch_136">
     <path d="M 671.667187 53.594688 
L 691.667187 53.594688 
L 691.667187 46.594688 
L 671.667187 46.594688 
z
" style="fill: #87ceeb; fill-opacity: 0.5; stroke: #000000; stroke-linejoin: miter"/>
    </g>
    <g id="text_30">
     <!-- 0 -->
     <g transform="translate(699.667187 53.594688) scale(0.1 -0.1)">
      <use xlink:href="#DejaVuSans-30"/>
     </g>
    </g>
    <g id="patch_137">
     <path d="M 671.667187 68.272813 
L 691.667187 68.272813 
L 691.667187 61.272813 
L 671.667187 61.272813 
z
" style="fill: #fa8072; fill-opacity: 0.5; stroke: #000000; stroke-linejoin: miter"/>
    </g>
    <g id="text_31">
     <!-- 1 -->
     <g transform="translate(699.667187 68.272813) scale(0.1 -0.1)">
      <use xlink:href="#DejaVuSans-31"/>
     </g>
    </g>
   </g>
  </g>
 </g>
 <defs>
  <clipPath id="pd32a54b506">
   <rect x="53.328125" y="22.318125" width="304.363636" height="277.2"/>
  </clipPath>
  <clipPath id="p15e9b2b080">
   <rect x="418.564489" y="22.318125" width="304.363636" height="277.2"/>
  </clipPath>
 </defs>
</svg>
